<?xml version="1.0" encoding="UTF-8" standalone="no"?>
<!-- Created with Inkscape (http://www.inkscape.org/) -->

<svg
   xmlns:dc="http://purl.org/dc/elements/1.1/"
   xmlns:cc="http://creativecommons.org/ns#"
   xmlns:rdf="http://www.w3.org/1999/02/22-rdf-syntax-ns#"
   xmlns:svg="http://www.w3.org/2000/svg"
   xmlns="http://www.w3.org/2000/svg"
   xmlns:xlink="http://www.w3.org/1999/xlink"
   xmlns:sodipodi="http://sodipodi.sourceforge.net/DTD/sodipodi-0.dtd"
   xmlns:inkscape="http://www.inkscape.org/namespaces/inkscape"
   width="210mm"
   height="297mm"
   id="svg3109"
   version="1.1"
   inkscape:version="0.48.2 r9819"
   sodipodi:docname="cd-cover.svg">
  <defs
     id="defs3">
    <linearGradient
       gradientTransform="matrix(0.90538037,0,0,0.90538037,57.691682,163.19012)"
       gradientUnits="userSpaceOnUse"
       xlink:href="#linearGradient13450-6-5"
       id="linearGradient3221"
       y2="210.99573"
       x2="228.9894"
       y1="359.59293"
       x1="228.9894" />
    <linearGradient
       id="linearGradient3209">
      <stop
         offset="0"
         style="stop-color:#63dd00;stop-opacity:1"
         id="stop3211" />
      <stop
         offset="1"
         style="stop-color:#ffffff;stop-opacity:1"
         id="stop3213" />
    </linearGradient>
    <linearGradient
       gradientTransform="translate(-100.12528,-187.80203)"
       gradientUnits="userSpaceOnUse"
       xlink:href="#linearGradient13450-6-5"
       id="linearGradient15697"
       y2="210.99573"
       x2="228.9894"
       y1="359.59293"
       x1="228.9894" />
    <linearGradient
       id="linearGradient3202">
      <stop
         offset="0"
         style="stop-color:#63dd00;stop-opacity:1"
         id="stop3204" />
      <stop
         offset="1"
         style="stop-color:#ffffff;stop-opacity:1"
         id="stop3206" />
    </linearGradient>
    <linearGradient
       gradientTransform="matrix(0.90538037,0,0,0.90538037,47.752607,163.83683)"
       gradientUnits="userSpaceOnUse"
       xlink:href="#linearGradient13450-6-5"
       id="linearGradient13951-5"
       y2="210.99573"
       x2="228.9894"
       y1="359.59293"
       x1="228.9894" />
    <linearGradient
       id="linearGradient3195">
      <stop
         offset="0"
         style="stop-color:#63dd00;stop-opacity:1"
         id="stop3197" />
      <stop
         offset="1"
         style="stop-color:#ffffff;stop-opacity:1"
         id="stop3199" />
    </linearGradient>
    <linearGradient
       gradientTransform="matrix(0.90538037,0,0,0.90538037,22.757898,163.32746)"
       gradientUnits="userSpaceOnUse"
       xlink:href="#linearGradient13450-6-5"
       id="linearGradient13953-0"
       y2="210.99573"
       x2="228.9894"
       y1="359.59293"
       x1="228.9894" />
    <linearGradient
       id="linearGradient13450-6-5">
      <stop
         offset="0"
         style="stop-color:#63dd00;stop-opacity:1"
         id="stop13452-8-0" />
      <stop
         offset="1"
         style="stop-color:#ffffff;stop-opacity:1"
         id="stop13454-9-4" />
    </linearGradient>
    <linearGradient
       gradientTransform="matrix(0.90538037,0,0,0.90538037,20.779805,163.19012)"
       gradientUnits="userSpaceOnUse"
       xlink:href="#linearGradient13450-6-5"
       id="linearGradient13955-0"
       y2="210.99573"
       x2="228.9894"
       y1="359.59293"
       x1="228.9894" />
    <linearGradient
       id="linearGradient13460-0-4-5">
      <stop
         offset="0"
         style="stop-color:#ffc000;stop-opacity:1"
         id="stop13462-0-2-8" />
      <stop
         offset="1"
         style="stop-color:#ffffff;stop-opacity:1"
         id="stop13464-7-7-9" />
    </linearGradient>
    <linearGradient
       gradientTransform="matrix(0.90538037,0,0,0.90538037,319.8519,332.78435)"
       gradientUnits="userSpaceOnUse"
       xlink:href="#linearGradient13460-0-4-5"
       id="linearGradient15116-4"
       y2="-60.793282"
       x2="49.851028"
       y1="188.38545"
       x1="49.851028" />
    <linearGradient
       id="linearGradient13450-6-7-2">
      <stop
         offset="0"
         style="stop-color:#63dd00;stop-opacity:1"
         id="stop13452-8-5-2" />
      <stop
         offset="1"
         style="stop-color:#ffffff;stop-opacity:1"
         id="stop13454-9-6-6" />
    </linearGradient>
    <linearGradient
       gradientTransform="matrix(0.79112409,0.01274938,-0.01458878,0.90526282,85.46399,226.85506)"
       gradientUnits="userSpaceOnUse"
       xlink:href="#linearGradient13450-6-7-2"
       id="linearGradient15053-8"
       y2="75.998474"
       x2="354.0625"
       y1="184.78735"
       x1="354.0625" />
    <linearGradient
       id="linearGradient4072">
      <stop
         offset="0"
         style="stop-color:#f2f7ef;stop-opacity:1"
         id="stop4074" />
      <stop
         offset="1"
         style="stop-color:#dee8d9;stop-opacity:1"
         id="stop4076" />
    </linearGradient>
  </defs>
  <sodipodi:namedview
     inkscape:document-units="mm"
     id="base"
     pagecolor="#ffffff"
     bordercolor="#666666"
     borderopacity="1.0"
     inkscape:pageopacity="0.0"
     inkscape:pageshadow="2"
     inkscape:zoom="0.5"
     inkscape:cx="544.75655"
     inkscape:cy="470.97313"
     inkscape:current-layer="layer1-1"
     showgrid="false"
     showguides="true"
     inkscape:snap-global="true"
     inkscape:window-width="1280"
     inkscape:window-height="752"
     inkscape:window-x="0"
     inkscape:window-y="0"
     inkscape:window-maximized="1"
     inkscape:guide-bbox="true"
     inkscape:object-paths="false"
     inkscape:snap-nodes="false"
     inkscape:snap-grids="false">
    <inkscape:grid
       type="xygrid"
       id="grid3269" />
    <sodipodi:guide
       orientation="1,0"
       position="372.04724,880"
       id="guide3300" />
  </sodipodi:namedview>
  <metadata
     id="metadata4">
    <rdf:RDF>
      <cc:Work
         rdf:about="">
        <dc:format>image/svg+xml</dc:format>
        <dc:type
           rdf:resource="http://purl.org/dc/dcmitype/StillImage" />
        <dc:title></dc:title>
      </cc:Work>
    </rdf:RDF>
  </metadata>
  <g
     inkscape:label="Layer 1"
     inkscape:groupmode="layer"
     id="layer1" />
  <g
     inkscape:groupmode="layer"
     id="layer2"
     inkscape:label="logo">
    <g
       id="layer1-1"
       transform="matrix(-1,0,0,-1,730.08961,803.39892)">
      <path
         style="font-size:218.41191101px;font-style:normal;font-variant:normal;font-weight:normal;font-stretch:normal;line-height:125%;letter-spacing:0px;word-spacing:0px;fill:url(#linearGradient3221);fill-opacity:1;stroke:#63dd00;stroke-width:4.79851627;stroke-miterlimit:4;stroke-opacity:1;stroke-dasharray:none;font-family:DejaVu Sans;-inkscape-font-specification:DejaVu Sans"
         id="path15178"
         d="m 204.27156,345.82437 -8.53398,0 c -6.37272,1.4e-4 -10.81428,1.28755 -13.32468,3.86223 -2.44611,2.57494 -3.66911,7.20961 -3.66911,13.904 l 0,30.23665 18.05284,0 0,8.7773 -18.05284,0 0,97.92824 -11.46077,0 0,-97.92824 -16.5365,0 0,-8.7773 16.5365,0 0,-28.20898 c 0,-12.03714 0.0564,-16.67593 5.65662,-22.14755 5.60018,-5.53571 10.825,-7.84634 22.99104,-7.8465 l 8.34088,0 z"
         inkscape:connector-curvature="0" />
      <path
         style="font-size:218.41191101px;font-style:normal;font-variant:normal;font-weight:normal;font-stretch:normal;line-height:125%;letter-spacing:0px;word-spacing:0px;fill:url(#linearGradient13951-5);fill-opacity:1;stroke:#63dd00;stroke-width:4.79851627;stroke-miterlimit:4;stroke-opacity:1;stroke-dasharray:none;font-family:DejaVu Sans;-inkscape-font-specification:DejaVu Sans"
         id="path15180"
         d="m 256.81059,393.9732 c -19.22306,-0.31383 -36.98584,13.92781 -40.827,32.76345 -4.57147,17.93398 -3.55826,38.55254 5.94156,54.71893 9.09539,14.56878 27.23998,20.7155 43.91095,18.56029 15.57153,-1.57032 29.80038,-11.45116 34.99861,-26.51066 7.02846,-18.17207 6.1909,-39.54542 -1.69759,-57.18043 -7.47557,-14.60178 -23.71123,-23.38305 -40.03479,-22.40817 -0.76523,-0.0182 -1.52828,0.005 -2.29174,0.0566 z m 3.31029,7.72403 c 17.56363,-0.41059 31.01052,16.00499 32.62199,32.5654 3.04823,17.536 0.82997,38.32161 -12.7885,50.98423 -14.03723,11.95663 -38.95267,8.69913 -47.7871,-8.12013 -9.25233,-15.72922 -8.92633,-35.98154 -3.56494,-53.04963 4.82763,-13.00521 17.10371,-23.31533 31.51855,-22.37987 z"
         inkscape:connector-curvature="0" />
      <path
         style="font-size:218.41191101px;font-style:normal;font-variant:normal;font-weight:normal;font-stretch:normal;line-height:125%;letter-spacing:0px;word-spacing:0px;fill:url(#linearGradient13953-0);fill-opacity:1;stroke:#63dd00;stroke-width:4.79851627;stroke-miterlimit:4;stroke-opacity:1;stroke-dasharray:none;font-family:DejaVu Sans;-inkscape-font-specification:DejaVu Sans"
         id="path15182"
         d="m 505.50727,408.80499 0,-73.04343 9.53508,0 0,164.77123 -9.53508,0 0,-16.22134 c -3.73357,6.43706 -8.46479,9.1552 -14.19367,12.30935 -5.66467,3.08978 -12.48792,3.91199 -20.46979,3.91199 -13.06723,0 -23.72052,-2.41388 -31.9599,-12.84189 -8.17505,-10.42798 -12.26257,-24.13886 -12.26256,-41.13268 -1e-5,-16.99371 4.08751,-30.70459 12.26256,-41.13268 8.23938,-10.4279 18.89267,-15.6419 31.9599,-15.64201 7.98187,1.1e-4 14.80512,1.57718 20.46979,4.73122 5.72888,3.08988 10.4601,7.85329 14.19367,14.29024 m -68.31422,37.75323 c -4e-5,13.06723 5.14492,29.75716 11.6724,37.66052 6.52747,7.90337 15.09614,8.81747 24.49421,8.81747 9.39808,0 16.8006,-3.70129 22.20779,-11.1039 5.40703,-7.46693 9.93982,-14.07576 9.93982,-35.37409 0,-21.29833 -4.53279,-29.24672 -9.93982,-36.64939 -5.40719,-7.46688 -12.80978,-11.20036 -22.20779,-11.20046 -9.39813,10e-5 -17.29015,1.47925 -25.86607,12.57232 -8.57593,11.09306 -10.30058,22.21041 -10.30054,35.27753"
         inkscape:connector-curvature="0" />
      <path
         style="font-size:218.41191101px;font-style:normal;font-variant:normal;font-weight:normal;font-stretch:normal;line-height:125%;letter-spacing:0px;word-spacing:0px;fill:url(#linearGradient13955-0);fill-opacity:1;stroke:#63dd00;stroke-width:4.79851627;stroke-miterlimit:4;stroke-opacity:1;stroke-dasharray:none;font-family:DejaVu Sans;-inkscape-font-specification:DejaVu Sans"
         id="path15184"
         d="m 557.88998,335.62422 9.07779,0 0,164.77124 -9.07779,0 0,-164.77124"
         inkscape:connector-curvature="0" />
      <path
         style="fill:url(#linearGradient15116-4);fill-opacity:1;stroke:none"
         id="path15024"
         d="m 360.48084,391.88871 c -4.27433,0.31084 -8.0885,1.0595 -11.48701,2.20687 1.11121,4.21337 2.78888,7.93798 4.89471,11.23237 3.30179,-2.34589 6.43983,-5.28002 9.13868,-8.99721 -0.90415,-1.39483 -1.76255,-2.87019 -2.54638,-4.44203 z m 9.11039,0.0283 c -0.77893,1.56568 -1.62044,3.02905 -2.51809,4.41373 2.69321,3.71223 5.81536,6.65208 9.11039,8.99722 2.08583,-3.25585 3.74919,-6.93844 4.86642,-11.09091 -3.3748,-1.20892 -7.18574,-1.98353 -11.45872,-2.32004 z m -23.73794,3.36689 c -2.89932,1.2839 -5.44428,2.90882 -7.69573,4.78154 0.85202,4.13997 2.16973,7.89345 3.87616,11.28896 0.0373,-0.0129 0.0758,-0.0152 0.11317,-0.0283 2.94534,-1.02972 5.99506,-2.40357 8.96892,-4.18738 -2.24621,-3.4869 -4.05076,-7.42206 -5.26252,-11.85483 z m 38.30891,0.22634 c -1.21579,4.35066 -2.98886,8.22535 -5.20594,11.65677 2.98047,1.79005 6.04495,3.15524 8.99722,4.18739 0.0287,0.01 0.0561,0.0183 0.0848,0.0283 1.65429,-3.2801 2.96007,-6.88961 3.81957,-10.86457 -2.2294,-1.95936 -4.79319,-3.64736 -7.69573,-5.00788 z m -19.12616,3.67811 c -2.76964,3.5887 -5.92526,6.50619 -9.22357,8.85575 2.65718,3.47121 5.80081,6.39819 9.22357,8.88405 3.42417,-2.48407 6.59241,-5.38657 9.25185,-8.85576 -3.3089,-2.35672 -6.47562,-5.27995 -9.25185,-8.88404 z m -29.7078,3.53664 c -2.5359,2.68671 -4.58718,5.78187 -6.25278,9.19527 0.18428,0.7631 0.38421,1.49515 0.59415,2.23516 2.54344,-0.28991 5.69054,-0.8364 9.16698,-1.81076 -1.45982,-2.96165 -2.64039,-6.15483 -3.50835,-9.61967 z m 59.30242,0.56586 c -0.85218,3.25216 -1.98599,6.28537 -3.36689,9.0821 3.47645,0.97436 6.62355,1.52086 9.16698,1.81076 0.12345,-0.4343 0.22608,-0.88573 0.33952,-1.32978 -1.61406,-3.50913 -3.61599,-6.7402 -6.13961,-9.56308 z m -41.59091,6.5923 c -3.12197,1.9042 -6.30234,3.37194 -9.36503,4.47032 2.25623,3.72312 4.99695,6.96917 8.06354,9.81772 3.53776,-1.42956 7.06867,-3.15597 10.41188,-5.26253 -3.35157,-2.5551 -6.45925,-5.54171 -9.11039,-9.02551 z m 23.99258,0 c -2.6508,3.47743 -5.76154,6.44623 -9.11039,8.99722 3.3464,2.11256 6.86915,3.85766 10.41187,5.29082 3.06365,-2.84348 5.80742,-6.10226 8.06354,-9.81772 -3.06388,-1.10093 -6.24322,-2.56272 -9.36502,-4.47032 z m -36.58303,5.48887 c -3.65557,1.07068 -6.99593,1.66802 -9.76113,2.00882 1.48089,4.21829 3.40205,7.98883 5.65863,11.37384 3.68061,-0.75863 7.78249,-1.8267 11.99629,-3.3103 -2.99894,-2.95514 -5.66871,-6.28595 -7.89379,-10.07236 z m 49.17347,0.0283 c -2.22588,3.7761 -4.8977,7.12447 -7.89378,10.07236 4.21151,1.48433 8.31573,2.52227 11.99629,3.282 2.25994,-3.38424 4.1746,-7.15573 5.65862,-11.37384 -2.76565,-0.3421 -6.10932,-0.90942 -9.76113,-1.98052 z m -62.35807,2.32004 c -0.2398,0.0158 -0.34611,0.0164 -0.56586,0.0283 -1.03168,3.06742 -1.84319,6.30198 -2.43321,9.67625 0.38049,1.01232 0.77391,2.00244 1.18831,2.97078 1.89567,-0.17475 4.36045,-0.48167 7.35621,-0.99026 -2.21554,-3.50583 -4.09632,-7.37683 -5.54545,-11.68507 z m 75.48609,0.16976 c -1.44449,4.24129 -3.29877,8.08419 -5.48887,11.5436 2.99196,0.50876 5.45774,0.78631 7.35621,0.96196 0.24449,-0.57056 0.47373,-1.1695 0.70733,-1.75417 -0.58817,-3.70902 -1.42549,-7.31867 -2.57467,-10.75139 z m -37.71475,3.08395 c -3.37363,2.24522 -6.94337,4.09847 -10.49676,5.63033 3.25627,2.6187 6.82451,4.83248 10.49676,6.73377 3.67376,-1.9001 7.21014,-4.11621 10.46846,-6.73377 -3.54552,-1.53199 -7.10349,-3.38761 -10.46846,-5.63033 z m -13.92023,7.0167 c -4.40169,1.65481 -8.72187,2.83715 -12.64703,3.7064 2.50626,3.22157 5.32046,6.06534 8.37477,8.54452 2.50081,-0.67016 5.06046,-1.43498 7.63915,-2.34833 2.29663,-0.81344 4.603,-1.74708 6.87523,-2.77272 -3.59455,-2.02793 -7.05107,-4.38959 -10.24212,-7.12987 z m 27.84045,0.0282 c -3.18621,2.73043 -6.6553,5.07988 -10.24212,7.10158 2.28309,1.0318 4.59561,1.98358 6.90353,2.80102 2.56268,0.90767 5.09648,1.65266 7.58256,2.32004 3.05363,-2.47451 5.89573,-5.30095 8.40306,-8.51624 -3.92614,-0.87047 -8.2459,-2.05015 -12.64703,-3.7064 z m -44.08071,4.41373 c -3.10476,0.57423 -5.80725,0.93299 -7.95037,1.16002 1.68586,3.48808 3.55809,6.67365 5.57375,9.56308 3.12989,-0.4419 6.66597,-1.08336 10.44017,-1.95222 -2.93479,-2.58517 -5.65489,-5.48684 -8.06355,-8.77088 z m 60.32097,0.0283 c -2.40924,3.27815 -5.12978,6.1901 -8.06354,8.77087 3.76862,0.86813 7.31286,1.50998 10.44016,1.95223 2.01829,-2.88735 3.85686,-6.07687 5.54546,-9.56308 -2.13973,-0.2281 -4.83653,-0.58852 -7.92208,-1.16002 z m -71.80798,1.49954 c -0.33423,3.31498 -0.53464,6.71783 -0.59416,10.15723 1.52467,-0.0929 3.53806,-0.23737 5.99815,-0.50927 -1.95582,-2.94204 -3.77373,-6.15376 -5.40399,-9.64796 z m 82.72913,1.16002 c -1.48635,3.05491 -3.09517,5.89941 -4.83813,8.51623 2.09367,0.23188 3.79752,0.35599 5.23423,0.45269 -0.0284,-2.98043 -0.13893,-5.98207 -0.3961,-8.96892 z m -41.10993,1.92393 c -3.11673,1.53713 -6.28091,2.87693 -9.42161,3.98933 -1.81824,0.64401 -3.61796,1.20202 -5.40399,1.72588 4.65766,3.2596 9.71953,5.7883 14.8539,7.80891 5.12602,-2.01504 10.17288,-4.55991 14.8256,-7.80891 -1.76672,-0.5193 -3.54936,-1.06074 -5.3474,-1.69759 -3.1675,-1.12189 -6.36417,-2.46346 -9.5065,-4.01762 z m -18.87152,6.81865 c -4.06553,1.02943 -7.92455,1.78241 -11.37384,2.32003 3.04754,3.86277 6.36986,7.15419 9.8743,9.95919 3.85007,-0.65461 7.93497,-1.53975 12.10947,-2.74444 1.22767,-0.35428 2.4729,-0.72265 3.7064,-1.13172 -4.96895,-2.21749 -9.83861,-4.97524 -14.31633,-8.40306 z m 37.74304,0.0282 c -4.45978,3.4055 -9.28631,6.13927 -14.23144,8.34648 1.2366,0.41025 2.47562,0.83313 3.7064,1.18831 4.16386,1.20162 8.23963,2.062 12.08117,2.71614 3.49565,-2.79662 6.83269,-6.0824 9.8743,-9.93089 -3.4678,-0.54092 -7.3419,-1.28173 -11.43043,-2.32004 z m -52.87987,2.82932 c -3.45906,0.43647 -6.26523,0.65357 -8.20501,0.76391 -0.005,1.40298 -0.033,2.78998 -0.0566,4.18739 1.18949,2.19417 2.60707,4.24971 4.21567,6.19619 3.41111,-0.0916 8.00731,-0.35364 13.38266,-1.07514 -3.31131,-2.90103 -6.46271,-6.2319 -9.33674,-10.07235 z m 68.07329,0.0282 c -2.87162,3.83103 -6.02967,7.14929 -9.33674,10.04407 5.35928,0.7194 9.974,1.01098 13.38266,1.10343 1.32015,-1.59438 2.52045,-3.27128 3.56493,-5.03618 -0.0472,-1.82292 -0.0926,-3.62462 -0.11317,-5.40399 -1.90356,-0.12079 -4.42723,-0.31923 -7.49768,-0.70733 z m -34.00835,7.41281 c -2.46686,0.93488 -4.94459,1.72908 -7.38451,2.43321 -3.20365,0.92452 -6.35286,1.66466 -9.39332,2.26345 5.39026,3.70279 11.09428,6.3605 16.77783,8.28989 5.66476,-1.92523 11.34772,-4.60309 16.72124,-8.28989 -3.03158,-0.59782 -6.17152,-1.31357 -9.36503,-2.23516 -2.4319,-0.70181 -4.89743,-1.53049 -7.35621,-2.4615 z m -42.43971,3.59322 c -8.8e-4,0.0478 8.8e-4,0.0937 0,0.14147 0.0484,7.9e-4 0.035,-8.1e-4 0.0848,0 -0.0321,-0.0444 -0.0529,-0.0969 -0.0848,-0.14147 z m 21.16327,1.89564 c -5.31058,0.84275 -10.1074,1.24981 -13.92022,1.44295 4.02403,4.0028 8.91033,7.39622 14.23144,10.29871 3.86901,-0.32571 8.01957,-0.88815 12.30752,-1.83906 1.11728,-0.24777 2.23651,-0.52137 3.36688,-0.8205 -5.44976,-2.2257 -10.85651,-5.1994 -15.95733,-9.0821 -0.006,-0.005 -0.0224,0.005 -0.0282,0 z m 42.4397,0.0282 c -5.09317,3.86893 -10.51797,6.83452 -15.95732,9.05381 1.14205,0.30275 2.29474,0.59848 3.42347,0.84879 4.28401,0.95003 8.41322,1.48489 12.27922,1.81076 5.30744,-2.89229 10.1828,-6.28463 14.20315,-10.27041 -3.82761,-0.1948 -8.61916,-0.59361 -13.94852,-1.44295 z m -63.63126,1.55613 c -0.0291,3.10217 -0.0526,6.14656 0.11317,9.08209 0.18632,0.22943 0.37564,0.45238 0.56587,0.67904 2.76641,0.36389 7.95823,0.8911 14.65584,0.73562 -4.72252,-2.99339 -9.01403,-6.46266 -12.56215,-10.49675 -1.16904,0.0143 -2.01824,0.008 -2.77273,0 z m 82.07839,0.0282 c -3.54493,4.01825 -7.8227,7.48479 -12.53386,10.46846 6.48373,0.15116 11.54048,-0.31835 14.37291,-0.67903 0.26675,-3.20006 0.33157,-6.488 0.31123,-9.78943 -0.666,0.004 -1.24807,0.0115 -2.15028,0 z m -39.66698,9.36503 c -2.65609,0.86692 -5.30324,1.60409 -7.89378,2.17857 -2.56877,0.56966 -5.0796,0.99328 -7.52598,1.32978 4.98575,2.29562 10.20023,4.22105 15.41976,5.80009 5.21791,-1.5752 10.43255,-3.48099 15.41976,-5.7718 -2.41999,-0.33501 -4.90189,-0.76667 -7.44109,-1.32977 -2.61634,-0.58021 -5.29583,-1.32814 -7.97867,-2.20687 z m -38.25232,4.1308 c 4.2156,4.12048 9.13748,7.58729 14.40121,10.52505 5.38787,-0.84802 11.55296,-2.04535 17.96614,-3.7064 -5.43758,-1.85525 -10.85708,-4.06609 -15.92904,-6.76206 -6.6435,0.48816 -12.38025,0.27778 -16.43831,-0.0566 z m 76.50464,0.0282 c -4.07541,0.33167 -9.82867,0.52328 -16.4666,0.0282 -5.06304,2.68328 -10.44875,4.91435 -15.87245,6.76206 6.41072,1.66286 12.57587,2.85647 17.96614,3.70641 5.25306,-2.92704 10.15964,-6.39362 14.37291,-10.49676 z m -79.98469,1.2166 c 0.55709,3.99139 1.52589,7.72232 3.14053,11.06262 2.28592,-0.1911 5.51991,-0.51239 9.39333,-1.01855 -4.56078,-2.86865 -8.81091,-6.17909 -12.53386,-10.04407 z m 82.4462,1.07514 c -3.45643,3.39815 -7.34085,6.38053 -11.45872,8.96893 3.33022,0.43568 6.04021,0.704 8.2333,0.90538 1.54786,-3.03861 2.57045,-6.3684 3.22542,-9.87431 z m -40.71383,6.36596 c -1.11329,0.3268 -2.23545,0.6637 -3.33859,0.96196 -5.4262,1.46713 -10.68942,2.58437 -15.53293,3.45177 6.17817,2.96239 12.64737,5.24639 18.89982,7.01669 6.23457,-1.76392 12.67959,-4.06799 18.84322,-7.01669 -4.81954,-0.86531 -10.05476,-1.96525 -15.44805,-3.42347 -1.13152,-0.30594 -2.28134,-0.65428 -3.42347,-0.99026 z m -24.50185,5.3474 c -4.96827,0.75023 -9.17296,1.19582 -12.25093,1.47124 2.67059,3.94702 6.55619,7.20762 12.19434,9.5065 5.0212,-0.62222 11.35065,-1.59969 18.33395,-3.25371 -6.1394,-1.99859 -12.37781,-4.5264 -18.27736,-7.72403 z m 49.00371,0 c -5.89318,3.18662 -12.12007,5.70327 -18.24907,7.69573 6.50363,1.54311 12.45948,2.52723 17.3154,3.16883 5.45406,-2.33205 9.31172,-5.61147 12.02458,-9.50649 -2.97942,-0.28768 -6.65241,-0.68656 -11.09091,-1.35807 z m -24.53015,9.59137 c -0.88403,0.24303 -1.7601,0.48431 -2.63126,0.70733 -5.06581,1.29685 -9.87988,2.25427 -14.20316,2.97078 4.71043,0.9869 10.25829,1.52783 16.83442,1.52783 6.33326,0 11.71876,-0.57203 16.29685,-1.61271 -4.14707,-0.70384 -8.72362,-1.62868 -13.52412,-2.85761 -0.91002,-0.23296 -1.84876,-0.4808 -2.77273,-0.73562 z"
         inkscape:connector-curvature="0" />
      <path
         style="fill:url(#linearGradient15053-8);fill-opacity:1;stroke:none"
         id="path13088-4-6"
         d="m 340.36741,333.641 c 0,0 14.59825,16.37761 15.74973,26.19519 -12.01659,-11.76484 -36.03417,-6.51876 -36.03417,-6.51876 0,0 18.02508,-0.48745 31.02364,15.35879 -17.30791,-1.99897 -29.48177,6.72171 -29.48177,6.72171 0,0 25.95279,-1.31354 28.52053,5.13892 -11.96613,0.52936 -23.05877,16.04699 -23.05877,16.04699 0,0 22.37447,-11.6089 37.9253,-4.39426 13.24224,-6.2915 24.99863,-0.70945 36.31145,5.75481 0,0 -10.55937,-15.86656 -22.50223,-16.78124 2.77435,-6.36635 28.67132,-4.21724 28.67132,-4.21724 0,0 -11.91403,-9.10885 -29.27736,-7.66864 13.50242,-15.41916 31.50243,-14.35114 31.50243,-14.35114 0,0 -23.83606,-6.01728 -36.22551,5.35425 1.46722,-9.77538 16.58564,-25.67409 16.58564,-25.67409 0,0 -18.08757,3.96302 -25.14373,19.13292 -6.51524,-15.49907 -24.5665,-20.09821 -24.5665,-20.09821 z"
         inkscape:connector-curvature="0" />
    </g>
  </g>
</svg>
