<?xml version="1.0" encoding="utf-8" ?>
<!DOCTYPE svg PUBLIC "-//W3C//DTD SVG 1.1//EN" "http://www.w3.org/Graphics/SVG/1.1/DTD/svg11.dtd">
<svg height="202" version="1.1" width="330" xmlns="http://www.w3.org/2000/svg">
<ellipse cx="22" cy="86" fill="#000000" rx="8.0" ry="8.0" stroke="#000000" stroke-width="1"/>
<rect fill="#00ff" height="46" rx="16" ry="16" stroke="#00ff" stroke-width="1" width="70" x="150" y="62"/>
<rect fill="#ffffff" height="46" rx="16" ry="16" stroke="#000000" stroke-width="1" width="70" x="150" y="62"/>
<rect fill="#ffffff" height="44" rx="16" ry="16" stroke="#ffffff" stroke-width="1" width="68" x="151" y="63"/>
<text font-family="Dialog" font-size="12" font-weight="bold" x="168" y="75">
Aktiv</text>
<polyline fill="none" points="31,86 150,86" stroke="#000000" stroke-width="1"/>
<line fill="#000000" stroke="#000000" stroke-width="1" x1="138" x2="150" y1="93" y2="86"/>
<line fill="#000000" stroke="#000000" stroke-width="1" x1="138" x2="150" y1="79" y2="86"/>
<text font-family="Dialog" font-size="12" x="30" y="76">
Besøg opskriftsside</text>
<rect fill="#00ff" height="46" rx="16" ry="16" stroke="#00ff" stroke-width="1" width="109" x="134" y="142"/>
<rect fill="#ffffff" height="46" rx="16" ry="16" stroke="#000000" stroke-width="1" width="109" x="134" y="142"/>
<rect fill="#ffffff" height="44" rx="16" ry="16" stroke="#ffffff" stroke-width="1" width="107" x="135" y="143"/>
<text font-family="Dialog" font-size="12" font-weight="bold" x="140" y="155">
Opskrift fundet</text>
<polyline fill="none" points="166,107 166,142" stroke="#000000" stroke-width="1"/>
<line fill="#000000" stroke="#000000" stroke-width="1" x1="159" x2="166" y1="130" y2="142"/>
<line fill="#000000" stroke="#000000" stroke-width="1" x1="173" x2="166" y1="130" y2="142"/>
<text font-family="Dialog" font-size="12" x="86" y="129">
Find opskrift</text>
<polyline fill="none" points="198,142 198,107" stroke="#000000" stroke-width="1"/>
<line fill="#000000" stroke="#000000" stroke-width="1" x1="205" x2="198" y1="119" y2="107"/>
<line fill="#000000" stroke="#000000" stroke-width="1" x1="191" x2="198" y1="119" y2="107"/>
<text font-family="Dialog" font-size="12" x="201" y="134">
Opdater model</text>
<ellipse cx="194" cy="26" fill="#000000" rx="12.0" ry="12.0" stroke="#000000" stroke-width="1"/>
<ellipse cx="194" cy="26" fill="#ffffff" rx="11.0" ry="11.0" stroke="#ffffff" stroke-width="1"/>
<ellipse cx="193" cy="25" fill="#000000" rx="7.5" ry="7.5" stroke="#000000" stroke-width="1"/>
<polyline fill="none" points="194,62 194,38" stroke="#000000" stroke-width="1"/>
<line fill="#000000" stroke="#000000" stroke-width="1" x1="201" x2="194" y1="50" y2="38"/>
<line fill="#000000" stroke="#000000" stroke-width="1" x1="187" x2="194" y1="50" y2="38"/>
<text font-family="Dialog" font-size="12" x="201" y="53">
Forlad opskriftsside</text>
</svg>
