<?xml version="1.0" encoding="utf-8" ?>
<!DOCTYPE svg PUBLIC "-//W3C//DTD SVG 1.1//EN" "http://www.w3.org/Graphics/SVG/1.1/DTD/svg11.dtd">
<svg height="140" version="1.1" width="364" xmlns="http://www.w3.org/2000/svg">
<ellipse cx="22" cy="38" fill="#000000" rx="8.0" ry="8.0" stroke="#000000" stroke-width="1"/>
<rect fill="#00ff" height="50" rx="16" ry="16" stroke="#00ff" stroke-width="1" width="172" x="166" y="14"/>
<rect fill="#ffffff" height="50" rx="16" ry="16" stroke="#000000" stroke-width="1" width="172" x="166" y="14"/>
<rect fill="#ffffff" height="48" rx="16" ry="16" stroke="#ffffff" stroke-width="1" width="170" x="167" y="15"/>
<text font-family="Lucida Grande" font-size="13" x="173" y="28">
Opskrift gemt i favoritter</text>
<polyline fill="none" points="31,38 166,38" stroke="#000000" stroke-width="1"/>
<line fill="#000000" stroke="#000000" stroke-width="1" x1="154" x2="166" y1="45" y2="38"/>
<line fill="#000000" stroke="#000000" stroke-width="1" x1="154" x2="166" y1="31" y2="38"/>
<text font-family="Lucida Grande" font-size="13" x="38" y="32">
Favorisér opskrift</text>
<ellipse cx="178" cy="114" fill="#000000" rx="12.0" ry="12.0" stroke="#000000" stroke-width="1"/>
<ellipse cx="178" cy="114" fill="#ffffff" rx="11.0" ry="11.0" stroke="#ffffff" stroke-width="1"/>
<ellipse cx="177" cy="113" fill="#000000" rx="7.5" ry="7.5" stroke="#000000" stroke-width="1"/>
<polyline fill="none" points="178,63 178,102" stroke="#000000" stroke-width="1"/>
<line fill="#000000" stroke="#000000" stroke-width="1" x1="171" x2="178" y1="90" y2="102"/>
<line fill="#000000" stroke="#000000" stroke-width="1" x1="185" x2="178" y1="90" y2="102"/>
<text font-family="Lucida Grande" font-size="13" x="181" y="87">
Fjern opskrift fra favoritter</text>
</svg>
