<?xml version="1.0" encoding="utf-8" ?>
<!DOCTYPE svg PUBLIC "-//W3C//DTD SVG 1.1//EN" "http://www.w3.org/Graphics/SVG/1.1/DTD/svg11.dtd">
<svg height="168" version="1.1" width="564" xmlns="http://www.w3.org/2000/svg">
<ellipse cx="22" cy="34" fill="#000000" rx="8.0" ry="8.0" stroke="#000000" stroke-width="1"/>
<rect fill="#00ff" height="32" rx="16" ry="16" stroke="#00ff" stroke-width="1" width="170" x="166" y="122"/>
<rect fill="#ffffff" height="32" rx="16" ry="16" stroke="#000000" stroke-width="1" width="170" x="166" y="122"/>
<rect fill="#ffffff" height="30" rx="16" ry="16" stroke="#ffffff" stroke-width="1" width="168" x="167" y="123"/>
<text font-family="Lucida Grande" font-size="13" x="172" y="136">
Opskrift gemt i favoritter</text>
<polyline fill="none" points="22,43 22,138 166,138" stroke="#000000" stroke-width="1"/>
<line fill="#000000" stroke="#000000" stroke-width="1" x1="154" x2="166" y1="145" y2="138"/>
<line fill="#000000" stroke="#000000" stroke-width="1" x1="154" x2="166" y1="131" y2="138"/>
<text font-family="Lucida Grande" font-size="13" x="30" y="132">
Favorisér opskrift</text>
<ellipse cx="538" cy="142" fill="#000000" rx="12.0" ry="12.0" stroke="#000000" stroke-width="1"/>
<ellipse cx="538" cy="142" fill="#ffffff" rx="11.0" ry="11.0" stroke="#ffffff" stroke-width="1"/>
<ellipse cx="537" cy="141" fill="#000000" rx="7.5" ry="7.5" stroke="#000000" stroke-width="1"/>
<polyline fill="none" points="335,141 526,141" stroke="#000000" stroke-width="1"/>
<line fill="#000000" stroke="#000000" stroke-width="1" x1="514" x2="526" y1="148" y2="141"/>
<line fill="#000000" stroke="#000000" stroke-width="1" x1="514" x2="526" y1="134" y2="141"/>
<text font-family="Lucida Grande" font-size="13" x="350" y="134">
Fjern opskrift fra favoritter</text>
<rect fill="#00ff" height="32" rx="16" ry="16" stroke="#00ff" stroke-width="1" width="120" x="166" y="18"/>
<rect fill="#ffffff" height="32" rx="16" ry="16" stroke="#000000" stroke-width="1" width="120" x="166" y="18"/>
<rect fill="#ffffff" height="30" rx="16" ry="16" stroke="#ffffff" stroke-width="1" width="118" x="167" y="19"/>
<text font-family="Lucida Grande" font-size="13" x="177" y="32">
Favoritliste vist</text>
<polyline fill="none" points="30,34 166,34" stroke="#000000" stroke-width="1"/>
<line fill="#000000" stroke="#000000" stroke-width="1" x1="154" x2="166" y1="41" y2="34"/>
<line fill="#000000" stroke="#000000" stroke-width="1" x1="154" x2="166" y1="27" y2="34"/>
<text font-family="Lucida Grande" font-size="13" x="40" y="28">
Åben favoritsiden</text>
<polyline fill="none" points="285,34 534,34 537,130" stroke="#000000" stroke-width="1"/>
<line fill="#000000" stroke="#000000" stroke-width="1" x1="529" x2="537" y1="118" y2="130"/>
<line fill="#000000" stroke="#000000" stroke-width="1" x1="543" x2="537" y1="117" y2="130"/>
<text font-family="Lucida Grande" font-size="13" x="330" y="28">
Fjern opskrift fra favoritter</text>
</svg>
