<?xml version="1.0" encoding="utf-8" ?>
<!DOCTYPE svg PUBLIC "-//W3C//DTD SVG 1.1//EN" "http://www.w3.org/Graphics/SVG/1.1/DTD/svg11.dtd">
<svg height="204" version="1.1" width="308" xmlns="http://www.w3.org/2000/svg">
<ellipse cx="86" cy="22" fill="#000000" rx="8.0" ry="8.0" stroke="#000000" stroke-width="1"/>
<rect fill="#00ff" height="24" rx="16" ry="16" stroke="#00ff" stroke-width="1" width="97" x="38" y="70"/>
<rect fill="#ffffff" height="24" rx="16" ry="16" stroke="#000000" stroke-width="1" width="97" x="38" y="70"/>
<rect fill="#ffffff" height="22" rx="16" ry="16" stroke="#ffffff" stroke-width="1" width="95" x="39" y="71"/>
<text font-family="Lucida Grande" font-size="13" x="44" y="84">
Fejlliste vises</text>
<polyline fill="none" points="86,31 86,70" stroke="#000000" stroke-width="1"/>
<line fill="#000000" stroke="#000000" stroke-width="1" x1="79" x2="86" y1="58" y2="70"/>
<line fill="#000000" stroke="#000000" stroke-width="1" x1="93" x2="86" y1="58" y2="70"/>
<text font-family="Lucida Grande" font-size="13" x="91" y="52">
Log ind som administrator</text>
<rect fill="#00ff" height="24" rx="16" ry="16" stroke="#00ff" stroke-width="1" width="146" x="14" y="166"/>
<rect fill="#ffffff" height="24" rx="16" ry="16" stroke="#000000" stroke-width="1" width="146" x="14" y="166"/>
<rect fill="#ffffff" height="22" rx="16" ry="16" stroke="#ffffff" stroke-width="1" width="144" x="15" y="167"/>
<text font-family="Lucida Grande" font-size="13" x="43" y="180">
Visning af fejl</text>
<polyline fill="none" points="86,93 86,166" stroke="#000000" stroke-width="1"/>
<line fill="#000000" stroke="#000000" stroke-width="1" x1="79" x2="86" y1="154" y2="166"/>
<line fill="#000000" stroke="#000000" stroke-width="1" x1="93" x2="86" y1="154" y2="166"/>
<text font-family="Lucida Grande" font-size="13" x="115" y="134">
Åben fejl</text>
<ellipse cx="282" cy="178" fill="#000000" rx="12.0" ry="12.0" stroke="#000000" stroke-width="1"/>
<ellipse cx="282" cy="178" fill="#ffffff" rx="11.0" ry="11.0" stroke="#ffffff" stroke-width="1"/>
<ellipse cx="281" cy="177" fill="#000000" rx="7.5" ry="7.5" stroke="#000000" stroke-width="1"/>
<polyline fill="none" points="159,178 270,178" stroke="#000000" stroke-width="1"/>
<line fill="#000000" stroke="#000000" stroke-width="1" x1="258" x2="270" y1="185" y2="178"/>
<line fill="#000000" stroke="#000000" stroke-width="1" x1="258" x2="270" y1="171" y2="178"/>
<text font-family="Lucida Grande" font-size="13" x="177" y="173">
Håndtér fejl</text>
</svg>
