<?xml version="1.0" encoding="utf-8" ?>
<!DOCTYPE svg PUBLIC "-//W3C//DTD SVG 1.1//EN" "http://www.w3.org/Graphics/SVG/1.1/DTD/svg11.dtd">
<svg height="431" version="1.1" width="508" xmlns="http://www.w3.org/2000/svg">
<ellipse cx="22" cy="118" fill="#000000" rx="8.0" ry="8.0" stroke="#000000" stroke-width="1"/>
<rect fill="#00ff" height="32" rx="16" ry="16" stroke="#00ff" stroke-width="1" width="128" x="246" y="342"/>
<rect fill="#ffffff" height="32" rx="16" ry="16" stroke="#000000" stroke-width="1" width="128" x="246" y="342"/>
<rect fill="#ffffff" height="30" rx="16" ry="16" stroke="#ffffff" stroke-width="1" width="126" x="247" y="343"/>
<text font-family="Dialog" font-size="12" font-weight="bold" x="279" y="356">
Login aktiv</text>
<ellipse cx="466" cy="362" fill="#000000" rx="12.0" ry="12.0" stroke="#000000" stroke-width="1"/>
<ellipse cx="466" cy="362" fill="#ffffff" rx="11.0" ry="11.0" stroke="#ffffff" stroke-width="1"/>
<ellipse cx="465" cy="361" fill="#000000" rx="7.5" ry="7.5" stroke="#000000" stroke-width="1"/>
<polyline fill="none" points="373,361 454,361" stroke="#000000" stroke-width="1"/>
<line fill="#000000" stroke="#000000" stroke-width="1" x1="442" x2="454" y1="368" y2="361"/>
<line fill="#000000" stroke="#000000" stroke-width="1" x1="442" x2="454" y1="354" y2="361"/>
<text font-family="Dialog" font-size="12" x="397" y="376">
Log ud</text>
<rect fill="#00ff" height="248" rx="16" ry="16" stroke="#00ff" stroke-width="1" width="384" x="78" y="46"/>
<rect fill="#ffffff" height="248" rx="16" ry="16" stroke="#000000" stroke-width="1" width="384" x="78" y="46"/>
<rect fill="#ffffff" height="246" rx="16" ry="16" stroke="#ffffff" stroke-width="1" width="382" x="79" y="47"/>
<line fill="#000000" stroke="#000000" stroke-width="1" x1="78" x2="461" y1="70" y2="70"/>
<rect fill="#00ff" height="24" rx="16" ry="16" stroke="#00ff" stroke-width="1" width="145" x="294" y="142"/>
<rect fill="#ffffff" height="24" rx="16" ry="16" stroke="#000000" stroke-width="1" width="145" x="294" y="142"/>
<rect fill="#ffffff" height="22" rx="16" ry="16" stroke="#ffffff" stroke-width="1" width="143" x="295" y="143"/>
<text font-family="Dialog" font-size="12" font-weight="bold" x="307" y="156">
Godkendelse af login</text>
<polyline fill="none" points="398,165 398,350 373,350" stroke="#000000" stroke-width="1"/>
<line fill="#000000" stroke="#000000" stroke-width="1" x1="385" x2="373" y1="343" y2="350"/>
<line fill="#000000" stroke="#000000" stroke-width="1" x1="385" x2="373" y1="357" y2="350"/>
<text font-family="Dialog" font-size="12" x="308" y="213">
Login godkendt</text>
<rect fill="#00ff" height="24" rx="16" ry="16" stroke="#00ff" stroke-width="1" width="288" x="94" y="78"/>
<rect fill="#ffffff" height="24" rx="16" ry="16" stroke="#000000" stroke-width="1" width="288" x="94" y="78"/>
<rect fill="#ffffff" height="22" rx="16" ry="16" stroke="#ffffff" stroke-width="1" width="286" x="95" y="79"/>
<text font-family="Dialog" font-size="12" font-weight="bold" x="116" y="92">
Vent på loginoplysninger / brugeroprettelse</text>
<polyline fill="none" points="358,142 358,101" stroke="#000000" stroke-width="1"/>
<line fill="#000000" stroke="#000000" stroke-width="1" x1="365" x2="358" y1="113" y2="101"/>
<line fill="#000000" stroke="#000000" stroke-width="1" x1="351" x2="358" y1="113" y2="101"/>
<text font-family="Dialog" font-size="12" x="365" y="129">
Login afvist</text>
<polyline fill="none" points="334,101 334,142" stroke="#000000" stroke-width="1"/>
<line fill="#000000" stroke="#000000" stroke-width="1" x1="327" x2="334" y1="130" y2="142"/>
<line fill="#000000" stroke="#000000" stroke-width="1" x1="341" x2="334" y1="130" y2="142"/>
<text font-family="Dialog" font-size="12" x="253" y="126">
Tryk på "login"</text>
<polyline fill="none" points="22,109 22,38 190,38 190,78" stroke="#000000" stroke-width="1"/>
<line fill="#000000" stroke="#000000" stroke-width="1" x1="183" x2="190" y1="66" y2="78"/>
<line fill="#000000" stroke="#000000" stroke-width="1" x1="197" x2="190" y1="66" y2="78"/>
<text font-family="Dialog" font-size="12" x="58" y="28">
Tryk på "login / opret"</text>
<rect fill="#00ff" height="24" rx="16" ry="16" stroke="#00ff" stroke-width="1" width="116" x="94" y="198"/>
<rect fill="#ffffff" height="24" rx="16" ry="16" stroke="#000000" stroke-width="1" width="116" x="94" y="198"/>
<rect fill="#ffffff" height="22" rx="16" ry="16" stroke="#ffffff" stroke-width="1" width="114" x="95" y="199"/>
<text font-family="Dialog" font-size="12" font-weight="bold" x="103" y="212">
Brugeroprettelse</text>
<polyline fill="none" points="198,221 198,254 270,254 270,342" stroke="#000000" stroke-width="1"/>
<line fill="#000000" stroke="#000000" stroke-width="1" x1="263" x2="270" y1="330" y2="342"/>
<line fill="#000000" stroke="#000000" stroke-width="1" x1="277" x2="270" y1="330" y2="342"/>
<text font-family="Dialog" font-size="12" x="203" y="249">
Oplysninger godkendt</text>
<polyline fill="none" points="201,198 201,101" stroke="#000000" stroke-width="1"/>
<line fill="#000000" stroke="#000000" stroke-width="1" x1="208" x2="201" y1="113" y2="101"/>
<line fill="#000000" stroke="#000000" stroke-width="1" x1="194" x2="201" y1="113" y2="101"/>
<text font-family="Dialog" font-size="12" x="204" y="187">
Fejl i oplysninger</text>
<polyline fill="none" points="461,278 494,278 494,366 477,363" stroke="#000000" stroke-width="1"/>
<line fill="#000000" stroke="#000000" stroke-width="1" x1="490" x2="477" y1="358" y2="363"/>
<line fill="#000000" stroke="#000000" stroke-width="1" x1="487" x2="477" y1="371" y2="363"/>
<text font-family="Dialog" font-size="12" x="417" y="326">
Afbryd proces</text>
<polyline fill="none" points="22,126 22,358 246,358" stroke="#000000" stroke-width="1"/>
<line fill="#000000" stroke="#000000" stroke-width="1" x1="234" x2="246" y1="365" y2="358"/>
<line fill="#000000" stroke="#000000" stroke-width="1" x1="234" x2="246" y1="351" y2="358"/>
<text font-family="Dialog" font-size="12" x="24" y="342">
_ [Bruger logget ind fra tidligere session]</text>
<polyline fill="none" points="262,373 262,398 294,398 294,373" stroke="#000000" stroke-width="1"/>
<line fill="#000000" stroke="#000000" stroke-width="1" x1="301" x2="294" y1="385" y2="373"/>
<line fill="#000000" stroke="#000000" stroke-width="1" x1="287" x2="294" y1="385" y2="373"/>
<text font-family="Dialog" font-size="12" x="153" y="413">
Indkøbslistehåndtering()</text>
<polyline fill="none" points="302,342 302,326 334,326 334,342" stroke="#000000" stroke-width="1"/>
<line fill="#000000" stroke="#000000" stroke-width="1" x1="327" x2="334" y1="330" y2="342"/>
<line fill="#000000" stroke="#000000" stroke-width="1" x1="341" x2="334" y1="330" y2="342"/>
<text font-family="Dialog" font-size="12" x="292" y="316">
Favorisering()</text>
<polyline fill="none" points="102,101 102,198" stroke="#000000" stroke-width="1"/>
<line fill="#000000" stroke="#000000" stroke-width="1" x1="95" x2="102" y1="186" y2="198"/>
<line fill="#000000" stroke="#000000" stroke-width="1" x1="109" x2="102" y1="186" y2="198"/>
<text font-family="Dialog" font-size="12" x="105" y="150">
Tryk på "opret"</text>
<polyline fill="none" points="326,373 326,390 358,390 358,373" stroke="#000000" stroke-width="1"/>
<line fill="#000000" stroke="#000000" stroke-width="1" x1="365" x2="358" y1="385" y2="373"/>
<line fill="#000000" stroke="#000000" stroke-width="1" x1="351" x2="358" y1="385" y2="373"/>
<text font-family="Dialog" font-size="12" x="325" y="406">
Søgning()</text>
</svg>
