<?xml version="1.0" encoding="utf-8" ?>
<!DOCTYPE svg PUBLIC "-//W3C//DTD SVG 1.1//EN" "http://www.w3.org/Graphics/SVG/1.1/DTD/svg11.dtd">
<svg height="255" version="1.1" width="775" xmlns="http://www.w3.org/2000/svg">
<ellipse cx="36" cy="116" fill="#000000" rx="8.0" ry="8.0" stroke="#000000" stroke-width="1"/>
<rect fill="#00ff" height="24" rx="16" ry="16" stroke="#00ff" stroke-width="1" width="84" x="556" y="148"/>
<rect fill="#ffffff" height="24" rx="16" ry="16" stroke="#000000" stroke-width="1" width="84" x="556" y="148"/>
<rect fill="#ffffff" height="22" rx="16" ry="16" stroke="#ffffff" stroke-width="1" width="82" x="557" y="149"/>
<text font-family="Dialog" font-size="12" font-weight="bold" x="563" y="161">
Login aktiv</text>
<polyline fill="none" points="611,148 611,132 627,132 627,148" stroke="#000000" stroke-width="1"/>
<line fill="#000000" stroke="#000000" stroke-width="1" x1="620" x2="627" y1="136" y2="148"/>
<line fill="#000000" stroke="#000000" stroke-width="1" x1="634" x2="627" y1="136" y2="148"/>
<text font-family="Dialog" font-size="12" x="630" y="128">
Opret / fjern favoritter</text>
<ellipse cx="720" cy="168" fill="#000000" rx="12.0" ry="12.0" stroke="#000000" stroke-width="1"/>
<ellipse cx="720" cy="168" fill="#ffffff" rx="11.0" ry="11.0" stroke="#ffffff" stroke-width="1"/>
<ellipse cx="719" cy="167" fill="#000000" rx="7.5" ry="7.5" stroke="#000000" stroke-width="1"/>
<polyline fill="none" points="639,168 708,168" stroke="#333399" stroke-width="1"/>
<line fill="#333399" stroke="#333399" stroke-width="1" x1="696" x2="708" y1="175" y2="168"/>
<line fill="#333399" stroke="#333399" stroke-width="1" x1="696" x2="708" y1="161" y2="168"/>
<text font-family="Dialog" font-size="12" x="657" y="183">
Log ud</text>
<rect fill="#00ff" height="192" rx="16" ry="16" stroke="#00ff" stroke-width="1" width="368" x="148" y="44"/>
<rect fill="#ffffff" height="192" rx="16" ry="16" stroke="#000000" stroke-width="1" width="368" x="148" y="44"/>
<rect fill="#ffffff" height="190" rx="16" ry="16" stroke="#ffffff" stroke-width="1" width="366" x="149" y="45"/>
<line fill="#000000" stroke="#000000" stroke-width="1" x1="148" x2="515" y1="67" y2="67"/>
<rect fill="#00ff" height="24" rx="16" ry="16" stroke="#00ff" stroke-width="1" width="145" x="340" y="124"/>
<rect fill="#ffffff" height="24" rx="16" ry="16" stroke="#000000" stroke-width="1" width="145" x="340" y="124"/>
<rect fill="#ffffff" height="22" rx="16" ry="16" stroke="#ffffff" stroke-width="1" width="143" x="341" y="125"/>
<text font-family="Dialog" font-size="12" font-weight="bold" x="346" y="137">
Godkendelse af login</text>
<polyline fill="none" points="484,132 572,132 572,148" stroke="#333399" stroke-width="1"/>
<line fill="#333399" stroke="#333399" stroke-width="1" x1="565" x2="572" y1="136" y2="148"/>
<line fill="#333399" stroke="#333399" stroke-width="1" x1="579" x2="572" y1="136" y2="148"/>
<text font-family="Dialog" font-size="12" x="485" y="121">
Login godkendt</text>
<rect fill="#00ff" height="24" rx="16" ry="16" stroke="#00ff" stroke-width="1" width="169" x="172" y="76"/>
<rect fill="#ffffff" height="24" rx="16" ry="16" stroke="#000000" stroke-width="1" width="169" x="172" y="76"/>
<rect fill="#ffffff" height="22" rx="16" ry="16" stroke="#ffffff" stroke-width="1" width="167" x="173" y="77"/>
<text font-family="Dialog" font-size="12" font-weight="bold" x="178" y="89">
Vent på loginoplysninger</text>
<polyline fill="none" points="340,132 308,132 308,99" stroke="#333399" stroke-width="1"/>
<line fill="#333399" stroke="#333399" stroke-width="1" x1="315" x2="308" y1="111" y2="99"/>
<line fill="#333399" stroke="#333399" stroke-width="1" x1="301" x2="308" y1="111" y2="99"/>
<text font-family="Dialog" font-size="12" x="241" y="121">
Login afvist</text>
<polyline fill="none" points="340,87 403,87 403,124" stroke="#000000" stroke-width="1"/>
<line fill="#000000" stroke="#000000" stroke-width="1" x1="396" x2="403" y1="112" y2="124"/>
<line fill="#000000" stroke="#000000" stroke-width="1" x1="410" x2="403" y1="112" y2="124"/>
<text font-family="Dialog" font-size="12" x="369" y="82">
Indtastning af oplsyninger færdig</text>
<polyline fill="none" points="34,107 35,88 172,88" stroke="#000000" stroke-width="1"/>
<line fill="#000000" stroke="#000000" stroke-width="1" x1="160" x2="172" y1="95" y2="88"/>
<line fill="#000000" stroke="#000000" stroke-width="1" x1="160" x2="172" y1="81" y2="88"/>
<text font-family="Dialog" font-size="12" x="48" y="79">
Tryk på "login"</text>
<rect fill="#00ff" height="24" rx="16" ry="16" stroke="#00ff" stroke-width="1" width="116" x="180" y="148"/>
<rect fill="#ffffff" height="24" rx="16" ry="16" stroke="#000000" stroke-width="1" width="116" x="180" y="148"/>
<rect fill="#ffffff" height="22" rx="16" ry="16" stroke="#ffffff" stroke-width="1" width="114" x="181" y="149"/>
<text font-family="Dialog" font-size="12" font-weight="bold" x="186" y="161">
Brugeroprettelse</text>
<polyline fill="none" points="295,160 556,160" stroke="#000000" stroke-width="1"/>
<line fill="#000000" stroke="#000000" stroke-width="1" x1="544" x2="556" y1="167" y2="160"/>
<line fill="#000000" stroke="#000000" stroke-width="1" x1="544" x2="556" y1="153" y2="160"/>
<text font-family="Dialog" font-size="12" x="361" y="179">
Oplysninger godkendt</text>
<polyline fill="none" points="235,171 235,188 267,188 267,171" stroke="#000000" stroke-width="1"/>
<line fill="#000000" stroke="#000000" stroke-width="1" x1="274" x2="267" y1="183" y2="171"/>
<line fill="#000000" stroke="#000000" stroke-width="1" x1="260" x2="267" y1="183" y2="171"/>
<text font-family="Dialog" font-size="12" x="203" y="206">
Fejl i oplysninger</text>
<polyline fill="none" points="44,116 195,116 195,148" stroke="#000000" stroke-width="1"/>
<line fill="#000000" stroke="#000000" stroke-width="1" x1="188" x2="195" y1="136" y2="148"/>
<line fill="#000000" stroke="#000000" stroke-width="1" x1="202" x2="195" y1="136" y2="148"/>
<text font-family="Dialog" font-size="12" x="15" y="138">
Tryk på "opret bruger"</text>
<polyline fill="none" points="515,220 716,220 719,179" stroke="#000000" stroke-width="1"/>
<line fill="#000000" stroke="#000000" stroke-width="1" x1="725" x2="719" y1="191" y2="179"/>
<line fill="#000000" stroke="#000000" stroke-width="1" x1="711" x2="719" y1="190" y2="179"/>
<text font-family="Dialog" font-size="12" x="573" y="237">
Afbryd loginproces</text>
<polyline fill="none" points="35,108 35,36 587,36 587,148" stroke="#000000" stroke-width="1"/>
<line fill="#000000" stroke="#000000" stroke-width="1" x1="580" x2="587" y1="136" y2="148"/>
<line fill="#000000" stroke="#000000" stroke-width="1" x1="594" x2="587" y1="136" y2="148"/>
<text font-family="Dialog" font-size="12" x="223" y="27">
Bruger logget ind fra tidligere session</text>
<polyline fill="none" points="587,171 587,196 611,196 611,171" stroke="#000000" stroke-width="1"/>
<line fill="#000000" stroke="#000000" stroke-width="1" x1="618" x2="611" y1="183" y2="171"/>
<line fill="#000000" stroke="#000000" stroke-width="1" x1="604" x2="611" y1="183" y2="171"/>
<text font-family="Dialog" font-size="12" x="530" y="210">
Indkøbslistehåndtering()</text>
</svg>
