<?xml version="1.0" encoding="utf-8" ?>
<!DOCTYPE svg PUBLIC "-//W3C//DTD SVG 1.1//EN" "http://www.w3.org/Graphics/SVG/1.1/DTD/svg11.dtd">
<svg height="292" version="1.1" width="524" xmlns="http://www.w3.org/2000/svg">
<rect fill="#00ff" height="216" rx="16" ry="16" stroke="#00ff" stroke-width="1" width="464" x="46" y="14"/>
<rect fill="#ffffff" height="216" rx="16" ry="16" stroke="#000000" stroke-width="1" width="464" x="46" y="14"/>
<rect fill="#ffffff" height="214" rx="16" ry="16" stroke="#ffffff" stroke-width="1" width="462" x="47" y="15"/>
<text font-family="Lucida Grande" font-size="13" x="261" y="28">
Aktiv</text>
<line fill="#000000" stroke="#000000" stroke-width="1" x1="46" x2="509" y1="38" y2="38"/>
<ellipse cx="22" cy="70" fill="#000000" rx="8.0" ry="8.0" stroke="#000000" stroke-width="1"/>
<rect fill="#00ff" height="26" rx="16" ry="16" stroke="#00ff" stroke-width="1" width="120" x="198" y="86"/>
<rect fill="#ffffff" height="26" rx="16" ry="16" stroke="#000000" stroke-width="1" width="120" x="198" y="86"/>
<rect fill="#ffffff" height="24" rx="16" ry="16" stroke="#ffffff" stroke-width="1" width="118" x="199" y="87"/>
<text font-family="Lucida Grande" font-size="13" x="205" y="100">
Dialogboks åben</text>
<polyline fill="none" points="31,70 246,70 246,86" stroke="#000000" stroke-width="1"/>
<line fill="#000000" stroke="#000000" stroke-width="1" x1="239" x2="246" y1="74" y2="86"/>
<line fill="#000000" stroke="#000000" stroke-width="1" x1="253" x2="246" y1="74" y2="86"/>
<text font-family="Lucida Grande" font-size="13" x="60" y="63">
Rapportér fejl ved opskrift</text>
<rect fill="#00ff" height="32" rx="16" ry="16" stroke="#00ff" stroke-width="1" width="154" x="190" y="166"/>
<rect fill="#ffffff" height="32" rx="16" ry="16" stroke="#000000" stroke-width="1" width="154" x="190" y="166"/>
<rect fill="#ffffff" height="30" rx="16" ry="16" stroke="#ffffff" stroke-width="1" width="152" x="191" y="167"/>
<text font-family="Lucida Grande" font-size="13" x="196" y="180">
Beskrivelsesboks åben</text>
<polyline fill="none" points="246,111 246,166" stroke="#000000" stroke-width="1"/>
<line fill="#000000" stroke="#000000" stroke-width="1" x1="239" x2="246" y1="154" y2="166"/>
<line fill="#000000" stroke="#000000" stroke-width="1" x1="253" x2="246" y1="154" y2="166"/>
<text font-family="Lucida Grande" font-size="13" x="81" y="136">
Vælg fejltype [beskrivelig]</text>
<rect fill="#00ff" height="32" rx="16" ry="16" stroke="#00ff" stroke-width="1" width="108" x="382" y="86"/>
<rect fill="#ffffff" height="32" rx="16" ry="16" stroke="#000000" stroke-width="1" width="108" x="382" y="86"/>
<rect fill="#ffffff" height="30" rx="16" ry="16" stroke="#ffffff" stroke-width="1" width="106" x="383" y="87"/>
<text font-family="Lucida Grande" font-size="13" x="388" y="100">
Fejlrapport klar</text>
<polyline fill="none" points="343,190 414,190 414,117" stroke="#000000" stroke-width="1"/>
<line fill="#000000" stroke="#000000" stroke-width="1" x1="421" x2="414" y1="129" y2="117"/>
<line fill="#000000" stroke="#000000" stroke-width="1" x1="407" x2="414" y1="129" y2="117"/>
<text font-family="Lucida Grande" font-size="13" x="364" y="185">
Beskriv</text>
<ellipse cx="434" cy="266" fill="#000000" rx="12.0" ry="12.0" stroke="#000000" stroke-width="1"/>
<ellipse cx="434" cy="266" fill="#ffffff" rx="11.0" ry="11.0" stroke="#ffffff" stroke-width="1"/>
<ellipse cx="433" cy="265" fill="#000000" rx="7.5" ry="7.5" stroke="#000000" stroke-width="1"/>
<polyline fill="none" points="433,117 433,254" stroke="#000000" stroke-width="1"/>
<line fill="#000000" stroke="#000000" stroke-width="1" x1="426" x2="433" y1="242" y2="254"/>
<line fill="#000000" stroke="#000000" stroke-width="1" x1="440" x2="433" y1="242" y2="254"/>
<text font-family="Lucida Grande" font-size="13" x="436" y="184">
Godkend</text>
<polyline fill="none" points="317,102 382,102" stroke="#000000" stroke-width="1"/>
<line fill="#000000" stroke="#000000" stroke-width="1" x1="370" x2="382" y1="109" y2="102"/>
<line fill="#000000" stroke="#000000" stroke-width="1" x1="370" x2="382" y1="95" y2="102"/>
<text font-family="Lucida Grande" font-size="13" x="312" y="81">
Vælg fejltype [ubeskrivelig]</text>
<polyline fill="none" points="22,78 22,182 190,182" stroke="#000000" stroke-width="1"/>
<line fill="#000000" stroke="#000000" stroke-width="1" x1="178" x2="190" y1="189" y2="182"/>
<line fill="#000000" stroke="#000000" stroke-width="1" x1="178" x2="190" y1="175" y2="182"/>
<text font-family="Lucida Grande" font-size="13" x="53" y="199">
Rapportér generel fejl</text>
<polyline fill="none" points="382,229 382,262 422,265" stroke="#000000" stroke-width="1"/>
<line fill="#000000" stroke="#000000" stroke-width="1" x1="409" x2="422" y1="271" y2="265"/>
<line fill="#000000" stroke="#000000" stroke-width="1" x1="410" x2="422" y1="257" y2="265"/>
<text font-family="Lucida Grande" font-size="13" x="324" y="254">
Annullér</text>
</svg>
