<?xml version="1.0" encoding="utf-8" ?>
<!DOCTYPE svg PUBLIC "-//W3C//DTD SVG 1.1//EN" "http://www.w3.org/Graphics/SVG/1.1/DTD/svg11.dtd">
<svg height="132" version="1.1" width="245" xmlns="http://www.w3.org/2000/svg">
<ellipse cx="22" cy="37" fill="#000000" rx="8.0" ry="8.0" stroke="#000000" stroke-width="1"/>
<rect fill="#00ff" height="24" rx="16" ry="16" stroke="#00ff" stroke-width="1" width="72" x="102" y="53"/>
<rect fill="#ffffff" height="24" rx="16" ry="16" stroke="#000000" stroke-width="1" width="72" x="102" y="53"/>
<rect fill="#ffffff" height="22" rx="16" ry="16" stroke="#ffffff" stroke-width="1" width="70" x="103" y="54"/>
<text font-family="Dialog" font-size="12" font-weight="bold" x="124" y="67">
Aktiv</text>
<polyline fill="none" points="31,37 142,37 142,53" stroke="#000000" stroke-width="1"/>
<line fill="#000000" stroke="#000000" stroke-width="1" x1="135" x2="142" y1="41" y2="53"/>
<line fill="#000000" stroke="#000000" stroke-width="1" x1="149" x2="142" y1="41" y2="53"/>
<text font-family="Dialog" font-size="12" x="49" y="28">
Bogmærke tilføjet(opskrift)</text>
<ellipse cx="210" cy="65" fill="#000000" rx="12.0" ry="12.0" stroke="#000000" stroke-width="1"/>
<ellipse cx="210" cy="65" fill="#ffffff" rx="11.0" ry="11.0" stroke="#ffffff" stroke-width="1"/>
<ellipse cx="209" cy="64" fill="#000000" rx="7.5" ry="7.5" stroke="#000000" stroke-width="1"/>
<polyline fill="none" points="142,76 142,93 206,93 208,76" stroke="#000000" stroke-width="1"/>
<line fill="#000000" stroke="#000000" stroke-width="1" x1="213" x2="208" y1="88" y2="76"/>
<line fill="#000000" stroke="#000000" stroke-width="1" x1="199" x2="208" y1="87" y2="76"/>
<text font-family="Dialog" font-size="12" x="84" y="114">
Bogmærke fjernet(opskrift)</text>
</svg>
