<?xml version="1.0" encoding="utf-8" ?>
<!DOCTYPE svg PUBLIC "-//W3C//DTD SVG 1.1//EN" "http://www.w3.org/Graphics/SVG/1.1/DTD/svg11.dtd">
<svg height="199" version="1.1" width="655" xmlns="http://www.w3.org/2000/svg">
<ellipse cx="22" cy="89" fill="#000000" rx="8.0" ry="8.0" stroke="#000000" stroke-width="1"/>
<rect fill="#00ff" height="48" rx="16" ry="16" stroke="#00ff" stroke-width="1" width="136" x="190" y="65"/>
<rect fill="#ffffff" height="48" rx="16" ry="16" stroke="#000000" stroke-width="1" width="136" x="190" y="65"/>
<rect fill="#ffffff" height="46" rx="16" ry="16" stroke="#ffffff" stroke-width="1" width="134" x="191" y="66"/>
<text font-family="Lucida Grande" font-size="13" x="196" y="79">
Opmærksom på fejl</text>
<polyline fill="none" points="31,89 190,89" stroke="#000000" stroke-width="1"/>
<line fill="#000000" stroke="#000000" stroke-width="1" x1="178" x2="190" y1="96" y2="89"/>
<line fill="#000000" stroke="#000000" stroke-width="1" x1="178" x2="190" y1="82" y2="89"/>
<text font-family="Lucida Grande" font-size="13" x="54" y="84">
Find fejl i opskrift</text>
<ellipse cx="362" cy="173" fill="#000000" rx="12.0" ry="12.0" stroke="#000000" stroke-width="1"/>
<ellipse cx="362" cy="173" fill="#ffffff" rx="11.0" ry="11.0" stroke="#ffffff" stroke-width="1"/>
<ellipse cx="361" cy="172" fill="#000000" rx="7.5" ry="7.5" stroke="#000000" stroke-width="1"/>
<polyline fill="none" points="254,65 254,33 454,33 454,65" stroke="#000000" stroke-width="1"/>
<line fill="#000000" stroke="#000000" stroke-width="1" x1="447" x2="454" y1="53" y2="65"/>
<line fill="#000000" stroke="#000000" stroke-width="1" x1="461" x2="454" y1="53" y2="65"/>
<text font-family="Lucida Grande" font-size="13" x="312" y="28">
Rapporter fejl</text>
<polyline fill="none" points="254,112 254,177 350,173" stroke="#000000" stroke-width="1"/>
<line fill="#000000" stroke="#000000" stroke-width="1" x1="338" x2="350" y1="180" y2="173"/>
<line fill="#000000" stroke="#000000" stroke-width="1" x1="337" x2="350" y1="166" y2="173"/>
<text font-family="Lucida Grande" font-size="13" x="259" y="167">
Bortse fejl</text>
<rect fill="#00ff" height="48" rx="16" ry="16" stroke="#00ff" stroke-width="1" width="115" x="390" y="65"/>
<rect fill="#ffffff" height="48" rx="16" ry="16" stroke="#000000" stroke-width="1" width="115" x="390" y="65"/>
<rect fill="#ffffff" height="46" rx="16" ry="16" stroke="#ffffff" stroke-width="1" width="113" x="391" y="66"/>
<text font-family="Lucida Grande" font-size="13" x="399" y="79">
Fejl rapporteret</text>
<polyline fill="none" points="504,105 526,105 526,81 504,81" stroke="#000000" stroke-width="1"/>
<line fill="#000000" stroke="#000000" stroke-width="1" x1="516" x2="504" y1="74" y2="81"/>
<line fill="#000000" stroke="#000000" stroke-width="1" x1="516" x2="504" y1="88" y2="81"/>
<text font-family="Lucida Grande" font-size="13" x="528" y="92">
Få tilbagemelding</text>
<polyline fill="none" points="454,112 454,177 373,173" stroke="#000000" stroke-width="1"/>
<line fill="#000000" stroke="#000000" stroke-width="1" x1="385" x2="373" y1="166" y2="173"/>
<line fill="#000000" stroke="#000000" stroke-width="1" x1="384" x2="373" y1="180" y2="173"/>
<text font-family="Lucida Grande" font-size="13" x="462" y="157">
Få tilbagemelding</text>
</svg>
