<?xml version="1.0" encoding="utf-8" ?>
<!DOCTYPE svg PUBLIC "-//W3C//DTD SVG 1.1//EN" "http://www.w3.org/Graphics/SVG/1.1/DTD/svg11.dtd">
<svg height="167" version="1.1" width="630" xmlns="http://www.w3.org/2000/svg">
<ellipse cx="22" cy="89" fill="#000000" rx="8.0" ry="8.0" stroke="#000000" stroke-width="1"/>
<rect fill="#00ff" height="48" rx="16" ry="16" stroke="#00ff" stroke-width="1" width="136" x="110" y="65"/>
<rect fill="#ffffff" height="48" rx="16" ry="16" stroke="#000000" stroke-width="1" width="136" x="110" y="65"/>
<rect fill="#ffffff" height="46" rx="16" ry="16" stroke="#ffffff" stroke-width="1" width="134" x="111" y="66"/>
<text font-family="Lucida Grande" font-size="13" x="116" y="79">
Opmærksom på fejl</text>
<polyline fill="none" points="31,89 110,89" stroke="#000000" stroke-width="1"/>
<line fill="#000000" stroke="#000000" stroke-width="1" x1="98" x2="110" y1="96" y2="89"/>
<line fill="#000000" stroke="#000000" stroke-width="1" x1="98" x2="110" y1="82" y2="89"/>
<text font-family="Lucida Grande" font-size="13" x="34" y="84">
Fejl fundet</text>
<ellipse cx="282" cy="141" fill="#000000" rx="12.0" ry="12.0" stroke="#000000" stroke-width="1"/>
<ellipse cx="282" cy="141" fill="#ffffff" rx="11.0" ry="11.0" stroke="#ffffff" stroke-width="1"/>
<ellipse cx="281" cy="140" fill="#000000" rx="7.5" ry="7.5" stroke="#000000" stroke-width="1"/>
<polyline fill="none" points="174,65 174,33 374,33 374,65" stroke="#000000" stroke-width="1"/>
<line fill="#000000" stroke="#000000" stroke-width="1" x1="367" x2="374" y1="53" y2="65"/>
<line fill="#000000" stroke="#000000" stroke-width="1" x1="381" x2="374" y1="53" y2="65"/>
<text font-family="Lucida Grande" font-size="13" x="226" y="28">
Fejl rapporteret</text>
<polyline fill="none" points="174,112 174,145 270,141" stroke="#000000" stroke-width="1"/>
<line fill="#000000" stroke="#000000" stroke-width="1" x1="258" x2="270" y1="148" y2="141"/>
<line fill="#000000" stroke="#000000" stroke-width="1" x1="257" x2="270" y1="134" y2="141"/>
<text font-family="Lucida Grande" font-size="13" x="95" y="140">
Fejl bortset</text>
<rect fill="#00ff" height="48" rx="16" ry="16" stroke="#00ff" stroke-width="1" width="115" x="310" y="65"/>
<rect fill="#ffffff" height="48" rx="16" ry="16" stroke="#000000" stroke-width="1" width="115" x="310" y="65"/>
<rect fill="#ffffff" height="46" rx="16" ry="16" stroke="#ffffff" stroke-width="1" width="113" x="311" y="66"/>
<text font-family="Lucida Grande" font-size="13" x="319" y="79">
Fejl rapporteret</text>
<polyline fill="none" points="424,105 446,105 446,81 424,81" stroke="#000000" stroke-width="1"/>
<line fill="#000000" stroke="#000000" stroke-width="1" x1="436" x2="424" y1="74" y2="81"/>
<line fill="#000000" stroke="#000000" stroke-width="1" x1="436" x2="424" y1="88" y2="81"/>
<text font-family="Lucida Grande" font-size="13" x="454" y="95">
Tilbagemelding modtaget</text>
<polyline fill="none" points="374,112 374,145 293,141" stroke="#000000" stroke-width="1"/>
<line fill="#000000" stroke="#000000" stroke-width="1" x1="305" x2="293" y1="134" y2="141"/>
<line fill="#000000" stroke="#000000" stroke-width="1" x1="304" x2="293" y1="148" y2="141"/>
<text font-family="Lucida Grande" font-size="13" x="383" y="137">
Tilbagemelding modtaget</text>
</svg>
