<?xml version="1.0" encoding="utf-8" ?>
<!DOCTYPE svg PUBLIC "-//W3C//DTD SVG 1.1//EN" "http://www.w3.org/Graphics/SVG/1.1/DTD/svg11.dtd">
<svg height="162" version="1.1" width="349" xmlns="http://www.w3.org/2000/svg">
<ellipse cx="22" cy="81" fill="#000000" rx="8.0" ry="8.0" stroke="#000000" stroke-width="1"/>
<ellipse cx="306" cy="77" fill="#000000" rx="12.0" ry="12.0" stroke="#000000" stroke-width="1"/>
<ellipse cx="306" cy="77" fill="#ffffff" rx="11.0" ry="11.0" stroke="#ffffff" stroke-width="1"/>
<ellipse cx="305" cy="76" fill="#000000" rx="7.5" ry="7.5" stroke="#000000" stroke-width="1"/>
<rect fill="#00ff" height="46" rx="16" ry="16" stroke="#00ff" stroke-width="1" width="144" x="78" y="57"/>
<rect fill="#ffffff" height="46" rx="16" ry="16" stroke="#000000" stroke-width="1" width="144" x="78" y="57"/>
<rect fill="#ffffff" height="44" rx="16" ry="16" stroke="#ffffff" stroke-width="1" width="142" x="79" y="58"/>
<text font-family="Dialog" font-size="12" x="121" y="70">
Redigeres</text>
<polyline fill="none" points="134,102 134,129 118,129 118,102" stroke="#000000" stroke-width="1"/>
<line fill="#000000" stroke="#000000" stroke-width="1" x1="125" x2="118" y1="114" y2="102"/>
<line fill="#000000" stroke="#000000" stroke-width="1" x1="111" x2="118" y1="114" y2="102"/>
<text font-family="Dialog" font-size="12" x="31" y="143">
Tekst tilføjet(tekst)</text>
<polyline fill="none" points="134,57 134,33 118,33 118,57" stroke="#000000" stroke-width="1"/>
<line fill="#000000" stroke="#000000" stroke-width="1" x1="111" x2="118" y1="45" y2="57"/>
<line fill="#000000" stroke="#000000" stroke-width="1" x1="125" x2="118" y1="45" y2="57"/>
<text font-family="Dialog" font-size="12" x="30" y="27">
Tekst fjernet(tekst)</text>
<polyline fill="none" points="166,57 166,33 182,33 182,57" stroke="#000000" stroke-width="1"/>
<line fill="#000000" stroke="#000000" stroke-width="1" x1="175" x2="182" y1="45" y2="57"/>
<line fill="#000000" stroke="#000000" stroke-width="1" x1="189" x2="182" y1="45" y2="57"/>
<text font-family="Dialog" font-size="12" x="164" y="27">
Ingrediens fjernet(ingrediens)</text>
<polyline fill="none" points="166,102 166,129 182,129 182,102" stroke="#000000" stroke-width="1"/>
<line fill="#000000" stroke="#000000" stroke-width="1" x1="189" x2="182" y1="114" y2="102"/>
<line fill="#000000" stroke="#000000" stroke-width="1" x1="175" x2="182" y1="114" y2="102"/>
<text font-family="Dialog" font-size="12" x="165" y="144">
Ingrediens tilføjet(ingrediens)</text>
<polyline fill="none" points="29,80 78,80" stroke="#000000" stroke-width="1"/>
<line fill="#000000" stroke="#000000" stroke-width="1" x1="66" x2="78" y1="87" y2="80"/>
<line fill="#000000" stroke="#000000" stroke-width="1" x1="66" x2="78" y1="73" y2="80"/>
<polyline fill="none" points="221,77 294,77" stroke="#000000" stroke-width="1"/>
<line fill="#000000" stroke="#000000" stroke-width="1" x1="282" x2="294" y1="84" y2="77"/>
<line fill="#000000" stroke="#000000" stroke-width="1" x1="282" x2="294" y1="70" y2="77"/>
</svg>
