<?xml version="1.0" encoding="utf-8" ?>
<!DOCTYPE svg PUBLIC "-//W3C//DTD SVG 1.1//EN" "http://www.w3.org/Graphics/SVG/1.1/DTD/svg11.dtd">
<svg height="161" version="1.1" width="332" xmlns="http://www.w3.org/2000/svg">
<ellipse cx="22" cy="81" fill="#000000" rx="8.0" ry="8.0" stroke="#000000" stroke-width="1"/>
<ellipse cx="306" cy="77" fill="#000000" rx="12.0" ry="12.0" stroke="#000000" stroke-width="1"/>
<ellipse cx="306" cy="77" fill="#ffffff" rx="11.0" ry="11.0" stroke="#ffffff" stroke-width="1"/>
<ellipse cx="305" cy="76" fill="#000000" rx="7.5" ry="7.5" stroke="#000000" stroke-width="1"/>
<rect fill="#00ff" height="46" rx="16" ry="16" stroke="#00ff" stroke-width="1" width="144" x="94" y="57"/>
<rect fill="#ffffff" height="46" rx="16" ry="16" stroke="#000000" stroke-width="1" width="144" x="94" y="57"/>
<rect fill="#ffffff" height="44" rx="16" ry="16" stroke="#ffffff" stroke-width="1" width="142" x="95" y="58"/>
<text font-family="Dialog" font-size="12" x="137" y="70">
Redigeres</text>
<polyline fill="none" points="150,102 150,129 134,129 134,102" stroke="#000000" stroke-width="1"/>
<line fill="#000000" stroke="#000000" stroke-width="1" x1="141" x2="134" y1="114" y2="102"/>
<line fill="#000000" stroke="#000000" stroke-width="1" x1="127" x2="134" y1="114" y2="102"/>
<text font-family="Dialog" font-size="12" x="50" y="143">
Vare tilføjet(tekst)</text>
<polyline fill="none" points="150,57 150,33 134,33 134,57" stroke="#000000" stroke-width="1"/>
<line fill="#000000" stroke="#000000" stroke-width="1" x1="127" x2="134" y1="45" y2="57"/>
<line fill="#000000" stroke="#000000" stroke-width="1" x1="141" x2="134" y1="45" y2="57"/>
<text font-family="Dialog" font-size="12" x="49" y="27">
Vare fjernet(tekst)</text>
<polyline fill="none" points="30,81 94,81" stroke="#000000" stroke-width="1"/>
<line fill="#000000" stroke="#000000" stroke-width="1" x1="82" x2="94" y1="88" y2="81"/>
<line fill="#000000" stroke="#000000" stroke-width="1" x1="82" x2="94" y1="74" y2="81"/>
<polyline fill="none" points="237,76 294,76" stroke="#000000" stroke-width="1"/>
<line fill="#000000" stroke="#000000" stroke-width="1" x1="282" x2="294" y1="83" y2="76"/>
<line fill="#000000" stroke="#000000" stroke-width="1" x1="282" x2="294" y1="69" y2="76"/>
</svg>
