<?xml version="1.0" encoding="utf-8" ?>
<!DOCTYPE svg PUBLIC "-//W3C//DTD SVG 1.1//EN" "http://www.w3.org/Graphics/SVG/1.1/DTD/svg11.dtd">
<svg height="212" version="1.1" width="642" xmlns="http://www.w3.org/2000/svg">
<ellipse cx="58" cy="110" fill="#000000" rx="8.0" ry="8.0" stroke="#000000" stroke-width="1"/>
<ellipse cx="598" cy="106" fill="#000000" rx="12.0" ry="12.0" stroke="#000000" stroke-width="1"/>
<ellipse cx="598" cy="106" fill="#ffffff" rx="11.0" ry="11.0" stroke="#ffffff" stroke-width="1"/>
<ellipse cx="597" cy="105" fill="#000000" rx="7.5" ry="7.5" stroke="#000000" stroke-width="1"/>
<rect fill="#00ff" height="184" rx="16" ry="16" stroke="#00ff" stroke-width="1" width="368" x="130" y="14"/>
<rect fill="#ffffff" height="184" rx="16" ry="16" stroke="#000000" stroke-width="1" width="368" x="130" y="14"/>
<rect fill="#ffffff" height="182" rx="16" ry="16" stroke="#ffffff" stroke-width="1" width="366" x="131" y="15"/>
<line fill="#000000" stroke="#000000" stroke-width="1" x1="130" x2="497" y1="37" y2="37"/>
<rect fill="#00ff" height="46" rx="16" ry="16" stroke="#00ff" stroke-width="1" width="144" x="170" y="86"/>
<rect fill="#ffffff" height="46" rx="16" ry="16" stroke="#000000" stroke-width="1" width="144" x="170" y="86"/>
<rect fill="#ffffff" height="44" rx="16" ry="16" stroke="#ffffff" stroke-width="1" width="142" x="171" y="87"/>
<text font-family="Dialog" font-size="12" x="213" y="99">
Redigeres</text>
<polyline fill="none" points="226,131 226,158 210,158 210,131" stroke="#000000" stroke-width="1"/>
<line fill="#000000" stroke="#000000" stroke-width="1" x1="217" x2="210" y1="143" y2="131"/>
<line fill="#000000" stroke="#000000" stroke-width="1" x1="203" x2="210" y1="143" y2="131"/>
<text font-family="Dialog" font-size="12" x="160" y="176">
Tekst tilføjet</text>
<polyline fill="none" points="226,86 226,62 210,62 210,86" stroke="#000000" stroke-width="1"/>
<line fill="#000000" stroke="#000000" stroke-width="1" x1="203" x2="210" y1="74" y2="86"/>
<line fill="#000000" stroke="#000000" stroke-width="1" x1="217" x2="210" y1="74" y2="86"/>
<text font-family="Dialog" font-size="12" x="157" y="55">
Tekst fjernet</text>
<polyline fill="none" points="258,86 258,62 274,62 274,86" stroke="#000000" stroke-width="1"/>
<line fill="#000000" stroke="#000000" stroke-width="1" x1="267" x2="274" y1="74" y2="86"/>
<line fill="#000000" stroke="#000000" stroke-width="1" x1="281" x2="274" y1="74" y2="86"/>
<text font-family="Dialog" font-size="12" x="252" y="54">
Ingrediens fjernet</text>
<polyline fill="none" points="258,131 258,158 274,158 274,131" stroke="#000000" stroke-width="1"/>
<line fill="#000000" stroke="#000000" stroke-width="1" x1="281" x2="274" y1="143" y2="131"/>
<line fill="#000000" stroke="#000000" stroke-width="1" x1="267" x2="274" y1="143" y2="131"/>
<text font-family="Dialog" font-size="12" x="252" y="176">
Ingrediens tilføjet</text>
<polyline fill="none" points="65,109 170,109" stroke="#000000" stroke-width="1"/>
<line fill="#000000" stroke="#000000" stroke-width="1" x1="158" x2="170" y1="116" y2="109"/>
<line fill="#000000" stroke="#000000" stroke-width="1" x1="158" x2="170" y1="102" y2="109"/>
<text font-family="Dialog" font-size="12" x="15" y="97">
Indkøbsliste oprettet</text>
<rect fill="#00ff" height="46" rx="16" ry="16" stroke="#00ff" stroke-width="1" width="70" x="394" y="86"/>
<rect fill="#ffffff" height="46" rx="16" ry="16" stroke="#000000" stroke-width="1" width="70" x="394" y="86"/>
<rect fill="#ffffff" height="44" rx="16" ry="16" stroke="#ffffff" stroke-width="1" width="68" x="395" y="87"/>
<text font-family="Dialog" font-size="12" x="415" y="99">
Aktiv</text>
<polyline fill="none" points="426,131 426,158 442,158 442,131" stroke="#000000" stroke-width="1"/>
<line fill="#000000" stroke="#000000" stroke-width="1" x1="449" x2="442" y1="143" y2="131"/>
<line fill="#000000" stroke="#000000" stroke-width="1" x1="435" x2="442" y1="143" y2="131"/>
<text font-family="Dialog" font-size="12" x="401" y="174">
Råvare købt</text>
<polyline fill="none" points="463,106 586,106" stroke="#000000" stroke-width="1"/>
<line fill="#000000" stroke="#000000" stroke-width="1" x1="574" x2="586" y1="113" y2="106"/>
<line fill="#000000" stroke="#000000" stroke-width="1" x1="574" x2="586" y1="99" y2="106"/>
<text font-family="Dialog" font-size="12" x="503" y="88">
Indkøbsliste smidt ud</text>
<polyline fill="none" points="313,110 394,110" stroke="#000000" stroke-width="1"/>
<line fill="#000000" stroke="#000000" stroke-width="1" x1="382" x2="394" y1="117" y2="110"/>
<line fill="#000000" stroke="#000000" stroke-width="1" x1="382" x2="394" y1="103" y2="110"/>
<text font-family="Dialog" font-size="12" x="300" y="80">
Indkøbsliste færdig</text>
</svg>
