<?xml version="1.0" encoding="utf-8" ?>
<!DOCTYPE svg PUBLIC "-//W3C//DTD SVG 1.1//EN" "http://www.w3.org/Graphics/SVG/1.1/DTD/svg11.dtd">
<svg height="129" version="1.1" width="300" xmlns="http://www.w3.org/2000/svg">
<ellipse cx="22" cy="68" fill="#000000" rx="8.0" ry="8.0" stroke="#000000" stroke-width="1"/>
<ellipse cx="274" cy="64" fill="#000000" rx="12.0" ry="12.0" stroke="#000000" stroke-width="1"/>
<ellipse cx="274" cy="64" fill="#ffffff" rx="11.0" ry="11.0" stroke="#ffffff" stroke-width="1"/>
<ellipse cx="273" cy="63" fill="#000000" rx="7.5" ry="7.5" stroke="#000000" stroke-width="1"/>
<rect fill="#00ff" height="24" rx="16" ry="16" stroke="#00ff" stroke-width="1" width="88" x="150" y="52"/>
<rect fill="#ffffff" height="24" rx="16" ry="16" stroke="#000000" stroke-width="1" width="88" x="150" y="52"/>
<rect fill="#ffffff" height="22" rx="16" ry="16" stroke="#ffffff" stroke-width="1" width="86" x="151" y="53"/>
<text font-family="Dialog" font-size="12" x="165" y="66">
Redigeres</text>
<polyline fill="none" points="206,75 206,92 190,92 190,75" stroke="#000000" stroke-width="1"/>
<line fill="#000000" stroke="#000000" stroke-width="1" x1="197" x2="190" y1="87" y2="75"/>
<line fill="#000000" stroke="#000000" stroke-width="1" x1="183" x2="190" y1="87" y2="75"/>
<text font-family="Dialog" font-size="12" x="148" y="111">
Vare tilføjet(tekst)</text>
<polyline fill="none" points="206,52 206,36 190,36 190,52" stroke="#000000" stroke-width="1"/>
<line fill="#000000" stroke="#000000" stroke-width="1" x1="183" x2="190" y1="40" y2="52"/>
<line fill="#000000" stroke="#000000" stroke-width="1" x1="197" x2="190" y1="40" y2="52"/>
<text font-family="Dialog" font-size="12" x="151" y="28">
Vare fjernet(tekst)</text>
<polyline fill="none" points="29,67 150,67" stroke="#000000" stroke-width="1"/>
<line fill="#000000" stroke="#000000" stroke-width="1" x1="138" x2="150" y1="74" y2="67"/>
<line fill="#000000" stroke="#000000" stroke-width="1" x1="138" x2="150" y1="60" y2="67"/>
<text font-family="Dialog" font-size="12" x="33" y="53">
Indkøbsliste oprettet</text>
<polyline fill="none" points="237,63 262,63" stroke="#000000" stroke-width="1"/>
<line fill="#000000" stroke="#000000" stroke-width="1" x1="250" x2="262" y1="70" y2="63"/>
<line fill="#000000" stroke="#000000" stroke-width="1" x1="250" x2="262" y1="56" y2="63"/>
</svg>
