<?xml version="1.0" encoding="utf-8" ?>
<!DOCTYPE svg PUBLIC "-//W3C//DTD SVG 1.1//EN" "http://www.w3.org/Graphics/SVG/1.1/DTD/svg11.dtd">
<svg height="161" version="1.1" width="428" xmlns="http://www.w3.org/2000/svg">
<ellipse cx="22" cy="81" fill="#000000" rx="8.0" ry="8.0" stroke="#000000" stroke-width="1"/>
<ellipse cx="402" cy="77" fill="#000000" rx="12.0" ry="12.0" stroke="#000000" stroke-width="1"/>
<ellipse cx="402" cy="77" fill="#ffffff" rx="11.0" ry="11.0" stroke="#ffffff" stroke-width="1"/>
<ellipse cx="401" cy="76" fill="#000000" rx="7.5" ry="7.5" stroke="#000000" stroke-width="1"/>
<rect fill="#00ff" height="46" rx="16" ry="16" stroke="#00ff" stroke-width="1" width="144" x="190" y="57"/>
<rect fill="#ffffff" height="46" rx="16" ry="16" stroke="#000000" stroke-width="1" width="144" x="190" y="57"/>
<rect fill="#ffffff" height="44" rx="16" ry="16" stroke="#ffffff" stroke-width="1" width="142" x="191" y="58"/>
<text font-family="Dialog" font-size="12" x="233" y="70">
Redigeres</text>
<polyline fill="none" points="246,102 246,129 230,129 230,102" stroke="#000000" stroke-width="1"/>
<line fill="#000000" stroke="#000000" stroke-width="1" x1="237" x2="230" y1="114" y2="102"/>
<line fill="#000000" stroke="#000000" stroke-width="1" x1="223" x2="230" y1="114" y2="102"/>
<text font-family="Dialog" font-size="12" x="146" y="143">
Vare tilføjet(tekst)</text>
<polyline fill="none" points="246,57 246,33 230,33 230,57" stroke="#000000" stroke-width="1"/>
<line fill="#000000" stroke="#000000" stroke-width="1" x1="223" x2="230" y1="45" y2="57"/>
<line fill="#000000" stroke="#000000" stroke-width="1" x1="237" x2="230" y1="45" y2="57"/>
<text font-family="Dialog" font-size="12" x="145" y="27">
Vare fjernet(tekst)</text>
<polyline fill="none" points="30,81 190,81" stroke="#000000" stroke-width="1"/>
<line fill="#000000" stroke="#000000" stroke-width="1" x1="178" x2="190" y1="88" y2="81"/>
<line fill="#000000" stroke="#000000" stroke-width="1" x1="178" x2="190" y1="74" y2="81"/>
<text font-family="Dialog" font-size="12" x="51" y="76">
Indkøbsliste oprettet</text>
<polyline fill="none" points="333,76 390,76" stroke="#000000" stroke-width="1"/>
<line fill="#000000" stroke="#000000" stroke-width="1" x1="378" x2="390" y1="83" y2="76"/>
<line fill="#000000" stroke="#000000" stroke-width="1" x1="378" x2="390" y1="69" y2="76"/>
</svg>
