<?xml version="1.0" encoding="utf-8" ?>
<!DOCTYPE svg PUBLIC "-//W3C//DTD SVG 1.1//EN" "http://www.w3.org/Graphics/SVG/1.1/DTD/svg11.dtd">
<svg height="125" version="1.1" width="468" xmlns="http://www.w3.org/2000/svg">
<ellipse cx="22" cy="38" fill="#000000" rx="8.0" ry="8.0" stroke="#000000" stroke-width="1"/>
<rect fill="#00ff" height="46" rx="16" ry="16" stroke="#00ff" stroke-width="1" width="136" x="158" y="14"/>
<rect fill="#ffffff" height="46" rx="16" ry="16" stroke="#000000" stroke-width="1" width="136" x="158" y="14"/>
<rect fill="#ffffff" height="44" rx="16" ry="16" stroke="#ffffff" stroke-width="1" width="134" x="159" y="15"/>
<text font-family="Lucida Grande" font-size="13" x="195" y="28">
Eksisterer</text>
<polyline fill="none" points="31,38 158,38" stroke="#000000" stroke-width="1"/>
<line fill="#000000" stroke="#000000" stroke-width="1" x1="146" x2="158" y1="45" y2="38"/>
<line fill="#000000" stroke="#000000" stroke-width="1" x1="146" x2="158" y1="31" y2="38"/>
<text font-family="Lucida Grande" font-size="13" x="45" y="31">
Opskrift fundet</text>
<ellipse cx="442" cy="34" fill="#000000" rx="12.0" ry="12.0" stroke="#000000" stroke-width="1"/>
<ellipse cx="442" cy="34" fill="#ffffff" rx="11.0" ry="11.0" stroke="#ffffff" stroke-width="1"/>
<ellipse cx="441" cy="33" fill="#000000" rx="7.5" ry="7.5" stroke="#000000" stroke-width="1"/>
<polyline fill="none" points="293,34 430,34" stroke="#000000" stroke-width="1"/>
<line fill="#000000" stroke="#000000" stroke-width="1" x1="418" x2="430" y1="41" y2="34"/>
<line fill="#000000" stroke="#000000" stroke-width="1" x1="418" x2="430" y1="27" y2="34"/>
<text font-family="Lucida Grande" font-size="13" x="303" y="28">
Opskrift smidt ud</text>
<polyline fill="none" points="182,59 182,86 206,86 206,59" stroke="#000000" stroke-width="1"/>
<line fill="#000000" stroke="#000000" stroke-width="1" x1="213" x2="206" y1="71" y2="59"/>
<line fill="#000000" stroke="#000000" stroke-width="1" x1="199" x2="206" y1="71" y2="59"/>
<text font-family="Lucida Grande" font-size="13" x="101" y="105">
Ingrediens tilføjet</text>
<polyline fill="none" points="270,59 270,86 246,86 246,59" stroke="#000000" stroke-width="1"/>
<line fill="#000000" stroke="#000000" stroke-width="1" x1="253" x2="246" y1="71" y2="59"/>
<line fill="#000000" stroke="#000000" stroke-width="1" x1="239" x2="246" y1="71" y2="59"/>
<text font-family="Lucida Grande" font-size="13" x="241" y="107">
Ingrediens fjernet</text>
</svg>
