<?xml version="1.0" encoding="utf-8" ?>
<!DOCTYPE svg PUBLIC "-//W3C//DTD SVG 1.1//EN" "http://www.w3.org/Graphics/SVG/1.1/DTD/svg11.dtd">
<svg height="126" version="1.1" width="587" xmlns="http://www.w3.org/2000/svg">
<ellipse cx="150" cy="38" fill="#000000" rx="8.0" ry="8.0" stroke="#000000" stroke-width="1"/>
<rect fill="#00ff" height="46" rx="16" ry="16" stroke="#00ff" stroke-width="1" width="136" x="277" y="14"/>
<rect fill="#ffffff" height="46" rx="16" ry="16" stroke="#000000" stroke-width="1" width="136" x="277" y="14"/>
<rect fill="#ffffff" height="44" rx="16" ry="16" stroke="#ffffff" stroke-width="1" width="134" x="278" y="15"/>
<text font-family="Dialog" font-size="13" x="313" y="28">
Eksisterer</text>
<polyline fill="none" points="159,38 277,38" stroke="#000000" stroke-width="1"/>
<line fill="#000000" stroke="#000000" stroke-width="1" x1="265" x2="277" y1="45" y2="38"/>
<line fill="#000000" stroke="#000000" stroke-width="1" x1="265" x2="277" y1="31" y2="38"/>
<text font-family="Dialog" font-size="13" x="169" y="31">
Opskrift fundet</text>
<ellipse cx="561" cy="34" fill="#000000" rx="12.0" ry="12.0" stroke="#000000" stroke-width="1"/>
<ellipse cx="561" cy="34" fill="#ffffff" rx="11.0" ry="11.0" stroke="#ffffff" stroke-width="1"/>
<ellipse cx="560" cy="33" fill="#000000" rx="7.5" ry="7.5" stroke="#000000" stroke-width="1"/>
<polyline fill="none" points="412,34 549,34" stroke="#000000" stroke-width="1"/>
<line fill="#000000" stroke="#000000" stroke-width="1" x1="537" x2="549" y1="41" y2="34"/>
<line fill="#000000" stroke="#000000" stroke-width="1" x1="537" x2="549" y1="27" y2="34"/>
<text font-family="Dialog" font-size="13" x="424" y="28">
Opskrift smidt ud</text>
<polyline fill="none" points="300,59 300,86 324,86 324,59" stroke="#000000" stroke-width="1"/>
<line fill="#000000" stroke="#000000" stroke-width="1" x1="331" x2="324" y1="71" y2="59"/>
<line fill="#000000" stroke="#000000" stroke-width="1" x1="317" x2="324" y1="71" y2="59"/>
<text font-family="Dialog" font-size="13" x="200" y="107">
Skrevet på indkøbsliste</text>
<polyline fill="none" points="388,59 388,86 364,86 364,59" stroke="#000000" stroke-width="1"/>
<line fill="#000000" stroke="#000000" stroke-width="1" x1="371" x2="364" y1="71" y2="59"/>
<line fill="#000000" stroke="#000000" stroke-width="1" x1="357" x2="364" y1="71" y2="59"/>
<text font-family="Dialog" font-size="13" x="362" y="107">
Fjernet fra indkøbsliste</text>
<rect fill="#ffffff" height="24" stroke="#ffffff" stroke-width="1" width="112" x="14" y="14"/>
<rect fill="none" height="23" stroke="#000000" stroke-width="1" width="111" x="14" y="14"/>
<text font-family="Dialog" font-size="13" font-weight="bold" x="31" y="29">
Ingrediens</text>
<rect fill="#ffffff" height="55" stroke="#ffffff" stroke-width="1" width="112" x="14" y="38"/>
<rect fill="none" height="54" stroke="#000000" stroke-width="1" width="111" x="14" y="38"/>
<text font-family="Dialog" font-size="13" x="16" y="53">
navn</text>
<text font-family="Dialog" font-size="13" x="16" y="70">
mængde</text>
<text font-family="Dialog" font-size="13" x="16" y="87">
enhed</text>
</svg>
