<?xml version="1.0" encoding="utf-8" ?>
<!DOCTYPE svg PUBLIC "-//W3C//DTD SVG 1.1//EN" "http://www.w3.org/Graphics/SVG/1.1/DTD/svg11.dtd">
<svg height="183" version="1.1" width="534" xmlns="http://www.w3.org/2000/svg">
<ellipse cx="40" cy="38" fill="#000000" rx="8.0" ry="8.0" stroke="#000000" stroke-width="1"/>
<rect fill="#00ff" height="46" rx="16" ry="16" stroke="#00ff" stroke-width="1" width="136" x="176" y="14"/>
<rect fill="#ffffff" height="46" rx="16" ry="16" stroke="#000000" stroke-width="1" width="136" x="176" y="14"/>
<rect fill="#ffffff" height="44" rx="16" ry="16" stroke="#ffffff" stroke-width="1" width="134" x="177" y="15"/>
<text font-family="Lucida Grande" font-size="13" x="182" y="28">
Eksisterer i opskrift</text>
<polyline fill="none" points="49,38 176,38" stroke="#000000" stroke-width="1"/>
<line fill="#000000" stroke="#000000" stroke-width="1" x1="164" x2="176" y1="45" y2="38"/>
<line fill="#000000" stroke="#000000" stroke-width="1" x1="164" x2="176" y1="31" y2="38"/>
<text font-family="Lucida Grande" font-size="13" x="64" y="29">
Opskrift fundet</text>
<rect fill="#00ff" height="46" rx="16" ry="16" stroke="#00ff" stroke-width="1" width="108" x="192" y="110"/>
<rect fill="#ffffff" height="46" rx="16" ry="16" stroke="#000000" stroke-width="1" width="108" x="192" y="110"/>
<rect fill="#ffffff" height="44" rx="16" ry="16" stroke="#ffffff" stroke-width="1" width="106" x="193" y="111"/>
<text font-family="Lucida Grande" font-size="13" x="198" y="124">
På indkøbsliste</text>
<polyline fill="none" points="40,46 40,134 192,134" stroke="#000000" stroke-width="1"/>
<line fill="#000000" stroke="#000000" stroke-width="1" x1="180" x2="192" y1="141" y2="134"/>
<line fill="#000000" stroke="#000000" stroke-width="1" x1="180" x2="192" y1="127" y2="134"/>
<text font-family="Lucida Grande" font-size="13" x="15" y="165">
Ingrediens tilføjet</text>
<ellipse cx="508" cy="146" fill="#000000" rx="12.0" ry="12.0" stroke="#000000" stroke-width="1"/>
<ellipse cx="508" cy="146" fill="#ffffff" rx="11.0" ry="11.0" stroke="#ffffff" stroke-width="1"/>
<ellipse cx="507" cy="145" fill="#000000" rx="7.5" ry="7.5" stroke="#000000" stroke-width="1"/>
<polyline fill="none" points="299,145 496,145" stroke="#000000" stroke-width="1"/>
<line fill="#000000" stroke="#000000" stroke-width="1" x1="484" x2="496" y1="152" y2="145"/>
<line fill="#000000" stroke="#000000" stroke-width="1" x1="484" x2="496" y1="138" y2="145"/>
<text font-family="Lucida Grande" font-size="13" x="327" y="136">
Indkøbsliste smidt ud</text>
<polyline fill="none" points="311,38 504,38 507,134" stroke="#000000" stroke-width="1"/>
<line fill="#000000" stroke="#000000" stroke-width="1" x1="499" x2="507" y1="122" y2="134"/>
<line fill="#000000" stroke="#000000" stroke-width="1" x1="513" x2="507" y1="121" y2="134"/>
<text font-family="Lucida Grande" font-size="13" x="355" y="30">
Opskrift smidt ud</text>
</svg>
