<?xml version="1.0" encoding="utf-8" ?>
<!DOCTYPE svg PUBLIC "-//W3C//DTD SVG 1.1//EN" "http://www.w3.org/Graphics/SVG/1.1/DTD/svg11.dtd">
<svg height="125" version="1.1" width="619" xmlns="http://www.w3.org/2000/svg">
<ellipse cx="22" cy="38" fill="#000000" rx="8.0" ry="8.0" stroke="#000000" stroke-width="1"/>
<rect fill="#00ff" height="46" rx="16" ry="16" stroke="#00ff" stroke-width="1" width="136" x="309" y="14"/>
<rect fill="#ffffff" height="46" rx="16" ry="16" stroke="#000000" stroke-width="1" width="136" x="309" y="14"/>
<rect fill="#ffffff" height="44" rx="16" ry="16" stroke="#ffffff" stroke-width="1" width="134" x="310" y="15"/>
<text font-family="Lucida Grande" font-size="13" x="346" y="28">
Eksisterer</text>
<polyline fill="none" points="31,38 309,38" stroke="#000000" stroke-width="1"/>
<line fill="#000000" stroke="#000000" stroke-width="1" x1="297" x2="309" y1="45" y2="38"/>
<line fill="#000000" stroke="#000000" stroke-width="1" x1="297" x2="309" y1="31" y2="38"/>
<text font-family="Lucida Grande" font-size="13" x="40" y="33">
Opskrift fundet(navn, information, kilde)</text>
<ellipse cx="593" cy="34" fill="#000000" rx="12.0" ry="12.0" stroke="#000000" stroke-width="1"/>
<ellipse cx="593" cy="34" fill="#ffffff" rx="11.0" ry="11.0" stroke="#ffffff" stroke-width="1"/>
<ellipse cx="592" cy="33" fill="#000000" rx="7.5" ry="7.5" stroke="#000000" stroke-width="1"/>
<polyline fill="none" points="444,34 581,34" stroke="#000000" stroke-width="1"/>
<line fill="#000000" stroke="#000000" stroke-width="1" x1="569" x2="581" y1="41" y2="34"/>
<line fill="#000000" stroke="#000000" stroke-width="1" x1="569" x2="581" y1="27" y2="34"/>
<text font-family="Lucida Grande" font-size="13" x="454" y="28">
Opskrift smidt ud</text>
<polyline fill="none" points="332,59 332,86 356,86 356,59" stroke="#000000" stroke-width="1"/>
<line fill="#000000" stroke="#000000" stroke-width="1" x1="363" x2="356" y1="71" y2="59"/>
<line fill="#000000" stroke="#000000" stroke-width="1" x1="349" x2="356" y1="71" y2="59"/>
<text font-family="Lucida Grande" font-size="13" x="66" y="107">
Skrevet på indkøbsliste(navn, enhed, mængde)</text>
<polyline fill="none" points="420,59 420,86 396,86 396,59" stroke="#000000" stroke-width="1"/>
<line fill="#000000" stroke="#000000" stroke-width="1" x1="403" x2="396" y1="71" y2="59"/>
<line fill="#000000" stroke="#000000" stroke-width="1" x1="389" x2="396" y1="71" y2="59"/>
<text font-family="Lucida Grande" font-size="13" x="393" y="107">
Fjernet fra indkøbsliste</text>
</svg>
