<?xml version="1.0" encoding="utf-8" ?>
<!DOCTYPE svg PUBLIC "-//W3C//DTD SVG 1.1//EN" "http://www.w3.org/Graphics/SVG/1.1/DTD/svg11.dtd">
<svg height="137" version="1.1" width="420" xmlns="http://www.w3.org/2000/svg">
<ellipse cx="22" cy="42" fill="#000000" rx="8.0" ry="8.0" stroke="#000000" stroke-width="1"/>
<rect fill="#00ff" height="46" rx="16" ry="16" stroke="#00ff" stroke-width="1" width="136" x="142" y="18"/>
<rect fill="#ffffff" height="46" rx="16" ry="16" stroke="#000000" stroke-width="1" width="136" x="142" y="18"/>
<rect fill="#ffffff" height="44" rx="16" ry="16" stroke="#ffffff" stroke-width="1" width="134" x="143" y="19"/>
<text font-family="Dialog" font-size="13" x="180" y="33">
Eksisterer</text>
<polyline fill="none" points="31,42 142,42" stroke="#000000" stroke-width="1"/>
<line fill="#000000" stroke="#000000" stroke-width="1" x1="130" x2="142" y1="49" y2="42"/>
<line fill="#000000" stroke="#000000" stroke-width="1" x1="130" x2="142" y1="35" y2="42"/>
<text font-family="Dialog" font-size="13" x="42" y="29">
Opskrift fundet</text>
<ellipse cx="394" cy="46" fill="#000000" rx="12.0" ry="12.0" stroke="#000000" stroke-width="1"/>
<ellipse cx="394" cy="46" fill="#ffffff" rx="11.0" ry="11.0" stroke="#ffffff" stroke-width="1"/>
<ellipse cx="393" cy="45" fill="#000000" rx="7.5" ry="7.5" stroke="#000000" stroke-width="1"/>
<polyline fill="none" points="277,45 382,45" stroke="#000000" stroke-width="1"/>
<line fill="#000000" stroke="#000000" stroke-width="1" x1="370" x2="382" y1="52" y2="45"/>
<line fill="#000000" stroke="#000000" stroke-width="1" x1="370" x2="382" y1="38" y2="45"/>
<text font-family="Dialog" font-size="13" x="284" y="29">
Opskrift smidt ud</text>
<polyline fill="none" points="158,63 158,90 190,90 190,63" stroke="#000000" stroke-width="1"/>
<line fill="#000000" stroke="#000000" stroke-width="1" x1="197" x2="190" y1="75" y2="63"/>
<line fill="#000000" stroke="#000000" stroke-width="1" x1="183" x2="190" y1="75" y2="63"/>
<text font-family="Dialog" font-size="13" x="87" y="118">
Ingrediens tilføjet</text>
<polyline fill="none" points="230,63 230,90 262,90 262,63" stroke="#000000" stroke-width="1"/>
<line fill="#000000" stroke="#000000" stroke-width="1" x1="269" x2="262" y1="75" y2="63"/>
<line fill="#000000" stroke="#000000" stroke-width="1" x1="255" x2="262" y1="75" y2="63"/>
<text font-family="Dialog" font-size="13" x="241" y="116">
Ingrediens fjernet</text>
</svg>
