<?xml version="1.0" encoding="utf-8" ?>
<!DOCTYPE svg PUBLIC "-//W3C//DTD SVG 1.1//EN" "http://www.w3.org/Graphics/SVG/1.1/DTD/svg11.dtd">
<svg height="146" version="1.1" width="671" xmlns="http://www.w3.org/2000/svg">
<ellipse cx="22" cy="76" fill="#000000" rx="8.0" ry="8.0" stroke="#000000" stroke-width="1"/>
<ellipse cx="634" cy="72" fill="#000000" rx="12.0" ry="12.0" stroke="#000000" stroke-width="1"/>
<ellipse cx="634" cy="72" fill="#ffffff" rx="11.0" ry="11.0" stroke="#ffffff" stroke-width="1"/>
<ellipse cx="633" cy="71" fill="#000000" rx="7.5" ry="7.5" stroke="#000000" stroke-width="1"/>
<rect fill="#00ff" height="40" rx="16" ry="16" stroke="#00ff" stroke-width="1" width="200" x="294" y="52"/>
<rect fill="#ffffff" height="40" rx="16" ry="16" stroke="#000000" stroke-width="1" width="200" x="294" y="52"/>
<rect fill="#ffffff" height="38" rx="16" ry="16" stroke="#ffffff" stroke-width="1" width="198" x="295" y="53"/>
<text font-family="Dialog" font-size="12" font-weight="bold" x="306" y="65">
Findes i opskriftssamlingen</text>
<polyline fill="none" points="310,52 310,36 342,36 342,52" stroke="#000000" stroke-width="1"/>
<line fill="#000000" stroke="#000000" stroke-width="1" x1="335" x2="342" y1="40" y2="52"/>
<line fill="#000000" stroke="#000000" stroke-width="1" x1="349" x2="342" y1="40" y2="52"/>
<text font-family="Dialog" font-size="12" x="252" y="27">
Bogmærke sat ind</text>
<polyline fill="none" points="310,91 310,108 342,108 342,91" stroke="#000000" stroke-width="1"/>
<line fill="#000000" stroke="#000000" stroke-width="1" x1="349" x2="342" y1="103" y2="91"/>
<line fill="#000000" stroke="#000000" stroke-width="1" x1="335" x2="342" y1="103" y2="91"/>
<text font-family="Dialog" font-size="12" x="248" y="128">
Bogmærke fjernet</text>
<polyline fill="none" points="493,71 622,71" stroke="#000000" stroke-width="1"/>
<line fill="#000000" stroke="#000000" stroke-width="1" x1="610" x2="622" y1="78" y2="71"/>
<line fill="#000000" stroke="#000000" stroke-width="1" x1="610" x2="622" y1="64" y2="71"/>
<text font-family="Dialog" font-size="12" x="508" y="65">
Opskrift smidt ud</text>
<polyline fill="none" points="414,52 414,36 446,36 446,52" stroke="#000000" stroke-width="1"/>
<line fill="#000000" stroke="#000000" stroke-width="1" x1="439" x2="446" y1="40" y2="52"/>
<line fill="#000000" stroke="#000000" stroke-width="1" x1="453" x2="446" y1="40" y2="52"/>
<text font-family="Dialog" font-size="12" x="385" y="27">
Skrevet på indkøbsliste(navn, mængde, enhed)</text>
<polyline fill="none" points="414,91 414,108 446,108 446,91" stroke="#000000" stroke-width="1"/>
<line fill="#000000" stroke="#000000" stroke-width="1" x1="453" x2="446" y1="103" y2="91"/>
<line fill="#000000" stroke="#000000" stroke-width="1" x1="439" x2="446" y1="103" y2="91"/>
<text font-family="Dialog" font-size="12" x="365" y="127">
Fejl fundet(beskrivelse)</text>
<polyline fill="none" points="30,76 294,76" stroke="#000000" stroke-width="1"/>
<line fill="#000000" stroke="#000000" stroke-width="1" x1="282" x2="294" y1="83" y2="76"/>
<line fill="#000000" stroke="#000000" stroke-width="1" x1="282" x2="294" y1="69" y2="76"/>
<text font-family="Dialog" font-size="12" x="47" y="71">
Opskrift fundet(navn, information, kilde)</text>
</svg>
