<?xml version="1.0" encoding="utf-8" ?>
<!DOCTYPE svg PUBLIC "-//W3C//DTD SVG 1.1//EN" "http://www.w3.org/Graphics/SVG/1.1/DTD/svg11.dtd">
<svg height="168" version="1.1" width="452" xmlns="http://www.w3.org/2000/svg">
<ellipse cx="22" cy="87" fill="#000000" rx="8.0" ry="8.0" stroke="#000000" stroke-width="1"/>
<ellipse cx="426" cy="83" fill="#000000" rx="12.0" ry="12.0" stroke="#000000" stroke-width="1"/>
<ellipse cx="426" cy="83" fill="#ffffff" rx="11.0" ry="11.0" stroke="#ffffff" stroke-width="1"/>
<ellipse cx="425" cy="82" fill="#000000" rx="7.5" ry="7.5" stroke="#000000" stroke-width="1"/>
<rect fill="#00ff" height="40" rx="16" ry="16" stroke="#00ff" stroke-width="1" width="201" x="118" y="63"/>
<rect fill="#ffffff" height="40" rx="16" ry="16" stroke="#000000" stroke-width="1" width="201" x="118" y="63"/>
<rect fill="#ffffff" height="38" rx="16" ry="16" stroke="#ffffff" stroke-width="1" width="199" x="119" y="64"/>
<text font-family="Dialog" font-size="12" font-weight="bold" x="140" y="77">
Findes i opskriftssamlingen</text>
<polyline fill="none" points="190,63 190,39 222,39 222,63" stroke="#000000" stroke-width="1"/>
<line fill="#000000" stroke="#000000" stroke-width="1" x1="215" x2="222" y1="51" y2="63"/>
<line fill="#000000" stroke="#000000" stroke-width="1" x1="229" x2="222" y1="51" y2="63"/>
<text font-family="Dialog" font-size="12" x="162" y="28">
Bogmærke tilføjet</text>
<polyline fill="none" points="190,102 190,127 222,127 222,102" stroke="#000000" stroke-width="1"/>
<line fill="#000000" stroke="#000000" stroke-width="1" x1="229" x2="222" y1="114" y2="102"/>
<line fill="#000000" stroke="#000000" stroke-width="1" x1="215" x2="222" y1="114" y2="102"/>
<text font-family="Dialog" font-size="12" x="161" y="150">
Bogmærke fjernet</text>
<polyline fill="none" points="30,87 118,87" stroke="#000000" stroke-width="1"/>
<line fill="#000000" stroke="#000000" stroke-width="1" x1="106" x2="118" y1="94" y2="87"/>
<line fill="#000000" stroke="#000000" stroke-width="1" x1="106" x2="118" y1="80" y2="87"/>
<text font-family="Dialog" font-size="12" x="35" y="73">
Opskrift fundet</text>
<polyline fill="none" points="318,83 414,83" stroke="#000000" stroke-width="1"/>
<line fill="#000000" stroke="#000000" stroke-width="1" x1="402" x2="414" y1="90" y2="83"/>
<line fill="#000000" stroke="#000000" stroke-width="1" x1="402" x2="414" y1="76" y2="83"/>
<text font-family="Dialog" font-size="12" x="326" y="71">
Opskrift fjernet</text>
</svg>
