<?xml version="1.0" encoding="utf-8" ?>
<!DOCTYPE svg PUBLIC "-//W3C//DTD SVG 1.1//EN" "http://www.w3.org/Graphics/SVG/1.1/DTD/svg11.dtd">
<svg height="147" version="1.1" width="620" xmlns="http://www.w3.org/2000/svg">
<ellipse cx="142" cy="77" fill="#000000" rx="8.0" ry="8.0" stroke="#000000" stroke-width="1"/>
<ellipse cx="594" cy="73" fill="#000000" rx="12.0" ry="12.0" stroke="#000000" stroke-width="1"/>
<ellipse cx="594" cy="73" fill="#ffffff" rx="11.0" ry="11.0" stroke="#ffffff" stroke-width="1"/>
<ellipse cx="593" cy="72" fill="#000000" rx="7.5" ry="7.5" stroke="#000000" stroke-width="1"/>
<rect fill="#00ff" height="40" rx="16" ry="16" stroke="#00ff" stroke-width="1" width="207" x="254" y="53"/>
<rect fill="#ffffff" height="40" rx="16" ry="16" stroke="#000000" stroke-width="1" width="207" x="254" y="53"/>
<rect fill="#ffffff" height="38" rx="16" ry="16" stroke="#ffffff" stroke-width="1" width="205" x="255" y="54"/>
<text font-family="Dialog" font-size="12" font-weight="bold" x="260" y="66">
Findes i opskriftssamlingen</text>
<polyline fill="none" points="270,53 270,37 302,37 302,53" stroke="#000000" stroke-width="1"/>
<line fill="#000000" stroke="#000000" stroke-width="1" x1="295" x2="302" y1="41" y2="53"/>
<line fill="#000000" stroke="#000000" stroke-width="1" x1="309" x2="302" y1="41" y2="53"/>
<text font-family="Dialog" font-size="12" x="207" y="28">
Bogmærke sat ind</text>
<polyline fill="none" points="270,92 270,109 302,109 302,92" stroke="#000000" stroke-width="1"/>
<line fill="#000000" stroke="#000000" stroke-width="1" x1="309" x2="302" y1="104" y2="92"/>
<line fill="#000000" stroke="#000000" stroke-width="1" x1="295" x2="302" y1="104" y2="92"/>
<text font-family="Dialog" font-size="12" x="203" y="129">
Bogmærke fjernet</text>
<polyline fill="none" points="460,72 582,72" stroke="#000000" stroke-width="1"/>
<line fill="#000000" stroke="#000000" stroke-width="1" x1="570" x2="582" y1="79" y2="72"/>
<line fill="#000000" stroke="#000000" stroke-width="1" x1="570" x2="582" y1="65" y2="72"/>
<text font-family="Dialog" font-size="12" x="463" y="67">
Opskrift smidt ud</text>
<polyline fill="none" points="374,53 374,37 406,37 406,53" stroke="#000000" stroke-width="1"/>
<line fill="#000000" stroke="#000000" stroke-width="1" x1="399" x2="406" y1="41" y2="53"/>
<line fill="#000000" stroke="#000000" stroke-width="1" x1="413" x2="406" y1="41" y2="53"/>
<text font-family="Dialog" font-size="12" x="336" y="27">
Skrevet på indkøbsliste</text>
<polyline fill="none" points="374,92 374,109 406,109 406,92" stroke="#000000" stroke-width="1"/>
<line fill="#000000" stroke="#000000" stroke-width="1" x1="413" x2="406" y1="104" y2="92"/>
<line fill="#000000" stroke="#000000" stroke-width="1" x1="399" x2="406" y1="104" y2="92"/>
<text font-family="Dialog" font-size="12" x="319" y="128">
Fejl fundet(beskrivelse)</text>
<polyline fill="none" points="150,77 254,77" stroke="#000000" stroke-width="1"/>
<line fill="#000000" stroke="#000000" stroke-width="1" x1="242" x2="254" y1="84" y2="77"/>
<line fill="#000000" stroke="#000000" stroke-width="1" x1="242" x2="254" y1="70" y2="77"/>
<text font-family="Dialog" font-size="12" x="151" y="71">
Opskrift fundet</text>
<rect fill="#ffffff" height="19" stroke="#ffffff" stroke-width="1" width="104" x="14" y="45"/>
<rect fill="none" height="18" stroke="#000000" stroke-width="1" width="103" x="14" y="45"/>
<text font-family="Dialog" font-size="12" font-weight="bold" x="37" y="59">
Opskrift</text>
<rect fill="#ffffff" height="64" stroke="#ffffff" stroke-width="1" width="104" x="14" y="64"/>
<rect fill="none" height="63" stroke="#000000" stroke-width="1" width="103" x="14" y="64"/>
<text font-family="Dialog" font-size="12" x="16" y="78">
name</text>
<text font-family="Dialog" font-size="12" x="16" y="93">
billede</text>
<text font-family="Dialog" font-size="12" x="16" y="108">
tilberedningstid</text>
<text font-family="Dialog" font-size="12" x="16" y="123">
kilde</text>
</svg>
