<?xml version="1.0" encoding="utf-8" ?>
<!DOCTYPE svg PUBLIC "-//W3C//DTD SVG 1.1//EN" "http://www.w3.org/Graphics/SVG/1.1/DTD/svg11.dtd">
<svg height="129" version="1.1" width="492" xmlns="http://www.w3.org/2000/svg">
<ellipse cx="22" cy="69" fill="#000000" rx="8.0" ry="8.0" stroke="#000000" stroke-width="1"/>
<ellipse cx="466" cy="65" fill="#000000" rx="12.0" ry="12.0" stroke="#000000" stroke-width="1"/>
<ellipse cx="466" cy="65" fill="#ffffff" rx="11.0" ry="11.0" stroke="#ffffff" stroke-width="1"/>
<ellipse cx="465" cy="64" fill="#000000" rx="7.5" ry="7.5" stroke="#000000" stroke-width="1"/>
<rect fill="#00ff" height="24" rx="16" ry="16" stroke="#00ff" stroke-width="1" width="187" x="142" y="53"/>
<rect fill="#ffffff" height="24" rx="16" ry="16" stroke="#000000" stroke-width="1" width="187" x="142" y="53"/>
<rect fill="#ffffff" height="22" rx="16" ry="16" stroke="#ffffff" stroke-width="1" width="185" x="143" y="54"/>
<text font-family="Dialog" font-size="12" font-weight="bold" x="148" y="66">
Findes i opskriftssamlingen</text>
<polyline fill="none" points="158,53 158,37 182,37 182,53" stroke="#000000" stroke-width="1"/>
<line fill="#000000" stroke="#000000" stroke-width="1" x1="175" x2="182" y1="41" y2="53"/>
<line fill="#000000" stroke="#000000" stroke-width="1" x1="189" x2="182" y1="41" y2="53"/>
<text font-family="Dialog" font-size="12" x="96" y="28">
Bogmærke sat ind</text>
<polyline fill="none" points="158,76 158,93 182,93 182,76" stroke="#000000" stroke-width="1"/>
<line fill="#000000" stroke="#000000" stroke-width="1" x1="189" x2="182" y1="88" y2="76"/>
<line fill="#000000" stroke="#000000" stroke-width="1" x1="175" x2="182" y1="88" y2="76"/>
<text font-family="Dialog" font-size="12" x="114" y="111">
Bogmærke fjernet</text>
<polyline fill="none" points="328,65 454,65" stroke="#000000" stroke-width="1"/>
<line fill="#000000" stroke="#000000" stroke-width="1" x1="442" x2="454" y1="72" y2="65"/>
<line fill="#000000" stroke="#000000" stroke-width="1" x1="442" x2="454" y1="58" y2="65"/>
<text font-family="Dialog" font-size="12" x="338" y="82">
Opskrift smidt ud</text>
<polyline fill="none" points="30,69 142,69" stroke="#000000" stroke-width="1"/>
<line fill="#000000" stroke="#000000" stroke-width="1" x1="130" x2="142" y1="76" y2="69"/>
<line fill="#000000" stroke="#000000" stroke-width="1" x1="130" x2="142" y1="62" y2="69"/>
<text font-family="Dialog" font-size="12" x="41" y="64">
Opskrift fundet</text>
<polyline fill="none" points="270,53 270,37 294,37 294,53" stroke="#000000" stroke-width="1"/>
<line fill="#000000" stroke="#000000" stroke-width="1" x1="287" x2="294" y1="41" y2="53"/>
<line fill="#000000" stroke="#000000" stroke-width="1" x1="301" x2="294" y1="41" y2="53"/>
<text font-family="Dialog" font-size="12" x="233" y="27">
Skrevet på indkøbsliste</text>
</svg>
