<?xml version="1.0" encoding="utf-8" ?>
<!DOCTYPE svg PUBLIC "-//W3C//DTD SVG 1.1//EN" "http://www.w3.org/Graphics/SVG/1.1/DTD/svg11.dtd">
<svg height="194" version="1.1" width="405" xmlns="http://www.w3.org/2000/svg">
<ellipse cx="22" cy="109" fill="#000000" rx="8.0" ry="8.0" stroke="#000000" stroke-width="1"/>
<rect fill="#00ff" height="32" rx="16" ry="16" stroke="#00ff" stroke-width="1" width="168" x="94" y="93"/>
<rect fill="#ffffff" height="32" rx="16" ry="16" stroke="#000000" stroke-width="1" width="168" x="94" y="93"/>
<rect fill="#ffffff" height="30" rx="16" ry="16" stroke="#ffffff" stroke-width="1" width="166" x="95" y="94"/>
<text font-family="Lucida Grande" font-size="13" x="161" y="107">
Aktiv</text>
<polyline fill="none" points="30,110 22,109 94,109" stroke="#000000" stroke-width="1"/>
<line fill="#000000" stroke="#000000" stroke-width="1" x1="82" x2="94" y1="116" y2="109"/>
<line fill="#000000" stroke="#000000" stroke-width="1" x1="82" x2="94" y1="102" y2="109"/>
<polyline fill="none" points="110,93 110,77 142,77 142,93" stroke="#000000" stroke-width="1"/>
<line fill="#000000" stroke="#000000" stroke-width="1" x1="135" x2="142" y1="81" y2="93"/>
<line fill="#000000" stroke="#000000" stroke-width="1" x1="149" x2="142" y1="81" y2="93"/>
<text font-family="Lucida Grande" font-size="13" x="37" y="69">
Bogmærke sat ind</text>
<polyline fill="none" points="126,124 126,141 150,141 150,124" stroke="#000000" stroke-width="1"/>
<line fill="#000000" stroke="#000000" stroke-width="1" x1="157" x2="150" y1="136" y2="124"/>
<line fill="#000000" stroke="#000000" stroke-width="1" x1="143" x2="150" y1="136" y2="124"/>
<text font-family="Lucida Grande" font-size="13" x="50" y="156">
Bogmærke fjernet</text>
<polyline fill="none" points="158,93 158,53 190,53 190,93" stroke="#000000" stroke-width="1"/>
<line fill="#000000" stroke="#000000" stroke-width="1" x1="183" x2="190" y1="81" y2="93"/>
<line fill="#000000" stroke="#000000" stroke-width="1" x1="197" x2="190" y1="81" y2="93"/>
<text font-family="Lucida Grande" font-size="13" x="200" y="72">
Fejl fundet</text>
<polyline fill="none" points="214,93 214,77 246,77 246,93" stroke="#000000" stroke-width="1"/>
<line fill="#000000" stroke="#000000" stroke-width="1" x1="239" x2="246" y1="81" y2="93"/>
<line fill="#000000" stroke="#000000" stroke-width="1" x1="253" x2="246" y1="81" y2="93"/>
<text font-family="Lucida Grande" font-size="13" x="97" y="28">
Skrevet på indkøbsliste</text>
<polyline fill="none" points="206,124 206,157 230,157 230,124" stroke="#000000" stroke-width="1"/>
<line fill="#000000" stroke="#000000" stroke-width="1" x1="237" x2="230" y1="136" y2="124"/>
<line fill="#000000" stroke="#000000" stroke-width="1" x1="223" x2="230" y1="136" y2="124"/>
<text font-family="Lucida Grande" font-size="13" x="143" y="176">
Fjernet fra indkøbsliste</text>
<polyline fill="none" points="261,101 286,101 286,117 261,117" stroke="#000000" stroke-width="1"/>
<line fill="#000000" stroke="#000000" stroke-width="1" x1="273" x2="261" y1="110" y2="117"/>
<line fill="#000000" stroke="#000000" stroke-width="1" x1="273" x2="261" y1="124" y2="117"/>
<text font-family="Lucida Grande" font-size="13" x="293" y="105">
Tilbagemelding</text>
<polyline fill="none" points="261,101 286,101 286,117 261,117" stroke="#000000" stroke-width="1"/>
<line fill="#000000" stroke="#000000" stroke-width="1" x1="273" x2="261" y1="110" y2="117"/>
<line fill="#000000" stroke="#000000" stroke-width="1" x1="273" x2="261" y1="124" y2="117"/>
<text font-family="Lucida Grande" font-size="13" x="295" y="122">
modtaget</text>
<polyline fill="none" points="158,93 158,53 190,53 190,93" stroke="#000000" stroke-width="1"/>
<line fill="#000000" stroke="#000000" stroke-width="1" x1="183" x2="190" y1="81" y2="93"/>
<line fill="#000000" stroke="#000000" stroke-width="1" x1="197" x2="190" y1="81" y2="93"/>
<text font-family="Lucida Grande" font-size="13" x="96" y="45">
.(navn, mængde, enhed)</text>
</svg>
