<?xml version="1.0" encoding="utf-8" ?>
<!DOCTYPE svg PUBLIC "-//W3C//DTD SVG 1.1//EN" "http://www.w3.org/Graphics/SVG/1.1/DTD/svg11.dtd">
<svg height="427" version="1.1" width="735" xmlns="http://www.w3.org/2000/svg">
<ellipse cx="22" cy="249" fill="#000000" rx="8.0" ry="8.0" stroke="#000000" stroke-width="1"/>
<rect fill="#00ff" height="32" rx="16" ry="16" stroke="#00ff" stroke-width="1" width="72" x="134" y="225"/>
<rect fill="#ffffff" height="32" rx="16" ry="16" stroke="#000000" stroke-width="1" width="72" x="134" y="225"/>
<rect fill="#ffffff" height="30" rx="16" ry="16" stroke="#ffffff" stroke-width="1" width="70" x="135" y="226"/>
<text font-family="Lucida Grande" font-size="13" x="148" y="239">
Inaktiv</text>
<polyline fill="none" points="31,249 134,249" stroke="#000000" stroke-width="1"/>
<line fill="#000000" stroke="#000000" stroke-width="1" x1="122" x2="134" y1="256" y2="249"/>
<line fill="#000000" stroke="#000000" stroke-width="1" x1="122" x2="134" y1="242" y2="249"/>
<rect fill="#00ff" height="24" rx="16" ry="16" stroke="#00ff" stroke-width="1" width="120" x="126" y="137"/>
<rect fill="#ffffff" height="24" rx="16" ry="16" stroke="#000000" stroke-width="1" width="120" x="126" y="137"/>
<rect fill="#ffffff" height="22" rx="16" ry="16" stroke="#ffffff" stroke-width="1" width="118" x="127" y="138"/>
<text font-family="Lucida Grande" font-size="13" x="139" y="151">
Søgning i gang</text>
<rect fill="#00ff" height="24" rx="16" ry="16" stroke="#00ff" stroke-width="1" width="236" x="54" y="337"/>
<rect fill="#ffffff" height="24" rx="16" ry="16" stroke="#000000" stroke-width="1" width="236" x="54" y="337"/>
<rect fill="#ffffff" height="22" rx="16" ry="16" stroke="#ffffff" stroke-width="1" width="234" x="55" y="338"/>
<text font-family="Lucida Grande" font-size="13" x="60" y="351">
Gennemgang af indkøbsliste i gang</text>
<polyline fill="none" points="173,256 173,337" stroke="#000000" stroke-width="1"/>
<line fill="#000000" stroke="#000000" stroke-width="1" x1="166" x2="173" y1="325" y2="337"/>
<line fill="#000000" stroke="#000000" stroke-width="1" x1="180" x2="173" y1="325" y2="337"/>
<text font-family="Lucida Grande" font-size="13" x="176" y="317">
Gennemgå indkøbsliste</text>
<rect fill="#00ff" height="24" rx="16" ry="16" stroke="#00ff" stroke-width="1" width="232" x="278" y="233"/>
<rect fill="#ffffff" height="24" rx="16" ry="16" stroke="#000000" stroke-width="1" width="232" x="278" y="233"/>
<rect fill="#ffffff" height="22" rx="16" ry="16" stroke="#ffffff" stroke-width="1" width="230" x="279" y="234"/>
<text font-family="Lucida Grande" font-size="13" x="285" y="247">
Gennemgang af bogmærker i gang</text>
<polyline fill="none" points="198,256 198,281 366,281 366,256" stroke="#000000" stroke-width="1"/>
<line fill="#000000" stroke="#000000" stroke-width="1" x1="373" x2="366" y1="268" y2="256"/>
<line fill="#000000" stroke="#000000" stroke-width="1" x1="359" x2="366" y1="268" y2="256"/>
<text font-family="Lucida Grande" font-size="13" x="208" y="275">
Gennemgå bogmærker</text>
<rect fill="#00ff" height="48" rx="16" ry="16" stroke="#00ff" stroke-width="1" width="136" x="398" y="73"/>
<rect fill="#ffffff" height="48" rx="16" ry="16" stroke="#000000" stroke-width="1" width="136" x="398" y="73"/>
<rect fill="#ffffff" height="46" rx="16" ry="16" stroke="#ffffff" stroke-width="1" width="134" x="399" y="74"/>
<text font-family="Lucida Grande" font-size="13" x="450" y="87">
Valgt</text>
<polyline fill="none" points="245,153 422,153 422,120" stroke="#000000" stroke-width="1"/>
<line fill="#000000" stroke="#000000" stroke-width="1" x1="429" x2="422" y1="132" y2="120"/>
<line fill="#000000" stroke="#000000" stroke-width="1" x1="415" x2="422" y1="132" y2="120"/>
<text font-family="Lucida Grande" font-size="13" x="264" y="168">
Opskrift valgt</text>
<polyline fill="none" points="533,113 582,113 582,353 289,353" stroke="#000000" stroke-width="1"/>
<line fill="#000000" stroke="#000000" stroke-width="1" x1="301" x2="289" y1="346" y2="353"/>
<line fill="#000000" stroke="#000000" stroke-width="1" x1="301" x2="289" y1="360" y2="353"/>
<text font-family="Lucida Grande" font-size="13" x="438" y="372">
Gennemgå indkøbsliste</text>
<polyline fill="none" points="150,337 150,256" stroke="#000000" stroke-width="1"/>
<line fill="#000000" stroke="#000000" stroke-width="1" x1="157" x2="150" y1="268" y2="256"/>
<line fill="#000000" stroke="#000000" stroke-width="1" x1="143" x2="150" y1="268" y2="256"/>
<text font-family="Lucida Grande" font-size="13" x="33" y="304">
Stop gennemgang</text>
<polyline fill="none" points="78,360 78,377 110,377 110,360" stroke="#000000" stroke-width="1"/>
<line fill="#000000" stroke="#000000" stroke-width="1" x1="117" x2="110" y1="372" y2="360"/>
<line fill="#000000" stroke="#000000" stroke-width="1" x1="103" x2="110" y1="372" y2="360"/>
<text font-family="Lucida Grande" font-size="13" x="21" y="393">
Skrevet på indkøbsliste</text>
<polyline fill="none" points="278,360 278,393 254,393 254,360" stroke="#000000" stroke-width="1"/>
<line fill="#000000" stroke="#000000" stroke-width="1" x1="261" x2="254" y1="372" y2="360"/>
<line fill="#000000" stroke="#000000" stroke-width="1" x1="247" x2="254" y1="372" y2="360"/>
<text font-family="Lucida Grande" font-size="13" x="191" y="409">
Fjernet fra indkøbsliste</text>
<polyline fill="none" points="310,233 310,201 190,201 190,225" stroke="#000000" stroke-width="1"/>
<line fill="#000000" stroke="#000000" stroke-width="1" x1="183" x2="190" y1="213" y2="225"/>
<line fill="#000000" stroke="#000000" stroke-width="1" x1="197" x2="190" y1="213" y2="225"/>
<text font-family="Lucida Grande" font-size="13" x="201" y="194">
Stop gennemgang</text>
<polyline fill="none" points="478,233 478,120" stroke="#000000" stroke-width="1"/>
<line fill="#000000" stroke="#000000" stroke-width="1" x1="485" x2="478" y1="132" y2="120"/>
<line fill="#000000" stroke="#000000" stroke-width="1" x1="471" x2="478" y1="132" y2="120"/>
<text font-family="Lucida Grande" font-size="13" x="480" y="180">
Opskrift valgt</text>
<polyline fill="none" points="454,120 454,233" stroke="#000000" stroke-width="1"/>
<line fill="#000000" stroke="#000000" stroke-width="1" x1="447" x2="454" y1="221" y2="233"/>
<line fill="#000000" stroke="#000000" stroke-width="1" x1="461" x2="454" y1="221" y2="233"/>
<text font-family="Lucida Grande" font-size="13" x="350" y="194">
Ny gennemgang</text>
<polyline fill="none" points="406,73 406,57 430,57 430,73" stroke="#000000" stroke-width="1"/>
<line fill="#000000" stroke="#000000" stroke-width="1" x1="423" x2="430" y1="61" y2="73"/>
<line fill="#000000" stroke="#000000" stroke-width="1" x1="437" x2="430" y1="61" y2="73"/>
<text font-family="Lucida Grande" font-size="13" x="327" y="52">
Bogmærke sat ind</text>
<polyline fill="none" points="454,73 454,41 486,41 486,73" stroke="#000000" stroke-width="1"/>
<line fill="#000000" stroke="#000000" stroke-width="1" x1="479" x2="486" y1="61" y2="73"/>
<line fill="#000000" stroke="#000000" stroke-width="1" x1="493" x2="486" y1="61" y2="73"/>
<text font-family="Lucida Grande" font-size="13" x="413" y="28">
Bogmærke fjernet</text>
<polyline fill="none" points="510,73 510,57 526,57 526,73" stroke="#000000" stroke-width="1"/>
<line fill="#000000" stroke="#000000" stroke-width="1" x1="519" x2="526" y1="61" y2="73"/>
<line fill="#000000" stroke="#000000" stroke-width="1" x1="533" x2="526" y1="61" y2="73"/>
<text font-family="Lucida Grande" font-size="13" x="498" y="49">
Fejl fundet</text>
<polyline fill="none" points="533,105 566,105 566,89 533,89" stroke="#000000" stroke-width="1"/>
<line fill="#000000" stroke="#000000" stroke-width="1" x1="545" x2="533" y1="82" y2="89"/>
<line fill="#000000" stroke="#000000" stroke-width="1" x1="545" x2="533" y1="96" y2="89"/>
<text font-family="Lucida Grande" font-size="13" x="569" y="86">
Skrevet på indkøbsliste</text>
<polyline fill="none" points="398,89 14,89 14,233 134,233" stroke="#000000" stroke-width="1"/>
<line fill="#000000" stroke="#000000" stroke-width="1" x1="122" x2="134" y1="240" y2="233"/>
<line fill="#000000" stroke="#000000" stroke-width="1" x1="122" x2="134" y1="226" y2="233"/>
<text font-family="Lucida Grande" font-size="13" x="50" y="83">
Færdig med opskrift</text>
<polyline fill="none" points="398,113 214,113 214,137" stroke="#000000" stroke-width="1"/>
<line fill="#000000" stroke="#000000" stroke-width="1" x1="207" x2="214" y1="125" y2="137"/>
<line fill="#000000" stroke="#000000" stroke-width="1" x1="221" x2="214" y1="125" y2="137"/>
<text font-family="Lucida Grande" font-size="13" x="233" y="128">
Udfør ny søgning</text>
<polyline fill="none" points="158,225 158,160" stroke="#000000" stroke-width="1"/>
<line fill="#000000" stroke="#000000" stroke-width="1" x1="165" x2="158" y1="172" y2="160"/>
<line fill="#000000" stroke="#000000" stroke-width="1" x1="151" x2="158" y1="172" y2="160"/>
<text font-family="Lucida Grande" font-size="13" x="35" y="198">
Søgning påbegyndt</text>
<polyline fill="none" points="533,105 566,105 566,89 533,89" stroke="#000000" stroke-width="1"/>
<line fill="#000000" stroke="#000000" stroke-width="1" x1="545" x2="533" y1="82" y2="89"/>
<line fill="#000000" stroke="#000000" stroke-width="1" x1="545" x2="533" y1="96" y2="89"/>
<text font-family="Lucida Grande" font-size="13" x="570" y="101">
.(navn, mængde, enhed)</text>
<polyline fill="none" points="78,360 78,377 110,377 110,360" stroke="#000000" stroke-width="1"/>
<line fill="#000000" stroke="#000000" stroke-width="1" x1="117" x2="110" y1="372" y2="360"/>
<line fill="#000000" stroke="#000000" stroke-width="1" x1="103" x2="110" y1="372" y2="360"/>
<text font-family="Lucida Grande" font-size="13" x="21" y="409">
.(navn, mængde, enhed)</text>
</svg>
