<?xml version="1.0" encoding="utf-8" ?>
<!DOCTYPE svg PUBLIC "-//W3C//DTD SVG 1.1//EN" "http://www.w3.org/Graphics/SVG/1.1/DTD/svg11.dtd">
<svg height="133" version="1.1" width="266" xmlns="http://www.w3.org/2000/svg">
<ellipse cx="22" cy="65" fill="#000000" rx="8.0" ry="8.0" stroke="#000000" stroke-width="1"/>
<rect fill="#00ff" height="32" rx="16" ry="16" stroke="#00ff" stroke-width="1" width="74" x="86" y="49"/>
<rect fill="#ffffff" height="32" rx="16" ry="16" stroke="#000000" stroke-width="1" width="74" x="86" y="49"/>
<rect fill="#ffffff" height="30" rx="16" ry="16" stroke="#ffffff" stroke-width="1" width="72" x="87" y="50"/>
<text font-family="Dialog" font-size="12" font-weight="bold" x="92" y="62">
Eksisterer</text>
<polyline fill="none" points="30,65 86,65" stroke="#000000" stroke-width="1"/>
<line fill="#000000" stroke="#000000" stroke-width="1" x1="74" x2="86" y1="72" y2="65"/>
<line fill="#000000" stroke="#000000" stroke-width="1" x1="74" x2="86" y1="58" y2="65"/>
<rect fill="#00ff" height="32" rx="16" ry="16" stroke="#00ff" stroke-width="1" width="64" x="188" y="49"/>
<rect fill="#ffffff" height="32" rx="16" ry="16" stroke="#000000" stroke-width="1" width="64" x="188" y="49"/>
<rect fill="#ffffff" height="30" rx="16" ry="16" stroke="#ffffff" stroke-width="1" width="62" x="189" y="50"/>
<text font-family="Dialog" font-size="12" font-weight="bold" x="195" y="62">
Brugbar</text>
<polyline fill="none" points="126,49 126,33 214,33 214,49" stroke="#000000" stroke-width="1"/>
<line fill="#000000" stroke="#000000" stroke-width="1" x1="207" x2="214" y1="37" y2="49"/>
<line fill="#000000" stroke="#000000" stroke-width="1" x1="221" x2="214" y1="37" y2="49"/>
<text font-family="Dialog" font-size="12" x="135" y="27">
Råvare købt</text>
<polyline fill="none" points="212,80 212,97 124,97 124,80" stroke="#000000" stroke-width="1"/>
<line fill="#000000" stroke="#000000" stroke-width="1" x1="131" x2="124" y1="92" y2="80"/>
<line fill="#000000" stroke="#000000" stroke-width="1" x1="117" x2="124" y1="92" y2="80"/>
<text font-family="Dialog" font-size="12" x="128" y="115">
Råvare opbrugt</text>
</svg>
