<?xml version="1.0" encoding="utf-8" ?>
<!DOCTYPE svg PUBLIC "-//W3C//DTD SVG 1.1//EN" "http://www.w3.org/Graphics/SVG/1.1/DTD/svg11.dtd">
<svg height="104" version="1.1" width="652" xmlns="http://www.w3.org/2000/svg">
<ellipse cx="118" cy="54" fill="#000000" rx="8.0" ry="8.0" stroke="#000000" stroke-width="1"/>
<rect fill="#00ff" height="50" rx="16" ry="16" stroke="#00ff" stroke-width="1" width="136" x="302" y="30"/>
<rect fill="#ffffff" height="50" rx="16" ry="16" stroke="#000000" stroke-width="1" width="136" x="302" y="30"/>
<rect fill="#ffffff" height="48" rx="16" ry="16" stroke="#ffffff" stroke-width="1" width="134" x="303" y="31"/>
<text font-family="Dialog" font-size="13" x="338" y="44">
Eksisterer</text>
<polyline fill="none" points="127,54 302,54" stroke="#000000" stroke-width="1"/>
<line fill="#000000" stroke="#000000" stroke-width="1" x1="290" x2="302" y1="61" y2="54"/>
<line fill="#000000" stroke="#000000" stroke-width="1" x1="290" x2="302" y1="47" y2="54"/>
<text font-family="Dialog" font-size="13" x="139" y="47">
Skrevet på indkøbsliste</text>
<ellipse cx="626" cy="58" fill="#000000" rx="12.0" ry="12.0" stroke="#000000" stroke-width="1"/>
<ellipse cx="626" cy="58" fill="#ffffff" rx="11.0" ry="11.0" stroke="#ffffff" stroke-width="1"/>
<ellipse cx="625" cy="57" fill="#000000" rx="7.5" ry="7.5" stroke="#000000" stroke-width="1"/>
<polyline fill="none" points="437,57 614,57" stroke="#000000" stroke-width="1"/>
<line fill="#000000" stroke="#000000" stroke-width="1" x1="602" x2="614" y1="64" y2="57"/>
<line fill="#000000" stroke="#000000" stroke-width="1" x1="602" x2="614" y1="50" y2="57"/>
<text font-family="Dialog" font-size="13" x="451" y="51">
Fjernet fra indkøbsliste</text>
<rect fill="#ffffff" height="21" stroke="#ffffff" stroke-width="1" width="80" x="14" y="14"/>
<rect fill="none" height="20" stroke="#000000" stroke-width="1" width="79" x="14" y="14"/>
<text font-family="Dialog" font-size="13" font-weight="bold" x="37" y="29">
Vare</text>
<rect fill="#ffffff" height="55" stroke="#ffffff" stroke-width="1" width="80" x="14" y="35"/>
<rect fill="none" height="54" stroke="#000000" stroke-width="1" width="79" x="14" y="35"/>
<text font-family="Dialog" font-size="13" x="16" y="50">
navn</text>
<text font-family="Dialog" font-size="13" x="16" y="67">
mængde</text>
<text font-family="Dialog" font-size="13" x="16" y="84">
enhed</text>
</svg>
