<?xml version="1.0" encoding="utf-8" ?>
<!DOCTYPE svg PUBLIC "-//W3C//DTD SVG 1.1//EN" "http://www.w3.org/Graphics/SVG/1.1/DTD/svg11.dtd">
<svg height="306" version="1.1" width="323" xmlns="http://www.w3.org/2000/svg">
<rect fill="#ffffff" height="25" stroke="#ffffff" stroke-width="1" width="70" x="184" y="171"/>
<rect fill="none" height="25" stroke="#000000" stroke-width="1" width="70" x="184" y="171"/>
<text font-family="Dialog" font-size="12" x="189" y="184">
Ingrediens</text>
<rect fill="#ffffff" height="25" stroke="#ffffff" stroke-width="1" width="66" x="184" y="267"/>
<rect fill="none" height="25" stroke="#000000" stroke-width="1" width="66" x="184" y="267"/>
<text font-family="Dialog" font-size="12" x="197" y="280">
Råvare</text>
<rect fill="#ffffff" height="25" stroke="#ffffff" stroke-width="1" width="66" x="40" y="123"/>
<rect fill="none" height="25" stroke="#000000" stroke-width="1" width="66" x="40" y="123"/>
<text font-family="Dialog" font-size="12" x="50" y="136">
Opskrift</text>
<rect fill="#ffffff" height="25" stroke="#ffffff" stroke-width="1" width="80" x="179" y="27"/>
<rect fill="none" height="25" stroke="#000000" stroke-width="1" width="80" x="179" y="27"/>
<text font-family="Dialog" font-size="12" x="184" y="40">
Indkøbsliste</text>
<polyline fill="none" points="216,195 216,267" stroke="#000000" stroke-width="1"/>
<polygon fill="#ffffff" points="216,195 221,205 216,215 211,205" stroke="#ffffff" stroke-width="1"/>
<polygon fill="none" points="216,195 221,205 216,215 211,205" stroke="#000000" stroke-width="1"/>
<text font-family="Dialog" font-size="12" x="193" y="255">
1</text>
<text font-family="Dialog" font-size="12" x="186" y="228">
0..*</text>
<polyline fill="none" points="72,147 72,187 184,187" stroke="#000000" stroke-width="1"/>
<polygon fill="#ffffff" points="72,147 77,157 72,167 67,157" stroke="#ffffff" stroke-width="1"/>
<polygon fill="none" points="72,147 77,157 72,167 67,157" stroke="#000000" stroke-width="1"/>
<text font-family="Dialog" font-size="12" x="68" y="201">
0..*</text>
<text font-family="Dialog" font-size="12" x="149" y="207">
1..*</text>
<polyline fill="none" points="216,51 216,171" stroke="#000000" stroke-width="1"/>
<polygon fill="#ffffff" points="216,51 221,61 216,71 211,61" stroke="#ffffff" stroke-width="1"/>
<polygon fill="none" points="216,51 221,61 216,71 211,61" stroke="#000000" stroke-width="1"/>
<text font-family="Dialog" font-size="12" x="185" y="79">
0..1</text>
<text font-family="Dialog" font-size="12" x="185" y="153">
0..*</text>
<rect fill="#ffffff" height="25" stroke="#ffffff" stroke-width="1" width="71" x="40" y="27"/>
<rect fill="none" height="25" stroke="#000000" stroke-width="1" width="71" x="40" y="27"/>
<text font-family="Dialog" font-size="12" x="45" y="40">
Bogmærke</text>
<polyline fill="none" points="80,51 80,123" stroke="#000000" stroke-width="1"/>
<text font-family="Dialog" font-size="12" x="59" y="92">
1</text>
<text font-family="Dialog" font-size="12" x="50" y="113">
0..*</text>
</svg>
