<?xml version="1.0" encoding="utf-8" ?>
<!DOCTYPE svg PUBLIC "-//W3C//DTD SVG 1.1//EN" "http://www.w3.org/Graphics/SVG/1.1/DTD/svg11.dtd">
<svg height="604" version="1.1" width="599" xmlns="http://www.w3.org/2000/svg">
<rect fill="#ffffff" height="144" stroke="#ffffff" stroke-width="1" width="177" x="17" y="190"/>
<rect fill="none" height="144" stroke="#000000" stroke-width="1" width="177" x="17" y="190"/>
<text font-family="DejaVu Sans" font-size="12" font-weight="bold" x="85" y="203">
users</text>
<rect fill="#000000" height="1" stroke="#000000" stroke-width="1" width="177" x="17" y="213"/>
<text font-family="DejaVu Sans" font-size="12" x="21" y="227">
id : integer</text>
<text font-family="DejaVu Sans" font-size="12" x="21" y="243">
name : string</text>
<text font-family="DejaVu Sans" font-size="12" x="21" y="259">
email : string</text>
<text font-family="DejaVu Sans" font-size="12" x="21" y="275">
password_digest : string</text>
<text font-family="DejaVu Sans" font-size="12" x="21" y="291">
created_at : date</text>
<text font-family="DejaVu Sans" font-size="12" x="21" y="307">
updated_at : date</text>
<text font-family="DejaVu Sans" font-size="12" x="21" y="323">
admin : bool</text>
<rect fill="#ffffff" height="64" stroke="#ffffff" stroke-width="1" width="128" x="257" y="190"/>
<rect fill="none" height="64" stroke="#000000" stroke-width="1" width="128" x="257" y="190"/>
<text font-family="DejaVu Sans" font-size="12" font-weight="bold" x="272" y="203">
users_recipes</text>
<rect fill="#000000" height="1" stroke="#000000" stroke-width="1" width="128" x="257" y="213"/>
<text font-family="DejaVu Sans" font-size="12" x="261" y="227">
user_id : integer</text>
<text font-family="DejaVu Sans" font-size="12" x="261" y="243">
recipe_id : integer</text>
<rect fill="#ffffff" height="160" stroke="#ffffff" stroke-width="1" width="144" x="441" y="190"/>
<rect fill="none" height="160" stroke="#000000" stroke-width="1" width="144" x="441" y="190"/>
<text font-family="DejaVu Sans" font-size="12" font-weight="bold" x="487" y="203">
recipes</text>
<rect fill="#000000" height="1" stroke="#000000" stroke-width="1" width="144" x="441" y="213"/>
<text font-family="DejaVu Sans" font-size="12" x="445" y="227">
id : integer</text>
<text font-family="DejaVu Sans" font-size="12" x="445" y="243">
name : string</text>
<text font-family="DejaVu Sans" font-size="12" x="445" y="259">
url : text</text>
<text font-family="DejaVu Sans" font-size="12" x="445" y="275">
picture : binary</text>
<text font-family="DejaVu Sans" font-size="12" x="445" y="291">
rating : integer</text>
<text font-family="DejaVu Sans" font-size="12" x="445" y="307">
created_at : date</text>
<text font-family="DejaVu Sans" font-size="12" x="445" y="323">
updated_at : date</text>
<text font-family="DejaVu Sans" font-size="12" x="445" y="339">
prep_time : integer</text>
<rect fill="#ffffff" height="160" stroke="#ffffff" stroke-width="1" width="176" x="17" y="398"/>
<rect fill="none" height="160" stroke="#000000" stroke-width="1" width="176" x="17" y="398"/>
<text font-family="DejaVu Sans" font-size="12" font-weight="bold" x="71" y="411">
list_items</text>
<rect fill="#000000" height="1" stroke="#000000" stroke-width="1" width="176" x="17" y="421"/>
<text font-family="DejaVu Sans" font-size="12" x="21" y="435">
id : integer</text>
<text font-family="DejaVu Sans" font-size="12" x="21" y="451">
quantity : float</text>
<text font-family="DejaVu Sans" font-size="12" x="21" y="467">
name : string</text>
<text font-family="DejaVu Sans" font-size="12" x="21" y="483">
unit : string</text>
<text font-family="DejaVu Sans" font-size="12" x="21" y="499">
user_id : integer</text>
<text font-family="DejaVu Sans" font-size="12" x="21" y="515">
food_type_id : integer</text>
<text font-family="DejaVu Sans" font-size="12" x="21" y="531">
created_at : date</text>
<text font-family="DejaVu Sans" font-size="12" x="21" y="547">
updated_at : date</text>
<rect fill="#ffffff" height="192" stroke="#ffffff" stroke-width="1" width="144" x="441" y="398"/>
<rect fill="none" height="192" stroke="#000000" stroke-width="1" width="144" x="441" y="398"/>
<text font-family="DejaVu Sans" font-size="12" font-weight="bold" x="472" y="411">
ingredients</text>
<rect fill="#000000" height="1" stroke="#000000" stroke-width="1" width="144" x="441" y="421"/>
<text font-family="DejaVu Sans" font-size="12" x="445" y="435">
id : integer</text>
<text font-family="DejaVu Sans" font-size="12" x="445" y="451">
quantity : float</text>
<text font-family="DejaVu Sans" font-size="12" x="445" y="467">
unit : string</text>
<text font-family="DejaVu Sans" font-size="12" x="445" y="483">
name : string</text>
<text font-family="DejaVu Sans" font-size="12" x="445" y="499">
food_type_id : integer</text>
<text font-family="DejaVu Sans" font-size="12" x="445" y="515">
recipe_id : integer</text>
<text font-family="DejaVu Sans" font-size="12" x="445" y="531">
match : integer</text>
<text font-family="DejaVu Sans" font-size="12" x="445" y="547">
original : string</text>
<text font-family="DejaVu Sans" font-size="12" x="445" y="563">
created_at : date</text>
<text font-family="DejaVu Sans" font-size="12" x="445" y="579">
updated_at : date</text>
<rect fill="#ffffff" height="96" stroke="#ffffff" stroke-width="1" width="120" x="257" y="398"/>
<rect fill="none" height="96" stroke="#000000" stroke-width="1" width="120" x="257" y="398"/>
<text font-family="DejaVu Sans" font-size="12" font-weight="bold" x="278" y="411">
food_types</text>
<rect fill="#000000" height="1" stroke="#000000" stroke-width="1" width="120" x="257" y="421"/>
<text font-family="DejaVu Sans" font-size="12" x="261" y="435">
id : integer</text>
<text font-family="DejaVu Sans" font-size="12" x="261" y="451">
name : string</text>
<text font-family="DejaVu Sans" font-size="12" x="261" y="467">
created_at : date</text>
<text font-family="DejaVu Sans" font-size="12" x="261" y="483">
updated_at : date</text>
<polyline fill="none" points="257,230 193,230" stroke="#000000" stroke-width="1"/>
<line fill="#000000" stroke="#000000" stroke-width="1" x1="205" x2="193" y1="223" y2="230"/>
<line fill="#000000" stroke="#000000" stroke-width="1" x1="205" x2="193" y1="237" y2="230"/>
<text font-family="DejaVu Sans" font-size="12" x="233" y="245">
0..*</text>
<text font-family="DejaVu Sans" font-size="12" x="196" y="245">
1</text>
<polyline fill="none" points="384,230 441,230" stroke="#000000" stroke-width="1"/>
<line fill="#000000" stroke="#000000" stroke-width="1" x1="429" x2="441" y1="237" y2="230"/>
<line fill="#000000" stroke="#000000" stroke-width="1" x1="429" x2="441" y1="223" y2="230"/>
<text font-family="DejaVu Sans" font-size="12" x="387" y="247">
0..*</text>
<text font-family="DejaVu Sans" font-size="12" x="432" y="247">
1</text>
<polyline fill="none" points="441,462 376,462" stroke="#000000" stroke-width="1"/>
<line fill="#000000" stroke="#000000" stroke-width="1" x1="388" x2="376" y1="455" y2="462"/>
<line fill="#000000" stroke="#000000" stroke-width="1" x1="388" x2="376" y1="469" y2="462"/>
<text font-family="DejaVu Sans" font-size="12" x="416" y="480">
0..*</text>
<text font-family="DejaVu Sans" font-size="12" x="379" y="480">
1</text>
<polyline fill="none" points="505,398 505,349" stroke="#000000" stroke-width="1"/>
<line fill="#000000" stroke="#000000" stroke-width="1" x1="512" x2="505" y1="361" y2="349"/>
<line fill="#000000" stroke="#000000" stroke-width="1" x1="498" x2="505" y1="361" y2="349"/>
<text font-family="DejaVu Sans" font-size="12" x="515" y="392">
0..*</text>
<text font-family="DejaVu Sans" font-size="12" x="519" y="365">
1</text>
<polyline fill="none" points="192,462 257,462" stroke="#000000" stroke-width="1"/>
<line fill="#000000" stroke="#000000" stroke-width="1" x1="245" x2="257" y1="469" y2="462"/>
<line fill="#000000" stroke="#000000" stroke-width="1" x1="245" x2="257" y1="455" y2="462"/>
<text font-family="DejaVu Sans" font-size="12" x="197" y="478">
0..*</text>
<text font-family="DejaVu Sans" font-size="12" x="246" y="480">
1</text>
<polyline fill="none" points="105,398 105,333" stroke="#000000" stroke-width="1"/>
<line fill="#000000" stroke="#000000" stroke-width="1" x1="112" x2="105" y1="345" y2="333"/>
<line fill="#000000" stroke="#000000" stroke-width="1" x1="98" x2="105" y1="345" y2="333"/>
<text font-family="DejaVu Sans" font-size="12" x="113" y="391">
0..*</text>
<text font-family="DejaVu Sans" font-size="12" x="119" y="353">
1</text>
<rect fill="#ffffff" height="128" stroke="#ffffff" stroke-width="1" width="176" x="17" y="14"/>
<rect fill="none" height="128" stroke="#000000" stroke-width="1" width="176" x="17" y="14"/>
<text font-family="DejaVu Sans" font-size="12" font-weight="bold" x="82" y="27">
issues</text>
<rect fill="#000000" height="1" stroke="#000000" stroke-width="1" width="176" x="17" y="37"/>
<text font-family="DejaVu Sans" font-size="12" x="21" y="51">
id : integer</text>
<text font-family="DejaVu Sans" font-size="12" x="21" y="67">
description : text</text>
<text font-family="DejaVu Sans" font-size="12" x="21" y="83">
issue_category_id : integer</text>
<text font-family="DejaVu Sans" font-size="12" x="21" y="99">
user_id : integer</text>
<text font-family="DejaVu Sans" font-size="12" x="21" y="115">
created_at : date</text>
<text font-family="DejaVu Sans" font-size="12" x="21" y="131">
updated_at : date</text>
<rect fill="#ffffff" height="112" stroke="#ffffff" stroke-width="1" width="128" x="257" y="14"/>
<rect fill="none" height="112" stroke="#000000" stroke-width="1" width="128" x="257" y="14"/>
<text font-family="DejaVu Sans" font-size="12" font-weight="bold" x="261" y="27">
issue_categories</text>
<rect fill="#000000" height="1" stroke="#000000" stroke-width="1" width="128" x="257" y="37"/>
<text font-family="DejaVu Sans" font-size="12" x="261" y="51">
id : integer</text>
<text font-family="DejaVu Sans" font-size="12" x="261" y="67">
name : string</text>
<text font-family="DejaVu Sans" font-size="12" x="261" y="83">
describable : bool</text>
<text font-family="DejaVu Sans" font-size="12" x="261" y="99">
created_at : date</text>
<text font-family="DejaVu Sans" font-size="12" x="261" y="115">
updated_at : date</text>
<polyline fill="none" points="105,141 105,190" stroke="#000000" stroke-width="1"/>
<line fill="#000000" stroke="#000000" stroke-width="1" x1="98" x2="105" y1="178" y2="190"/>
<line fill="#000000" stroke="#000000" stroke-width="1" x1="112" x2="105" y1="178" y2="190"/>
<text font-family="DejaVu Sans" font-size="12" x="77" y="158">
0..*</text>
<text font-family="DejaVu Sans" font-size="12" x="83" y="179">
1</text>
<polyline fill="none" points="192,78 257,78" stroke="#000000" stroke-width="1"/>
<line fill="#000000" stroke="#000000" stroke-width="1" x1="245" x2="257" y1="85" y2="78"/>
<line fill="#000000" stroke="#000000" stroke-width="1" x1="245" x2="257" y1="71" y2="78"/>
<text font-family="DejaVu Sans" font-size="12" x="195" y="72">
0..*</text>
<text font-family="DejaVu Sans" font-size="12" x="250" y="73">
1</text>
<rect fill="#ffffff" height="112" stroke="#ffffff" stroke-width="1" width="144" x="441" y="14"/>
<rect fill="none" height="112" stroke="#000000" stroke-width="1" width="144" x="441" y="14"/>
<text font-family="DejaVu Sans" font-size="12" font-weight="bold" x="481" y="27">
sessions</text>
<rect fill="#000000" height="1" stroke="#000000" stroke-width="1" width="144" x="441" y="37"/>
<text font-family="DejaVu Sans" font-size="12" x="445" y="51">
id : integer</text>
<text font-family="DejaVu Sans" font-size="12" x="445" y="67">
session_id : string</text>
<text font-family="DejaVu Sans" font-size="12" x="445" y="83">
data : text</text>
<text font-family="DejaVu Sans" font-size="12" x="445" y="99">
created_at : date</text>
<text font-family="DejaVu Sans" font-size="12" x="445" y="115">
updated_at : date</text>
</svg>
