<?xml version="1.0" encoding="utf-8" ?>
<!DOCTYPE svg PUBLIC "-//W3C//DTD SVG 1.1//EN" "http://www.w3.org/Graphics/SVG/1.1/DTD/svg11.dtd">
<svg height="492" version="1.1" width="599" xmlns="http://www.w3.org/2000/svg">
<rect fill="#ffffff" height="112" stroke="#ffffff" stroke-width="1" width="176" x="17" y="150"/>
<rect fill="none" height="112" stroke="#000000" stroke-width="1" width="176" x="17" y="150"/>
<text font-family="DejaVu Sans" font-size="12" font-weight="bold" x="85" y="163">
users</text>
<rect fill="#000000" height="1" stroke="#000000" stroke-width="1" width="176" x="17" y="173"/>
<text font-family="DejaVu Sans" font-size="12" x="21" y="187">
id : integer</text>
<text font-family="DejaVu Sans" font-size="12" x="21" y="203">
name : string</text>
<text font-family="DejaVu Sans" font-size="12" x="21" y="219">
email : string</text>
<text font-family="DejaVu Sans" font-size="12" x="21" y="235">
password_digest : string</text>
<text font-family="DejaVu Sans" font-size="12" x="21" y="251">
admin : bool</text>
<rect fill="#ffffff" height="64" stroke="#ffffff" stroke-width="1" width="128" x="257" y="150"/>
<rect fill="none" height="64" stroke="#000000" stroke-width="1" width="128" x="257" y="150"/>
<text font-family="DejaVu Sans" font-size="12" font-weight="bold" x="272" y="163">
users_recipes</text>
<rect fill="#000000" height="1" stroke="#000000" stroke-width="1" width="128" x="257" y="173"/>
<text font-family="DejaVu Sans" font-size="12" x="261" y="187">
user_id : integer</text>
<text font-family="DejaVu Sans" font-size="12" x="261" y="203">
recipe_id : integer</text>
<rect fill="#ffffff" height="128" stroke="#ffffff" stroke-width="1" width="144" x="441" y="150"/>
<rect fill="none" height="128" stroke="#000000" stroke-width="1" width="144" x="441" y="150"/>
<text font-family="DejaVu Sans" font-size="12" font-weight="bold" x="487" y="163">
recipes</text>
<rect fill="#000000" height="1" stroke="#000000" stroke-width="1" width="144" x="441" y="173"/>
<text font-family="DejaVu Sans" font-size="12" x="445" y="187">
id : integer</text>
<text font-family="DejaVu Sans" font-size="12" x="445" y="203">
name : string</text>
<text font-family="DejaVu Sans" font-size="12" x="445" y="219">
url : text</text>
<text font-family="DejaVu Sans" font-size="12" x="445" y="235">
picture : binary</text>
<text font-family="DejaVu Sans" font-size="12" x="445" y="251">
rating : integer</text>
<text font-family="DejaVu Sans" font-size="12" x="445" y="267">
prep_time : integer</text>
<rect fill="#ffffff" height="128" stroke="#ffffff" stroke-width="1" width="176" x="17" y="318"/>
<rect fill="none" height="128" stroke="#000000" stroke-width="1" width="176" x="17" y="318"/>
<text font-family="DejaVu Sans" font-size="12" font-weight="bold" x="71" y="331">
list_items</text>
<rect fill="#000000" height="1" stroke="#000000" stroke-width="1" width="176" x="17" y="341"/>
<text font-family="DejaVu Sans" font-size="12" x="21" y="355">
id : integer</text>
<text font-family="DejaVu Sans" font-size="12" x="21" y="371">
quantity : float</text>
<text font-family="DejaVu Sans" font-size="12" x="21" y="387">
name : string</text>
<text font-family="DejaVu Sans" font-size="12" x="21" y="403">
unit : string</text>
<text font-family="DejaVu Sans" font-size="12" x="21" y="419">
user_id : integer</text>
<text font-family="DejaVu Sans" font-size="12" x="21" y="435">
food_type_id : integer</text>
<rect fill="#ffffff" height="160" stroke="#ffffff" stroke-width="1" width="144" x="441" y="318"/>
<rect fill="none" height="160" stroke="#000000" stroke-width="1" width="144" x="441" y="318"/>
<text font-family="DejaVu Sans" font-size="12" font-weight="bold" x="472" y="331">
ingredients</text>
<rect fill="#000000" height="1" stroke="#000000" stroke-width="1" width="144" x="441" y="341"/>
<text font-family="DejaVu Sans" font-size="12" x="445" y="355">
id : integer</text>
<text font-family="DejaVu Sans" font-size="12" x="445" y="371">
quantity : float</text>
<text font-family="DejaVu Sans" font-size="12" x="445" y="387">
unit : string</text>
<text font-family="DejaVu Sans" font-size="12" x="445" y="403">
name : string</text>
<text font-family="DejaVu Sans" font-size="12" x="445" y="419">
food_type_id : integer</text>
<text font-family="DejaVu Sans" font-size="12" x="445" y="435">
recipe_id : integer</text>
<text font-family="DejaVu Sans" font-size="12" x="445" y="451">
match : integer</text>
<text font-family="DejaVu Sans" font-size="12" x="445" y="467">
original : string</text>
<rect fill="#ffffff" height="64" stroke="#ffffff" stroke-width="1" width="120" x="257" y="318"/>
<rect fill="none" height="64" stroke="#000000" stroke-width="1" width="120" x="257" y="318"/>
<text font-family="DejaVu Sans" font-size="12" font-weight="bold" x="278" y="331">
food_types</text>
<rect fill="#000000" height="1" stroke="#000000" stroke-width="1" width="120" x="257" y="341"/>
<text font-family="DejaVu Sans" font-size="12" x="261" y="355">
id : integer</text>
<text font-family="DejaVu Sans" font-size="12" x="261" y="371">
name : string</text>
<polyline fill="none" points="257,190 192,190" stroke="#000000" stroke-width="1"/>
<line fill="#000000" stroke="#000000" stroke-width="1" x1="204" x2="192" y1="183" y2="190"/>
<line fill="#000000" stroke="#000000" stroke-width="1" x1="204" x2="192" y1="197" y2="190"/>
<text font-family="DejaVu Sans" font-size="12" x="233" y="205">
0..*</text>
<text font-family="DejaVu Sans" font-size="12" x="195" y="205">
1</text>
<polyline fill="none" points="384,190 441,190" stroke="#000000" stroke-width="1"/>
<line fill="#000000" stroke="#000000" stroke-width="1" x1="429" x2="441" y1="197" y2="190"/>
<line fill="#000000" stroke="#000000" stroke-width="1" x1="429" x2="441" y1="183" y2="190"/>
<text font-family="DejaVu Sans" font-size="12" x="387" y="207">
0..*</text>
<text font-family="DejaVu Sans" font-size="12" x="432" y="207">
1</text>
<polyline fill="none" points="441,366 376,366" stroke="#000000" stroke-width="1"/>
<line fill="#000000" stroke="#000000" stroke-width="1" x1="388" x2="376" y1="359" y2="366"/>
<line fill="#000000" stroke="#000000" stroke-width="1" x1="388" x2="376" y1="373" y2="366"/>
<text font-family="DejaVu Sans" font-size="12" x="416" y="384">
0..*</text>
<text font-family="DejaVu Sans" font-size="12" x="381" y="385">
1</text>
<polyline fill="none" points="505,318 505,277" stroke="#000000" stroke-width="1"/>
<line fill="#000000" stroke="#000000" stroke-width="1" x1="512" x2="505" y1="289" y2="277"/>
<line fill="#000000" stroke="#000000" stroke-width="1" x1="498" x2="505" y1="289" y2="277"/>
<text font-family="DejaVu Sans" font-size="12" x="515" y="312">
0..*</text>
<text font-family="DejaVu Sans" font-size="12" x="519" y="293">
1</text>
<polyline fill="none" points="192,366 257,366" stroke="#000000" stroke-width="1"/>
<line fill="#000000" stroke="#000000" stroke-width="1" x1="245" x2="257" y1="373" y2="366"/>
<line fill="#000000" stroke="#000000" stroke-width="1" x1="245" x2="257" y1="359" y2="366"/>
<text font-family="DejaVu Sans" font-size="12" x="197" y="382">
0..*</text>
<text font-family="DejaVu Sans" font-size="12" x="246" y="384">
1</text>
<polyline fill="none" points="105,318 105,261" stroke="#000000" stroke-width="1"/>
<line fill="#000000" stroke="#000000" stroke-width="1" x1="112" x2="105" y1="273" y2="261"/>
<line fill="#000000" stroke="#000000" stroke-width="1" x1="98" x2="105" y1="273" y2="261"/>
<text font-family="DejaVu Sans" font-size="12" x="113" y="311">
0..*</text>
<text font-family="DejaVu Sans" font-size="12" x="119" y="281">
1</text>
<rect fill="#ffffff" height="96" stroke="#ffffff" stroke-width="1" width="176" x="17" y="14"/>
<rect fill="none" height="96" stroke="#000000" stroke-width="1" width="176" x="17" y="14"/>
<text font-family="DejaVu Sans" font-size="12" font-weight="bold" x="82" y="27">
issues</text>
<rect fill="#000000" height="1" stroke="#000000" stroke-width="1" width="176" x="17" y="37"/>
<text font-family="DejaVu Sans" font-size="12" x="21" y="51">
id : integer</text>
<text font-family="DejaVu Sans" font-size="12" x="21" y="67">
description : text</text>
<text font-family="DejaVu Sans" font-size="12" x="21" y="83">
issue_category_id : integer</text>
<text font-family="DejaVu Sans" font-size="12" x="21" y="99">
user_id : integer</text>
<rect fill="#ffffff" height="80" stroke="#ffffff" stroke-width="1" width="128" x="257" y="14"/>
<rect fill="none" height="80" stroke="#000000" stroke-width="1" width="128" x="257" y="14"/>
<text font-family="DejaVu Sans" font-size="12" font-weight="bold" x="261" y="27">
issue_categories</text>
<rect fill="#000000" height="1" stroke="#000000" stroke-width="1" width="128" x="257" y="37"/>
<text font-family="DejaVu Sans" font-size="12" x="261" y="51">
id : integer</text>
<text font-family="DejaVu Sans" font-size="12" x="261" y="67">
name : string</text>
<text font-family="DejaVu Sans" font-size="12" x="261" y="83">
describable : bool</text>
<polyline fill="none" points="105,109 105,150" stroke="#000000" stroke-width="1"/>
<line fill="#000000" stroke="#000000" stroke-width="1" x1="98" x2="105" y1="138" y2="150"/>
<line fill="#000000" stroke="#000000" stroke-width="1" x1="112" x2="105" y1="138" y2="150"/>
<text font-family="DejaVu Sans" font-size="12" x="77" y="126">
0..*</text>
<text font-family="DejaVu Sans" font-size="12" x="83" y="139">
1</text>
<polyline fill="none" points="192,78 257,78" stroke="#000000" stroke-width="1"/>
<line fill="#000000" stroke="#000000" stroke-width="1" x1="245" x2="257" y1="85" y2="78"/>
<line fill="#000000" stroke="#000000" stroke-width="1" x1="245" x2="257" y1="71" y2="78"/>
<text font-family="DejaVu Sans" font-size="12" x="195" y="72">
0..*</text>
<text font-family="DejaVu Sans" font-size="12" x="250" y="73">
1</text>
<rect fill="#ffffff" height="80" stroke="#ffffff" stroke-width="1" width="144" x="441" y="14"/>
<rect fill="none" height="80" stroke="#000000" stroke-width="1" width="144" x="441" y="14"/>
<text font-family="DejaVu Sans" font-size="12" font-weight="bold" x="481" y="27">
sessions</text>
<rect fill="#000000" height="1" stroke="#000000" stroke-width="1" width="144" x="441" y="37"/>
<text font-family="DejaVu Sans" font-size="12" x="445" y="51">
id : integer</text>
<text font-family="DejaVu Sans" font-size="12" x="445" y="67">
session_id : string</text>
<text font-family="DejaVu Sans" font-size="12" x="445" y="83">
data : text</text>
</svg>
