<?xml version="1.0" encoding="utf-8" ?>
<!DOCTYPE svg PUBLIC "-//W3C//DTD SVG 1.1//EN" "http://www.w3.org/Graphics/SVG/1.1/DTD/svg11.dtd">
<svg height="732" version="1.1" width="642" xmlns="http://www.w3.org/2000/svg">
<polygon fill="#ffffff" points="24,14 470,14 470,37 519,37 519,533 24,533 24,14" stroke="#ffffff" stroke-width="1"/>
<rect fill="none" height="23" stroke="#000000" stroke-width="1" width="446" x="24" y="14"/>
<text font-family="Dialog" font-size="12" x="29" y="27">
Model</text>
<rect fill="none" height="496" stroke="#000000" stroke-width="1" width="495" x="24" y="37"/>
<rect fill="#ffffff" height="104" stroke="#ffffff" stroke-width="1" width="104" x="384" y="350"/>
<rect fill="none" height="104" stroke="#000000" stroke-width="1" width="104" x="384" y="350"/>
<text font-family="Dialog" font-size="12" x="403" y="363">
Ingrediens</text>
<rect fill="#000000" height="1" stroke="#000000" stroke-width="1" width="104" x="384" y="373"/>
<text font-family="Dialog" font-size="12" x="388" y="387">
navn</text>
<text font-family="Dialog" font-size="12" x="388" y="403">
mængde</text>
<text font-family="Dialog" font-size="12" x="388" y="419">
enhed</text>
<rect fill="#000000" height="1" stroke="#000000" stroke-width="1" width="104" x="384" y="430"/>
<rect fill="#ffffff" height="69" stroke="#ffffff" stroke-width="1" width="88" x="392" y="238"/>
<rect fill="none" height="69" stroke="#000000" stroke-width="1" width="88" x="392" y="238"/>
<text font-family="Dialog" font-size="12" x="401" y="251">
Råvaretype</text>
<rect fill="#000000" height="1" stroke="#000000" stroke-width="1" width="88" x="392" y="261"/>
<text font-family="Dialog" font-size="12" x="396" y="275">
navn</text>
<rect fill="#000000" height="1" stroke="#000000" stroke-width="1" width="88" x="392" y="285"/>
<rect fill="#ffffff" height="144" stroke="#ffffff" stroke-width="1" width="116" x="208" y="294"/>
<rect fill="none" height="144" stroke="#000000" stroke-width="1" width="116" x="208" y="294"/>
<text font-family="Dialog" font-size="12" x="242" y="307">
Opskrift</text>
<rect fill="#000000" height="1" stroke="#000000" stroke-width="1" width="116" x="208" y="317"/>
<text font-family="Dialog" font-size="12" x="212" y="331">
navn</text>
<text font-family="Dialog" font-size="12" x="212" y="347">
billede</text>
<text font-family="Dialog" font-size="12" x="212" y="363">
tilberedningstid</text>
<text font-family="Dialog" font-size="12" x="212" y="379">
url</text>
<text font-family="Dialog" font-size="12" x="212" y="395">
rating</text>
<rect fill="#000000" height="1" stroke="#000000" stroke-width="1" width="116" x="208" y="410"/>
<polyline fill="none" points="323,390 384,390" stroke="#000000" stroke-width="1"/>
<polygon fill="#ffffff" points="323,390 333,385 343,390 333,395" stroke="#ffffff" stroke-width="1"/>
<polygon fill="none" points="323,390 333,385 343,390 333,395" stroke="#000000" stroke-width="1"/>
<text font-family="Dialog" font-size="12" x="340" y="385">
1</text>
<text font-family="Dialog" font-size="12" x="363" y="385">
1..*</text>
<rect fill="#ffffff" height="168" stroke="#ffffff" stroke-width="1" width="147" x="168" y="46"/>
<rect fill="none" height="168" stroke="#000000" stroke-width="1" width="147" x="168" y="46"/>
<text font-family="Dialog" font-size="12" x="220" y="59">
Bruger</text>
<rect fill="#000000" height="1" stroke="#000000" stroke-width="1" width="147" x="168" y="69"/>
<text font-family="Dialog" font-size="12" x="172" y="83">
email</text>
<text font-family="Dialog" font-size="12" x="172" y="99">
adgangskode</text>
<text font-family="Dialog" font-size="12" x="172" y="115">
adgangsniveau</text>
<rect fill="#000000" height="1" stroke="#000000" stroke-width="1" width="147" x="168" y="125"/>
<text font-family="Dialog" font-size="12" x="172" y="139">
ret stamdata()</text>
<text font-family="Dialog" font-size="12" x="172" y="155">
slet bruger()</text>
<text font-family="Dialog" font-size="12" x="172" y="171">
håndter indkøbsliste()</text>
<text font-family="Dialog" font-size="12" x="172" y="187">
håndter favoritter()</text>
<text font-family="Dialog" font-size="12" x="172" y="203">
fejlrapport()</text>
<rect fill="#ffffff" height="104" stroke="#ffffff" stroke-width="1" width="102" x="400" y="118"/>
<rect fill="none" height="104" stroke="#000000" stroke-width="1" width="102" x="400" y="118"/>
<text font-family="Dialog" font-size="12" x="436" y="131">
Vare</text>
<rect fill="#000000" height="1" stroke="#000000" stroke-width="1" width="102" x="400" y="141"/>
<text font-family="Dialog" font-size="12" x="404" y="155">
navn</text>
<text font-family="Dialog" font-size="12" x="404" y="171">
mængde</text>
<text font-family="Dialog" font-size="12" x="404" y="187">
enhed</text>
<rect fill="#000000" height="1" stroke="#000000" stroke-width="1" width="102" x="400" y="198"/>
<polyline fill="none" points="314,181 400,181" stroke="#000000" stroke-width="1"/>
<text font-family="Dialog" font-size="12" x="325" y="199">
indkøbsliste</text>
<text font-family="Dialog" font-size="12" x="330" y="175">
1</text>
<text font-family="Dialog" font-size="12" x="370" y="176">
0..*</text>
<polyline fill="none" points="264,213 264,294" stroke="#000000" stroke-width="1"/>
<text font-family="Dialog" font-size="12" x="273" y="258">
favoritter</text>
<text font-family="Dialog" font-size="12" x="236" y="229">
0..*</text>
<text font-family="Dialog" font-size="12" x="234" y="288">
0..*</text>
<polygon fill="#ffffff" points="40,542 326,542 326,565 375,565 375,717 40,717 40,542" stroke="#ffffff" stroke-width="1"/>
<rect fill="none" height="23" stroke="#000000" stroke-width="1" width="286" x="40" y="542"/>
<text font-family="Dialog" font-size="12" x="45" y="555">
Funktion</text>
<rect fill="none" height="152" stroke="#000000" stroke-width="1" width="335" x="40" y="565"/>
<rect fill="#ffffff" height="117" stroke="#ffffff" stroke-width="1" width="111" x="56" y="582"/>
<rect fill="none" height="117" stroke="#000000" stroke-width="1" width="111" x="56" y="582"/>
<text font-family="Dialog" font-size="12" x="61" y="595">
Søgehåndtering</text>
<rect fill="#000000" height="1" stroke="#000000" stroke-width="1" width="111" x="56" y="605"/>
<rect fill="#000000" height="1" stroke="#000000" stroke-width="1" width="111" x="56" y="626"/>
<text font-family="Dialog" font-size="12" x="60" y="640">
søg()</text>
<text font-family="Dialog" font-size="12" x="60" y="656">
skaler()</text>
<text font-family="Dialog" font-size="12" x="60" y="672">
sorter()</text>
<text font-family="Dialog" font-size="12" x="60" y="688">
begræns()</text>
<polygon fill="#ffffff" points="32,86 141,86 151,96 151,125 32,125 32,86" stroke="#ffffff" stroke-width="1"/>
<polyline fill="none" points="32,86 141,86 151,96 151,125 32,125 32,86" stroke="#000000" stroke-width="1"/>
<polygon fill="#ffffff" points="141,86 151,96 141,96 141,86" stroke="#ffffff" stroke-width="1"/>
<polyline fill="none" points="141,86 151,96 141,96 141,86" stroke="#000000" stroke-width="1"/>
<text font-family="Dialog" font-size="12" x="35" y="101">
Værditype:</text>
<text font-family="Dialog" font-size="12" x="35" y="116">
{bruger, admin}</text>
<line fill="#000000" stroke="#000000" stroke-width="1" x1="151" x2="156" y1="110" y2="110"/>
<line fill="#000000" stroke="#000000" stroke-width="1" x1="161" x2="166" y1="110" y2="110"/>
<rect fill="#ffffff" height="85" stroke="#ffffff" stroke-width="1" width="128" x="208" y="614"/>
<rect fill="none" height="85" stroke="#000000" stroke-width="1" width="128" x="208" y="614"/>
<text font-family="Dialog" font-size="12" x="216" y="627">
Brugerhåndtering</text>
<rect fill="#000000" height="1" stroke="#000000" stroke-width="1" width="128" x="208" y="637"/>
<rect fill="#000000" height="1" stroke="#000000" stroke-width="1" width="128" x="208" y="658"/>
<text font-family="Dialog" font-size="12" x="212" y="672">
log ind()</text>
<text font-family="Dialog" font-size="12" x="212" y="688">
log ud()</text>
<polyline fill="none" points="314,78 536,78 536,654 335,654" stroke="#000000" stroke-width="1"/>
<rect fill="#ffffff" height="104" stroke="#ffffff" stroke-width="1" width="113" x="32" y="286"/>
<rect fill="none" height="104" stroke="#000000" stroke-width="1" width="113" x="32" y="286"/>
<text font-family="Dialog" font-size="12" x="78" y="299">
Fejl</text>
<rect fill="#000000" height="1" stroke="#000000" stroke-width="1" width="113" x="32" y="309"/>
<text font-family="Dialog" font-size="12" x="36" y="323">
beskrivelse</text>
<text font-family="Dialog" font-size="12" x="36" y="339">
status</text>
<rect fill="#000000" height="1" stroke="#000000" stroke-width="1" width="113" x="32" y="358"/>
<polyline fill="none" points="112,286 112,270 208,270 208,213" stroke="#000000" stroke-width="1"/>
<text font-family="Dialog" font-size="12" x="91" y="251">
rapporter fejl</text>
<text font-family="Dialog" font-size="12" x="84" y="280">
0..*</text>
<text font-family="Dialog" font-size="12" x="185" y="230">
1</text>
<rect fill="#ffffff" height="88" stroke="#ffffff" stroke-width="1" width="105" x="40" y="430"/>
<rect fill="none" height="88" stroke="#000000" stroke-width="1" width="105" x="40" y="430"/>
<text font-family="Dialog" font-size="12" x="56" y="443">
Fejlkategori</text>
<rect fill="#000000" height="1" stroke="#000000" stroke-width="1" width="105" x="40" y="453"/>
<text font-family="Dialog" font-size="12" x="44" y="467">
navn</text>
<text font-family="Dialog" font-size="12" x="44" y="483">
beskrivelig</text>
<rect fill="#000000" height="1" stroke="#000000" stroke-width="1" width="105" x="40" y="494"/>
<polyline fill="none" points="88,389 88,430" stroke="#000000" stroke-width="1"/>
<text font-family="Dialog" font-size="12" x="94" y="406">
0..*</text>
<text font-family="Dialog" font-size="12" x="101" y="424">
1</text>
<polyline fill="none" points="232,437 232,590 166,590" stroke="#000000" stroke-width="1"/>
<polyline fill="none" points="479,294 504,294 504,518 256,518 256,609 166,609" stroke="#000000" stroke-width="1"/>
<polyline fill="none" points="144,366 208,366" stroke="#000000" stroke-width="1"/>
<text font-family="Dialog" font-size="12" x="148" y="361">
0..*</text>
<text font-family="Dialog" font-size="12" x="181" y="361">
0..1</text>
<polyline fill="none" points="432,306 432,350" stroke="#000000" stroke-width="1"/>
<polygon fill="#ffffff" points="432,306 437,316 432,326 427,316" stroke="#ffffff" stroke-width="1"/>
<polygon fill="none" points="432,306 437,316 432,326 427,316" stroke="#000000" stroke-width="1"/>
<text font-family="Dialog" font-size="12" x="449" y="320">
1</text>
<text font-family="Dialog" font-size="12" x="442" y="344">
0..*</text>
</svg>
