<?xml version="1.0" encoding="utf-8" ?>
<!DOCTYPE svg PUBLIC "-//W3C//DTD SVG 1.1//EN" "http://www.w3.org/Graphics/SVG/1.1/DTD/svg11.dtd">
<svg height="380" version="1.1" width="486" xmlns="http://www.w3.org/2000/svg">
<rect fill="#ffffff" height="64" stroke="#ffffff" stroke-width="1" width="96" x="262" y="166"/>
<rect fill="none" height="64" stroke="#000000" stroke-width="1" width="96" x="262" y="166"/>
<text font-family="Dialog" font-size="12" x="280" y="179">
Ingrediens</text>
<rect fill="#000000" height="1" stroke="#000000" stroke-width="1" width="96" x="262" y="189"/>
<text font-family="Dialog" font-size="12" x="266" y="203">
mængde</text>
<text font-family="Dialog" font-size="12" x="266" y="219">
enhed</text>
<rect fill="#ffffff" height="64" stroke="#ffffff" stroke-width="1" width="117" x="246" y="302"/>
<rect fill="none" height="64" stroke="#000000" stroke-width="1" width="117" x="246" y="302"/>
<text font-family="Dialog" font-size="12" x="284" y="315">
Råvare</text>
<rect fill="#000000" height="1" stroke="#000000" stroke-width="1" width="117" x="246" y="325"/>
<text font-family="Dialog" font-size="12" x="250" y="339">
navn</text>
<text font-family="Dialog" font-size="12" x="250" y="355">
eksisterer</text>
<rect fill="#ffffff" height="128" stroke="#ffffff" stroke-width="1" width="152" x="14" y="142"/>
<rect fill="none" height="128" stroke="#000000" stroke-width="1" width="152" x="14" y="142"/>
<text font-family="Dialog" font-size="12" x="67" y="155">
Opskrift</text>
<rect fill="#000000" height="1" stroke="#000000" stroke-width="1" width="152" x="14" y="165"/>
<text font-family="Dialog" font-size="12" x="18" y="179">
navn</text>
<text font-family="Dialog" font-size="12" x="18" y="195">
billede</text>
<text font-family="Dialog" font-size="12" x="18" y="211">
tilberedningstid</text>
<text font-family="Dialog" font-size="12" x="18" y="227">
url</text>
<text font-family="Dialog" font-size="12" x="18" y="243">
bekræftet</text>
<text font-family="Dialog" font-size="12" x="18" y="259">
rating</text>
<rect fill="#ffffff" height="48" stroke="#ffffff" stroke-width="1" width="81" x="254" y="14"/>
<rect fill="none" height="48" stroke="#000000" stroke-width="1" width="81" x="254" y="14"/>
<text font-family="Dialog" font-size="12" x="260" y="27">
Indkøbsliste</text>
<rect fill="#000000" height="1" stroke="#000000" stroke-width="1" width="81" x="254" y="37"/>
<text font-family="Dialog" font-size="12" x="258" y="51">
oprettet</text>
<polyline fill="none" points="286,229 286,302" stroke="#000000" stroke-width="1"/>
<polygon fill="#ffffff" points="286,229 291,239 286,249 281,239" stroke="#ffffff" stroke-width="1"/>
<polygon fill="none" points="286,229 291,239 286,249 281,239" stroke="#000000" stroke-width="1"/>
<text font-family="Dialog" font-size="12" x="263" y="289">
1</text>
<text font-family="Dialog" font-size="12" x="256" y="263">
0..*</text>
<polyline fill="none" points="165,198 262,198" stroke="#000000" stroke-width="1"/>
<polygon fill="#ffffff" points="165,198 175,193 185,198 175,203" stroke="#ffffff" stroke-width="1"/>
<polygon fill="none" points="165,198 175,193 185,198 175,203" stroke="#000000" stroke-width="1"/>
<text font-family="Dialog" font-size="12" x="181" y="219">
1</text>
<text font-family="Dialog" font-size="12" x="227" y="218">
1..*</text>
<polyline fill="none" points="286,61 286,166" stroke="#000000" stroke-width="1"/>
<polygon fill="#ffffff" points="286,61 291,71 286,81 281,71" stroke="#ffffff" stroke-width="1"/>
<polygon fill="none" points="286,61 291,71 286,81 281,71" stroke="#000000" stroke-width="1"/>
<text font-family="Dialog" font-size="12" x="255" y="89">
0..1</text>
<text font-family="Dialog" font-size="12" x="255" y="148">
0..*</text>
<rect fill="#ffffff" height="48" stroke="#ffffff" stroke-width="1" width="104" x="62" y="14"/>
<rect fill="none" height="48" stroke="#000000" stroke-width="1" width="104" x="62" y="14"/>
<text font-family="Dialog" font-size="12" x="83" y="27">
Bogmærke</text>
<rect fill="#000000" height="1" stroke="#000000" stroke-width="1" width="104" x="62" y="37"/>
<polyline fill="none" points="106,61 106,142" stroke="#000000" stroke-width="1"/>
<text font-family="Dialog" font-size="12" x="77" y="82">
0..1</text>
<text font-family="Dialog" font-size="12" x="75" y="129">
1</text>
<rect fill="#ffffff" height="48" stroke="#ffffff" stroke-width="1" width="66" x="406" y="102"/>
<rect fill="none" height="48" stroke="#000000" stroke-width="1" width="66" x="406" y="102"/>
<text font-family="Dialog" font-size="12" x="414" y="115">
Nonfood</text>
<rect fill="#000000" height="1" stroke="#000000" stroke-width="1" width="66" x="406" y="125"/>
<text font-family="Dialog" font-size="12" x="410" y="139">
navn</text>
<polyline fill="none" points="310,61 310,134 406,134" stroke="#000000" stroke-width="1"/>
<polygon fill="#ffffff" points="310,61 315,71 310,81 305,71" stroke="#ffffff" stroke-width="1"/>
<polygon fill="none" points="310,61 315,71 310,81 305,71" stroke="#000000" stroke-width="1"/>
<line fill="#000000" stroke="#000000" stroke-width="1" x1="394" x2="406" y1="141" y2="134"/>
<line fill="#000000" stroke="#000000" stroke-width="1" x1="394" x2="406" y1="127" y2="134"/>
<text font-family="Dialog" font-size="12" x="327" y="81">
1</text>
<text font-family="Dialog" font-size="12" x="370" y="128">
0..*</text>
</svg>
