<?xml version="1.0" encoding="utf-8" ?>
<!DOCTYPE svg PUBLIC "-//W3C//DTD SVG 1.1//EN" "http://www.w3.org/Graphics/SVG/1.1/DTD/svg11.dtd">
<svg height="732" version="1.1" width="618" xmlns="http://www.w3.org/2000/svg">
<polygon fill="#ffffff" points="16,14 446,14 446,37 495,37 495,533 16,533 16,14" stroke="#ffffff" stroke-width="1"/>
<rect fill="none" height="23" stroke="#000000" stroke-width="1" width="430" x="16" y="14"/>
<text font-family="Dialog" font-size="12" x="21" y="27">
Model</text>
<rect fill="none" height="496" stroke="#000000" stroke-width="1" width="479" x="16" y="37"/>
<rect fill="#ffffff" height="104" stroke="#ffffff" stroke-width="1" width="104" x="376" y="286"/>
<rect fill="none" height="104" stroke="#000000" stroke-width="1" width="104" x="376" y="286"/>
<text font-family="Dialog" font-size="12" x="395" y="299">
Ingrediens</text>
<rect fill="#000000" height="1" stroke="#000000" stroke-width="1" width="104" x="376" y="309"/>
<text font-family="Dialog" font-size="12" x="380" y="323">
navn</text>
<text font-family="Dialog" font-size="12" x="380" y="339">
mængde</text>
<text font-family="Dialog" font-size="12" x="380" y="355">
enhed</text>
<rect fill="#000000" height="1" stroke="#000000" stroke-width="1" width="104" x="376" y="366"/>
<rect fill="#ffffff" height="69" stroke="#ffffff" stroke-width="1" width="88" x="368" y="430"/>
<rect fill="none" height="69" stroke="#000000" stroke-width="1" width="88" x="368" y="430"/>
<text font-family="Dialog" font-size="12" x="390" y="443">
Råvare</text>
<rect fill="#000000" height="1" stroke="#000000" stroke-width="1" width="88" x="368" y="453"/>
<text font-family="Dialog" font-size="12" x="372" y="467">
navn</text>
<rect fill="#000000" height="1" stroke="#000000" stroke-width="1" width="88" x="368" y="477"/>
<rect fill="#ffffff" height="144" stroke="#ffffff" stroke-width="1" width="116" x="184" y="294"/>
<rect fill="none" height="144" stroke="#000000" stroke-width="1" width="116" x="184" y="294"/>
<text font-family="Dialog" font-size="12" x="218" y="307">
Opskrift</text>
<rect fill="#000000" height="1" stroke="#000000" stroke-width="1" width="116" x="184" y="317"/>
<text font-family="Dialog" font-size="12" x="188" y="331">
navn</text>
<text font-family="Dialog" font-size="12" x="188" y="347">
billede</text>
<text font-family="Dialog" font-size="12" x="188" y="363">
tilberedningstid</text>
<text font-family="Dialog" font-size="12" x="188" y="379">
url</text>
<text font-family="Dialog" font-size="12" x="188" y="395">
rating</text>
<rect fill="#000000" height="1" stroke="#000000" stroke-width="1" width="116" x="184" y="410"/>
<polyline fill="none" points="299,382 376,382" stroke="#000000" stroke-width="1"/>
<polygon fill="#ffffff" points="299,382 309,377 319,382 309,387" stroke="#ffffff" stroke-width="1"/>
<polygon fill="none" points="299,382 309,377 319,382 309,387" stroke="#000000" stroke-width="1"/>
<text font-family="Dialog" font-size="12" x="316" y="377">
1</text>
<text font-family="Dialog" font-size="12" x="344" y="377">
1..*</text>
<rect fill="#ffffff" height="168" stroke="#ffffff" stroke-width="1" width="147" x="144" y="46"/>
<rect fill="none" height="168" stroke="#000000" stroke-width="1" width="147" x="144" y="46"/>
<text font-family="Dialog" font-size="12" x="196" y="59">
Bruger</text>
<rect fill="#000000" height="1" stroke="#000000" stroke-width="1" width="147" x="144" y="69"/>
<text font-family="Dialog" font-size="12" x="148" y="83">
email</text>
<text font-family="Dialog" font-size="12" x="148" y="99">
adgangskode</text>
<text font-family="Dialog" font-size="12" x="148" y="115">
adgangsniveau</text>
<rect fill="#000000" height="1" stroke="#000000" stroke-width="1" width="147" x="144" y="125"/>
<text font-family="Dialog" font-size="12" x="148" y="139">
ret stamdata()</text>
<text font-family="Dialog" font-size="12" x="148" y="155">
slet bruger()</text>
<text font-family="Dialog" font-size="12" x="148" y="171">
håndter indkøbsliste()</text>
<text font-family="Dialog" font-size="12" x="148" y="187">
håndter favoritter()</text>
<text font-family="Dialog" font-size="12" x="148" y="203">
fejlrapport()</text>
<rect fill="#ffffff" height="104" stroke="#ffffff" stroke-width="1" width="102" x="376" y="118"/>
<rect fill="none" height="104" stroke="#000000" stroke-width="1" width="102" x="376" y="118"/>
<text font-family="Dialog" font-size="12" x="412" y="131">
Vare</text>
<rect fill="#000000" height="1" stroke="#000000" stroke-width="1" width="102" x="376" y="141"/>
<text font-family="Dialog" font-size="12" x="380" y="155">
navn</text>
<text font-family="Dialog" font-size="12" x="380" y="171">
mængde</text>
<text font-family="Dialog" font-size="12" x="380" y="187">
enhed</text>
<rect fill="#000000" height="1" stroke="#000000" stroke-width="1" width="102" x="376" y="198"/>
<polyline fill="none" points="415,389 415,430" stroke="#000000" stroke-width="1"/>
<polygon fill="#ffffff" points="415,389 420,399 415,409 410,399" stroke="#ffffff" stroke-width="1"/>
<polygon fill="none" points="415,389 420,399 415,409 410,399" stroke="#000000" stroke-width="1"/>
<text font-family="Dialog" font-size="12" x="423" y="404">
0..*</text>
<text font-family="Dialog" font-size="12" x="429" y="426">
1</text>
<polyline fill="none" points="290,181 376,181" stroke="#000000" stroke-width="1"/>
<text font-family="Dialog" font-size="12" x="301" y="199">
indkøbsliste</text>
<text font-family="Dialog" font-size="12" x="306" y="175">
1</text>
<text font-family="Dialog" font-size="12" x="346" y="176">
0..*</text>
<polyline fill="none" points="240,213 240,294" stroke="#000000" stroke-width="1"/>
<text font-family="Dialog" font-size="12" x="249" y="258">
favoritter</text>
<text font-family="Dialog" font-size="12" x="212" y="229">
0..*</text>
<text font-family="Dialog" font-size="12" x="210" y="288">
0..*</text>
<polygon fill="#ffffff" points="16,542 302,542 302,565 351,565 351,717 16,717 16,542" stroke="#ffffff" stroke-width="1"/>
<rect fill="none" height="23" stroke="#000000" stroke-width="1" width="286" x="16" y="542"/>
<text font-family="Dialog" font-size="12" x="21" y="555">
Funktion</text>
<rect fill="none" height="152" stroke="#000000" stroke-width="1" width="335" x="16" y="565"/>
<rect fill="#ffffff" height="117" stroke="#ffffff" stroke-width="1" width="111" x="32" y="582"/>
<rect fill="none" height="117" stroke="#000000" stroke-width="1" width="111" x="32" y="582"/>
<text font-family="Dialog" font-size="12" x="37" y="595">
Søgehåndtering</text>
<rect fill="#000000" height="1" stroke="#000000" stroke-width="1" width="111" x="32" y="605"/>
<rect fill="#000000" height="1" stroke="#000000" stroke-width="1" width="111" x="32" y="626"/>
<text font-family="Dialog" font-size="12" x="36" y="640">
søg()</text>
<text font-family="Dialog" font-size="12" x="36" y="656">
skaler()</text>
<text font-family="Dialog" font-size="12" x="36" y="672">
sorter()</text>
<text font-family="Dialog" font-size="12" x="36" y="688">
begræns()</text>
<polygon fill="#ffffff" points="24,86 133,86 143,96 143,125 24,125 24,86" stroke="#ffffff" stroke-width="1"/>
<polyline fill="none" points="24,86 133,86 143,96 143,125 24,125 24,86" stroke="#000000" stroke-width="1"/>
<polygon fill="#ffffff" points="133,86 143,96 133,96 133,86" stroke="#ffffff" stroke-width="1"/>
<polyline fill="none" points="133,86 143,96 133,96 133,86" stroke="#000000" stroke-width="1"/>
<text font-family="Dialog" font-size="12" x="27" y="101">
Værditype:</text>
<text font-family="Dialog" font-size="12" x="27" y="116">
{bruger, admin}</text>
<line fill="#000000" stroke="#000000" stroke-width="1" x1="143" x2="144" y1="110" y2="110"/>
<rect fill="#ffffff" height="85" stroke="#ffffff" stroke-width="1" width="128" x="184" y="614"/>
<rect fill="none" height="85" stroke="#000000" stroke-width="1" width="128" x="184" y="614"/>
<text font-family="Dialog" font-size="12" x="192" y="627">
Brugerhåndtering</text>
<rect fill="#000000" height="1" stroke="#000000" stroke-width="1" width="128" x="184" y="637"/>
<rect fill="#000000" height="1" stroke="#000000" stroke-width="1" width="128" x="184" y="658"/>
<text font-family="Dialog" font-size="12" x="188" y="672">
log ind()</text>
<text font-family="Dialog" font-size="12" x="188" y="688">
log ud()</text>
<polyline fill="none" points="290,78 512,78 512,654 311,654" stroke="#000000" stroke-width="1"/>
<rect fill="#ffffff" height="104" stroke="#ffffff" stroke-width="1" width="113" x="32" y="286"/>
<rect fill="none" height="104" stroke="#000000" stroke-width="1" width="113" x="32" y="286"/>
<text font-family="Dialog" font-size="12" x="78" y="299">
Fejl</text>
<rect fill="#000000" height="1" stroke="#000000" stroke-width="1" width="113" x="32" y="309"/>
<text font-family="Dialog" font-size="12" x="36" y="323">
beskrivelse</text>
<text font-family="Dialog" font-size="12" x="36" y="339">
status</text>
<rect fill="#000000" height="1" stroke="#000000" stroke-width="1" width="113" x="32" y="358"/>
<polyline fill="none" points="88,286 88,270 184,270 184,213" stroke="#000000" stroke-width="1"/>
<text font-family="Dialog" font-size="12" x="67" y="251">
rapporter fejl</text>
<text font-family="Dialog" font-size="12" x="60" y="280">
0..*</text>
<text font-family="Dialog" font-size="12" x="161" y="230">
1</text>
<rect fill="#ffffff" height="85" stroke="#ffffff" stroke-width="1" width="88" x="40" y="430"/>
<rect fill="none" height="85" stroke="#000000" stroke-width="1" width="88" x="40" y="430"/>
<text font-family="Dialog" font-size="12" x="47" y="443">
Fejlkategori</text>
<rect fill="#000000" height="1" stroke="#000000" stroke-width="1" width="88" x="40" y="453"/>
<text font-family="Dialog" font-size="12" x="44" y="467">
navn</text>
<text font-family="Dialog" font-size="12" x="44" y="483">
beskrivelig</text>
<rect fill="#000000" height="1" stroke="#000000" stroke-width="1" width="88" x="40" y="493"/>
<polyline fill="none" points="88,389 88,430" stroke="#000000" stroke-width="1"/>
<text font-family="Dialog" font-size="12" x="94" y="406">
0..*</text>
<text font-family="Dialog" font-size="12" x="101" y="424">
1</text>
<polyline fill="none" points="208,437 208,590 142,590" stroke="#000000" stroke-width="1"/>
<polyline fill="none" points="416,498 416,521 232,521 232,609 142,609" stroke="#000000" stroke-width="1"/>
</svg>
