<?xml version="1.0" encoding="utf-8" ?>
<!DOCTYPE svg PUBLIC "-//W3C//DTD SVG 1.1//EN" "http://www.w3.org/Graphics/SVG/1.1/DTD/svg11.dtd">
<svg height="306" version="1.1" width="331" xmlns="http://www.w3.org/2000/svg">
<rect fill="#ffffff" height="25" stroke="#ffffff" stroke-width="1" width="76" x="192" y="171"/>
<rect fill="none" height="25" stroke="#000000" stroke-width="1" width="76" x="192" y="171"/>
<text font-family="Dialog" font-size="12" x="197" y="184">
Ingrediens</text>
<rect fill="#ffffff" height="25" stroke="#ffffff" stroke-width="1" width="66" x="192" y="267"/>
<rect fill="none" height="25" stroke="#000000" stroke-width="1" width="66" x="192" y="267"/>
<text font-family="Dialog" font-size="12" x="203" y="280">
Råvare</text>
<rect fill="#ffffff" height="25" stroke="#ffffff" stroke-width="1" width="66" x="48" y="123"/>
<rect fill="none" height="25" stroke="#000000" stroke-width="1" width="66" x="48" y="123"/>
<text font-family="Dialog" font-size="12" x="57" y="136">
Opskrift</text>
<rect fill="#ffffff" height="25" stroke="#ffffff" stroke-width="1" width="85" x="187" y="27"/>
<rect fill="none" height="25" stroke="#000000" stroke-width="1" width="85" x="187" y="27"/>
<text font-family="Dialog" font-size="12" x="192" y="40">
Indkøbsliste</text>
<polyline fill="none" points="224,195 224,267" stroke="#000000" stroke-width="1"/>
<polygon fill="#ffffff" points="224,195 229,205 224,215 219,205" stroke="#ffffff" stroke-width="1"/>
<polygon fill="none" points="224,195 229,205 224,215 219,205" stroke="#000000" stroke-width="1"/>
<text font-family="Dialog" font-size="12" x="201" y="255">
1</text>
<text font-family="Dialog" font-size="12" x="194" y="228">
0..*</text>
<polyline fill="none" points="80,147 80,187 192,187" stroke="#000000" stroke-width="1"/>
<polygon fill="#ffffff" points="80,147 85,157 80,167 75,157" stroke="#ffffff" stroke-width="1"/>
<polygon fill="none" points="80,147 85,157 80,167 75,157" stroke="#000000" stroke-width="1"/>
<text font-family="Dialog" font-size="12" x="76" y="201">
0..*</text>
<text font-family="Dialog" font-size="12" x="157" y="207">
1..*</text>
<polyline fill="none" points="224,51 224,171" stroke="#000000" stroke-width="1"/>
<polygon fill="#ffffff" points="224,51 229,61 224,71 219,61" stroke="#ffffff" stroke-width="1"/>
<polygon fill="none" points="224,51 229,61 224,71 219,61" stroke="#000000" stroke-width="1"/>
<text font-family="Dialog" font-size="12" x="193" y="79">
0..1</text>
<text font-family="Dialog" font-size="12" x="193" y="153">
0..*</text>
<rect fill="#ffffff" height="25" stroke="#ffffff" stroke-width="1" width="77" x="48" y="27"/>
<rect fill="none" height="25" stroke="#000000" stroke-width="1" width="77" x="48" y="27"/>
<text font-family="Dialog" font-size="12" x="53" y="40">
Bogmærke</text>
<polyline fill="none" points="80,51 80,123" stroke="#000000" stroke-width="1"/>
<text font-family="Dialog" font-size="12" x="52" y="72">
0..*</text>
<text font-family="Dialog" font-size="12" x="58" y="119">
1</text>
</svg>
