<?xml version="1.0" encoding="utf-8" ?>
<!DOCTYPE svg PUBLIC "-//W3C//DTD SVG 1.1//EN" "http://www.w3.org/Graphics/SVG/1.1/DTD/svg11.dtd">
<svg height="724" version="1.1" width="556" xmlns="http://www.w3.org/2000/svg">
<polygon fill="#ffffff" points="102,270 404,270 404,294 453,294 453,709 102,709 102,270" stroke="#ffffff" stroke-width="1"/>
<rect fill="none" height="24" stroke="#000000" stroke-width="1" width="302" x="102" y="270"/>
<text font-family="Lucida Grande" font-size="13" x="107" y="284">
Server</text>
<rect fill="none" height="415" stroke="#000000" stroke-width="1" width="351" x="102" y="294"/>
<polygon fill="#ffffff" points="14,14 492,14 492,38 541,38 541,253 14,253 14,14" stroke="#ffffff" stroke-width="1"/>
<rect fill="none" height="24" stroke="#000000" stroke-width="1" width="478" x="14" y="14"/>
<text font-family="Lucida Grande" font-size="13" x="19" y="28">
Klient</text>
<rect fill="none" height="215" stroke="#000000" stroke-width="1" width="527" x="14" y="38"/>
<polygon fill="#ffffff" points="30,51 252,51 252,75 301,75 301,105 30,105 30,51" stroke="#ffffff" stroke-width="1"/>
<rect fill="none" height="24" stroke="#000000" stroke-width="1" width="222" x="30" y="51"/>
<text font-family="Lucida Grande" font-size="13" x="35" y="65">
Brugergrænseflade</text>
<rect fill="none" height="30" stroke="#000000" stroke-width="1" width="271" x="30" y="75"/>
<polygon fill="#ffffff" points="126,328 236,328 236,352 285,352 285,383 126,383 126,328" stroke="#ffffff" stroke-width="1"/>
<rect fill="none" height="24" stroke="#000000" stroke-width="1" width="110" x="126" y="328"/>
<text font-family="Lucida Grande" font-size="13" x="131" y="342">
Controller</text>
<rect fill="none" height="31" stroke="#000000" stroke-width="1" width="159" x="126" y="352"/>
<polygon fill="#ffffff" points="126,416 204,416 204,440 253,440 253,470 126,470 126,416" stroke="#ffffff" stroke-width="1"/>
<rect fill="none" height="24" stroke="#000000" stroke-width="1" width="78" x="126" y="416"/>
<text font-family="Lucida Grande" font-size="13" x="131" y="430">
Model</text>
<rect fill="none" height="30" stroke="#000000" stroke-width="1" width="127" x="126" y="440"/>
<polygon fill="#ffffff" points="126,504 356,504 356,528 405,528 405,607 126,607 126,504" stroke="#ffffff" stroke-width="1"/>
<rect fill="none" height="24" stroke="#000000" stroke-width="1" width="230" x="126" y="504"/>
<text font-family="Lucida Grande" font-size="13" x="131" y="518">
Ruby on Rails</text>
<rect fill="none" height="79" stroke="#000000" stroke-width="1" width="279" x="126" y="528"/>
<polygon fill="#ffffff" points="238,123 476,123 476,147 525,147 525,234 238,234 238,123" stroke="#ffffff" stroke-width="1"/>
<rect fill="none" height="24" stroke="#000000" stroke-width="1" width="238" x="238" y="123"/>
<text font-family="Lucida Grande" font-size="13" x="243" y="137">
JavaScript</text>
<rect fill="none" height="87" stroke="#000000" stroke-width="1" width="287" x="238" y="147"/>
<polygon fill="#ffffff" points="254,163 324,163 324,187 373,187 373,217 254,217 254,163" stroke="#ffffff" stroke-width="1"/>
<rect fill="none" height="24" stroke="#000000" stroke-width="1" width="70" x="254" y="163"/>
<text font-family="Lucida Grande" font-size="13" x="259" y="177">
jQuery</text>
<rect fill="none" height="30" stroke="#000000" stroke-width="1" width="119" x="254" y="187"/>
<polygon fill="#ffffff" points="390,163 459,163 459,187 508,187 508,217 390,217 390,163" stroke="#ffffff" stroke-width="1"/>
<rect fill="none" height="24" stroke="#000000" stroke-width="1" width="69" x="390" y="163"/>
<text font-family="Lucida Grande" font-size="13" x="395" y="177">
jQuery UI</text>
<rect fill="none" height="30" stroke="#000000" stroke-width="1" width="118" x="390" y="187"/>
<line fill="#000000" stroke="#000000" stroke-width="1" x1="166" x2="166" y1="384" y2="389"/>
<line fill="#000000" stroke="#000000" stroke-width="1" x1="166" x2="166" y1="394" y2="399"/>
<line fill="#000000" stroke="#000000" stroke-width="1" x1="166" x2="166" y1="404" y2="409"/>
<line fill="#000000" stroke="#000000" stroke-width="1" x1="166" x2="166" y1="414" y2="416"/>
<line fill="#000000" stroke="#000000" stroke-width="1" x1="159" x2="166" y1="404" y2="416"/>
<line fill="#000000" stroke="#000000" stroke-width="1" x1="173" x2="166" y1="404" y2="416"/>
<line fill="#000000" stroke="#000000" stroke-width="1" x1="166" x2="166" y1="471" y2="476"/>
<line fill="#000000" stroke="#000000" stroke-width="1" x1="166" x2="166" y1="481" y2="486"/>
<line fill="#000000" stroke="#000000" stroke-width="1" x1="166" x2="166" y1="491" y2="496"/>
<line fill="#000000" stroke="#000000" stroke-width="1" x1="166" x2="166" y1="501" y2="504"/>
<line fill="#000000" stroke="#000000" stroke-width="1" x1="159" x2="166" y1="492" y2="504"/>
<line fill="#000000" stroke="#000000" stroke-width="1" x1="173" x2="166" y1="492" y2="504"/>
<line fill="#000000" stroke="#000000" stroke-width="1" x1="302" x2="307" y1="91" y2="91"/>
<line fill="#000000" stroke="#000000" stroke-width="1" x1="312" x2="317" y1="91" y2="91"/>
<line fill="#000000" stroke="#000000" stroke-width="1" x1="322" x2="327" y1="91" y2="91"/>
<line fill="#000000" stroke="#000000" stroke-width="1" x1="332" x2="337" y1="91" y2="91"/>
<line fill="#000000" stroke="#000000" stroke-width="1" x1="342" x2="347" y1="91" y2="91"/>
<line fill="#000000" stroke="#000000" stroke-width="1" x1="352" x2="357" y1="91" y2="91"/>
<line fill="#000000" stroke="#000000" stroke-width="1" x1="358" x2="358" y1="91" y2="96"/>
<line fill="#000000" stroke="#000000" stroke-width="1" x1="358" x2="358" y1="101" y2="106"/>
<line fill="#000000" stroke="#000000" stroke-width="1" x1="358" x2="358" y1="111" y2="116"/>
<line fill="#000000" stroke="#000000" stroke-width="1" x1="358" x2="358" y1="121" y2="123"/>
<line fill="#000000" stroke="#000000" stroke-width="1" x1="351" x2="358" y1="111" y2="123"/>
<line fill="#000000" stroke="#000000" stroke-width="1" x1="365" x2="358" y1="111" y2="123"/>
<line fill="#000000" stroke="#000000" stroke-width="1" x1="270" x2="270" y1="384" y2="389"/>
<line fill="#000000" stroke="#000000" stroke-width="1" x1="270" x2="270" y1="394" y2="399"/>
<line fill="#000000" stroke="#000000" stroke-width="1" x1="270" x2="270" y1="404" y2="409"/>
<line fill="#000000" stroke="#000000" stroke-width="1" x1="270" x2="270" y1="414" y2="419"/>
<line fill="#000000" stroke="#000000" stroke-width="1" x1="270" x2="270" y1="424" y2="429"/>
<line fill="#000000" stroke="#000000" stroke-width="1" x1="270" x2="270" y1="434" y2="439"/>
<line fill="#000000" stroke="#000000" stroke-width="1" x1="270" x2="270" y1="444" y2="449"/>
<line fill="#000000" stroke="#000000" stroke-width="1" x1="270" x2="270" y1="454" y2="459"/>
<line fill="#000000" stroke="#000000" stroke-width="1" x1="270" x2="270" y1="464" y2="469"/>
<line fill="#000000" stroke="#000000" stroke-width="1" x1="270" x2="270" y1="474" y2="479"/>
<line fill="#000000" stroke="#000000" stroke-width="1" x1="270" x2="270" y1="484" y2="489"/>
<line fill="#000000" stroke="#000000" stroke-width="1" x1="270" x2="270" y1="494" y2="499"/>
<line fill="#000000" stroke="#000000" stroke-width="1" x1="263" x2="270" y1="492" y2="504"/>
<line fill="#000000" stroke="#000000" stroke-width="1" x1="277" x2="270" y1="492" y2="504"/>
<polygon fill="#ffffff" points="326,328 377,328 377,352 426,352 426,382 326,382 326,328" stroke="#ffffff" stroke-width="1"/>
<rect fill="none" height="24" stroke="#000000" stroke-width="1" width="51" x="326" y="328"/>
<text font-family="Lucida Grande" font-size="13" x="331" y="342">
View</text>
<rect fill="none" height="30" stroke="#000000" stroke-width="1" width="100" x="326" y="352"/>
<line fill="#000000" stroke="#000000" stroke-width="1" x1="286" x2="291" y1="366" y2="366"/>
<line fill="#000000" stroke="#000000" stroke-width="1" x1="296" x2="301" y1="366" y2="366"/>
<line fill="#000000" stroke="#000000" stroke-width="1" x1="306" x2="311" y1="366" y2="366"/>
<line fill="#000000" stroke="#000000" stroke-width="1" x1="316" x2="321" y1="366" y2="366"/>
<line fill="#000000" stroke="#000000" stroke-width="1" x1="314" x2="326" y1="373" y2="366"/>
<line fill="#000000" stroke="#000000" stroke-width="1" x1="314" x2="326" y1="359" y2="366"/>
<line fill="#000000" stroke="#000000" stroke-width="1" x1="166" x2="166" y1="106" y2="111"/>
<line fill="#000000" stroke="#000000" stroke-width="1" x1="166" x2="166" y1="116" y2="121"/>
<line fill="#000000" stroke="#000000" stroke-width="1" x1="166" x2="166" y1="126" y2="131"/>
<line fill="#000000" stroke="#000000" stroke-width="1" x1="166" x2="166" y1="136" y2="141"/>
<line fill="#000000" stroke="#000000" stroke-width="1" x1="166" x2="166" y1="146" y2="151"/>
<line fill="#000000" stroke="#000000" stroke-width="1" x1="166" x2="166" y1="156" y2="161"/>
<line fill="#000000" stroke="#000000" stroke-width="1" x1="166" x2="166" y1="166" y2="171"/>
<line fill="#000000" stroke="#000000" stroke-width="1" x1="166" x2="166" y1="176" y2="181"/>
<line fill="#000000" stroke="#000000" stroke-width="1" x1="166" x2="166" y1="186" y2="191"/>
<line fill="#000000" stroke="#000000" stroke-width="1" x1="166" x2="166" y1="196" y2="201"/>
<line fill="#000000" stroke="#000000" stroke-width="1" x1="166" x2="166" y1="206" y2="211"/>
<line fill="#000000" stroke="#000000" stroke-width="1" x1="166" x2="166" y1="216" y2="221"/>
<line fill="#000000" stroke="#000000" stroke-width="1" x1="166" x2="166" y1="226" y2="231"/>
<line fill="#000000" stroke="#000000" stroke-width="1" x1="166" x2="166" y1="236" y2="241"/>
<line fill="#000000" stroke="#000000" stroke-width="1" x1="166" x2="166" y1="246" y2="251"/>
<line fill="#000000" stroke="#000000" stroke-width="1" x1="166" x2="166" y1="256" y2="261"/>
<line fill="#000000" stroke="#000000" stroke-width="1" x1="166" x2="166" y1="266" y2="271"/>
<line fill="#000000" stroke="#000000" stroke-width="1" x1="166" x2="166" y1="276" y2="281"/>
<line fill="#000000" stroke="#000000" stroke-width="1" x1="166" x2="166" y1="286" y2="291"/>
<line fill="#000000" stroke="#000000" stroke-width="1" x1="166" x2="166" y1="296" y2="301"/>
<line fill="#000000" stroke="#000000" stroke-width="1" x1="166" x2="166" y1="306" y2="311"/>
<line fill="#000000" stroke="#000000" stroke-width="1" x1="166" x2="166" y1="316" y2="321"/>
<line fill="#000000" stroke="#000000" stroke-width="1" x1="166" x2="166" y1="326" y2="328"/>
<line fill="#000000" stroke="#000000" stroke-width="1" x1="159" x2="166" y1="316" y2="328"/>
<line fill="#000000" stroke="#000000" stroke-width="1" x1="173" x2="166" y1="316" y2="328"/>
<line fill="#000000" stroke="#000000" stroke-width="1" x1="340" x2="340" y1="383" y2="388"/>
<line fill="#000000" stroke="#000000" stroke-width="1" x1="340" x2="340" y1="393" y2="398"/>
<line fill="#000000" stroke="#000000" stroke-width="1" x1="340" x2="340" y1="403" y2="408"/>
<line fill="#000000" stroke="#000000" stroke-width="1" x1="340" x2="340" y1="413" y2="418"/>
<line fill="#000000" stroke="#000000" stroke-width="1" x1="340" x2="340" y1="423" y2="428"/>
<line fill="#000000" stroke="#000000" stroke-width="1" x1="340" x2="340" y1="433" y2="438"/>
<line fill="#000000" stroke="#000000" stroke-width="1" x1="340" x2="340" y1="443" y2="448"/>
<line fill="#000000" stroke="#000000" stroke-width="1" x1="340" x2="340" y1="453" y2="458"/>
<line fill="#000000" stroke="#000000" stroke-width="1" x1="340" x2="340" y1="463" y2="468"/>
<line fill="#000000" stroke="#000000" stroke-width="1" x1="340" x2="340" y1="473" y2="478"/>
<line fill="#000000" stroke="#000000" stroke-width="1" x1="340" x2="340" y1="483" y2="488"/>
<line fill="#000000" stroke="#000000" stroke-width="1" x1="340" x2="340" y1="493" y2="498"/>
<line fill="#000000" stroke="#000000" stroke-width="1" x1="340" x2="340" y1="503" y2="504"/>
<line fill="#000000" stroke="#000000" stroke-width="1" x1="333" x2="340" y1="492" y2="504"/>
<line fill="#000000" stroke="#000000" stroke-width="1" x1="347" x2="340" y1="492" y2="504"/>
<polygon fill="#ffffff" points="126,638 188,638 188,662 237,662 237,692 126,692 126,638" stroke="#ffffff" stroke-width="1"/>
<rect fill="none" height="24" stroke="#000000" stroke-width="1" width="62" x="126" y="638"/>
<text font-family="Lucida Grande" font-size="13" x="131" y="652">
MySQL</text>
<rect fill="none" height="30" stroke="#000000" stroke-width="1" width="111" x="126" y="662"/>
<polygon fill="#ffffff" points="134,536 227,536 227,560 276,560 276,590 134,590 134,536" stroke="#ffffff" stroke-width="1"/>
<rect fill="none" height="24" stroke="#000000" stroke-width="1" width="93" x="134" y="536"/>
<text font-family="Lucida Grande" font-size="13" x="139" y="550">
ActiveRecord</text>
<rect fill="none" height="30" stroke="#000000" stroke-width="1" width="142" x="134" y="560"/>
<polygon fill="#ffffff" points="286,536 339,536 339,560 388,560 388,590 286,590 286,536" stroke="#ffffff" stroke-width="1"/>
<rect fill="none" height="24" stroke="#000000" stroke-width="1" width="53" x="286" y="536"/>
<text font-family="Lucida Grande" font-size="13" x="291" y="550">
BCrypt</text>
<rect fill="none" height="30" stroke="#000000" stroke-width="1" width="102" x="286" y="560"/>
<line fill="#000000" stroke="#000000" stroke-width="1" x1="166" x2="166" y1="591" y2="596"/>
<line fill="#000000" stroke="#000000" stroke-width="1" x1="166" x2="166" y1="601" y2="606"/>
<line fill="#000000" stroke="#000000" stroke-width="1" x1="166" x2="166" y1="611" y2="616"/>
<line fill="#000000" stroke="#000000" stroke-width="1" x1="166" x2="166" y1="621" y2="626"/>
<line fill="#000000" stroke="#000000" stroke-width="1" x1="166" x2="166" y1="631" y2="636"/>
<line fill="#000000" stroke="#000000" stroke-width="1" x1="159" x2="166" y1="626" y2="638"/>
<line fill="#000000" stroke="#000000" stroke-width="1" x1="173" x2="166" y1="626" y2="638"/>
</svg>
