<?xml version="1.0" encoding="UTF-8" standalone="no"?>
<!-- Created with Inkscape (http://www.inkscape.org/) -->

<svg
   xmlns:dc="http://purl.org/dc/elements/1.1/"
   xmlns:cc="http://creativecommons.org/ns#"
   xmlns:rdf="http://www.w3.org/1999/02/22-rdf-syntax-ns#"
   xmlns:svg="http://www.w3.org/2000/svg"
   xmlns="http://www.w3.org/2000/svg"
   xmlns:xlink="http://www.w3.org/1999/xlink"
   version="1.1"
   width="465"
   height="188.65062"
   id="svg13518">
  <defs
     id="defs13520">
    <linearGradient
       x1="354.0625"
       y1="184.78735"
       x2="354.0625"
       y2="75.998474"
       id="linearGradient13456"
       xlink:href="#linearGradient13450"
       gradientUnits="userSpaceOnUse"
       gradientTransform="matrix(0.87391647,0,0,1,89.683116,250.35714)" />
    <linearGradient
       id="linearGradient13450">
      <stop
         id="stop13452"
         style="stop-color:#63dd00;stop-opacity:1"
         offset="0" />
      <stop
         id="stop13454"
         style="stop-color:#63dd00;stop-opacity:0"
         offset="1" />
    </linearGradient>
    <linearGradient
       x1="228.9894"
       y1="359.59293"
       x2="228.9894"
       y2="210.99573"
       id="linearGradient13424"
       xlink:href="#linearGradient13450"
       gradientUnits="userSpaceOnUse"
       gradientTransform="translate(20.876536,176.55016)" />
    <linearGradient
       id="linearGradient13541">
      <stop
         id="stop13543"
         style="stop-color:#63dd00;stop-opacity:1"
         offset="0" />
      <stop
         id="stop13545"
         style="stop-color:#63dd00;stop-opacity:0"
         offset="1" />
    </linearGradient>
    <linearGradient
       x1="228.9894"
       y1="359.59293"
       x2="228.9894"
       y2="210.99573"
       id="linearGradient13427"
       xlink:href="#linearGradient13450"
       gradientUnits="userSpaceOnUse"
       gradientTransform="translate(23.061356,176.70185)" />
    <linearGradient
       id="linearGradient13548">
      <stop
         id="stop13550"
         style="stop-color:#63dd00;stop-opacity:1"
         offset="0" />
      <stop
         id="stop13552"
         style="stop-color:#63dd00;stop-opacity:0"
         offset="1" />
    </linearGradient>
    <linearGradient
       x1="228.9894"
       y1="359.59293"
       x2="228.9894"
       y2="210.99573"
       id="linearGradient13430"
       xlink:href="#linearGradient13450"
       gradientUnits="userSpaceOnUse"
       gradientTransform="translate(50.668216,177.26445)" />
    <linearGradient
       id="linearGradient13555">
      <stop
         id="stop13557"
         style="stop-color:#63dd00;stop-opacity:1"
         offset="0" />
      <stop
         id="stop13559"
         style="stop-color:#63dd00;stop-opacity:0"
         offset="1" />
    </linearGradient>
    <linearGradient
       x1="228.9894"
       y1="359.59293"
       x2="228.9894"
       y2="210.99573"
       id="linearGradient13433"
       xlink:href="#linearGradient13450"
       gradientUnits="userSpaceOnUse"
       gradientTransform="translate(61.646006,176.55016)" />
    <linearGradient
       id="linearGradient13562">
      <stop
         id="stop13564"
         style="stop-color:#63dd00;stop-opacity:1"
         offset="0" />
      <stop
         id="stop13566"
         style="stop-color:#63dd00;stop-opacity:0"
         offset="1" />
    </linearGradient>
    <linearGradient
       x1="350.58444"
       y1="303.33228"
       x2="350.58444"
       y2="62.986614"
       id="linearGradient13466"
       xlink:href="#linearGradient13460"
       gradientUnits="userSpaceOnUse"
       gradientTransform="matrix(0.87391647,0,0,1,44.849713,0)" />
    <linearGradient
       id="linearGradient13460">
      <stop
         id="stop13462"
         style="stop-color:#ffc000;stop-opacity:1"
         offset="0" />
      <stop
         id="stop13464"
         style="stop-color:#ffc000;stop-opacity:0"
         offset="1" />
    </linearGradient>
    <linearGradient
       x1="350.58444"
       y1="303.33228"
       x2="350.58444"
       y2="62.986614"
       id="linearGradient13578"
       xlink:href="#linearGradient13460"
       gradientUnits="userSpaceOnUse"
       gradientTransform="matrix(0.87391647,0,0,1,89.683116,250.35714)" />
    <linearGradient
       x1="354.0625"
       y1="184.78735"
       x2="354.0625"
       y2="75.998474"
       id="linearGradient13456-8"
       xlink:href="#linearGradient13450-6"
       gradientUnits="userSpaceOnUse"
       gradientTransform="matrix(0.87391647,0,0,1,90.518467,252.75857)" />
    <linearGradient
       id="linearGradient13450-6">
      <stop
         id="stop13452-8"
         style="stop-color:#63dd00;stop-opacity:1"
         offset="0" />
      <stop
         id="stop13454-9"
         style="stop-color:#ffffff;stop-opacity:1"
         offset="1" />
    </linearGradient>
    <linearGradient
       x1="228.9894"
       y1="359.59293"
       x2="228.9894"
       y2="210.99573"
       id="linearGradient13424-3"
       xlink:href="#linearGradient13450-6"
       gradientUnits="userSpaceOnUse"
       gradientTransform="translate(21.711897,178.95159)" />
    <linearGradient
       id="linearGradient13702">
      <stop
         id="stop13704"
         style="stop-color:#63dd00;stop-opacity:1"
         offset="0" />
      <stop
         id="stop13706"
         style="stop-color:#ffffff;stop-opacity:1"
         offset="1" />
    </linearGradient>
    <linearGradient
       x1="228.9894"
       y1="359.59293"
       x2="228.9894"
       y2="210.99573"
       id="linearGradient13427-9"
       xlink:href="#linearGradient13450-6"
       gradientUnits="userSpaceOnUse"
       gradientTransform="translate(23.896717,179.10328)" />
    <linearGradient
       id="linearGradient13709">
      <stop
         id="stop13711"
         style="stop-color:#63dd00;stop-opacity:1"
         offset="0" />
      <stop
         id="stop13713"
         style="stop-color:#ffffff;stop-opacity:1"
         offset="1" />
    </linearGradient>
    <linearGradient
       x1="228.9894"
       y1="359.59293"
       x2="228.9894"
       y2="210.99573"
       id="linearGradient13430-4"
       xlink:href="#linearGradient13450-6"
       gradientUnits="userSpaceOnUse"
       gradientTransform="translate(51.503577,179.66588)" />
    <linearGradient
       id="linearGradient13716">
      <stop
         id="stop13718"
         style="stop-color:#63dd00;stop-opacity:1"
         offset="0" />
      <stop
         id="stop13720"
         style="stop-color:#ffffff;stop-opacity:1"
         offset="1" />
    </linearGradient>
    <linearGradient
       x1="228.9894"
       y1="359.59293"
       x2="228.9894"
       y2="210.99573"
       id="linearGradient13433-5"
       xlink:href="#linearGradient13450-6"
       gradientUnits="userSpaceOnUse"
       gradientTransform="translate(62.481367,178.95159)" />
    <linearGradient
       id="linearGradient13723">
      <stop
         id="stop13725"
         style="stop-color:#63dd00;stop-opacity:1"
         offset="0" />
      <stop
         id="stop13727"
         style="stop-color:#ffffff;stop-opacity:1"
         offset="1" />
    </linearGradient>
    <linearGradient
       x1="350.58444"
       y1="303.33228"
       x2="350.58444"
       y2="62.986614"
       id="linearGradient13466-3"
       xlink:href="#linearGradient13460-0"
       gradientUnits="userSpaceOnUse"
       gradientTransform="matrix(0.87391647,0,0,1,44.849713,0)" />
    <linearGradient
       id="linearGradient13460-0">
      <stop
         id="stop13462-0"
         style="stop-color:#ffc000;stop-opacity:1"
         offset="0" />
      <stop
         id="stop13464-7"
         style="stop-color:#ffffff;stop-opacity:1"
         offset="1" />
    </linearGradient>
    <linearGradient
       x1="350.58444"
       y1="303.33228"
       x2="350.58444"
       y2="62.986614"
       id="linearGradient13739"
       xlink:href="#linearGradient13460-0"
       gradientUnits="userSpaceOnUse"
       gradientTransform="matrix(0.87391647,0,0,1,90.518467,252.75857)" />
  </defs>
  <metadata
     id="metadata13523">
    <rdf:RDF>
      <cc:Work
         rdf:about="">
        <dc:format>image/svg+xml</dc:format>
        <dc:type
           rdf:resource="http://purl.org/dc/dcmitype/StillImage" />
        <dc:title></dc:title>
      </cc:Work>
    </rdf:RDF>
  </metadata>
  <g
     transform="translate(-162.625,-366.15258)"
     id="layer1">
    <path
       d="m 406.20922,430.23561 c -0.7069,1.07825 -1.40614,2.11272 -2.12615,3.11268 2.63554,4.84727 5.74068,8.65485 9.02095,11.665 2.25515,-3.64826 3.96497,-7.761 4.92052,-12.39028 -3.52535,-1.28413 -7.45042,-2.10302 -11.81532,-2.3874 z m -7.59339,0.0302 c -5.3458,0.30544 -10.11025,1.17949 -14.33634,2.65938 1.30197,4.01117 3.09013,7.66369 5.25463,10.96993 3.45452,-2.8526 6.95995,-6.41488 10.35739,-10.87927 -0.43897,-0.88598 -0.86713,-1.80638 -1.27568,-2.75004 z m 22.78017,3.77753 c -1.11729,4.97662 -3.02263,9.38249 -5.52799,13.29688 3.17191,2.43194 6.43193,4.22274 9.59804,5.5303 2.01046,-3.8276 3.57898,-8.08476 4.61679,-12.78314 -2.54483,-2.40553 -5.40484,-4.45352 -8.68684,-6.04404 z m -40.42723,0.24176 c -3.34863,1.51676 -6.3318,3.41835 -8.96021,5.71162 1.2548,4.23574 2.89593,8.12923 4.82941,11.66499 3.13644,-1.32207 6.46002,-3.09543 9.87141,-5.56051 -2.3636,-3.55352 -4.30427,-7.47695 -5.74061,-11.8161 z m 20.77553,2.14563 c -3.32144,4.1758 -6.71628,7.58022 -10.11439,10.36553 2.9908,3.90666 6.4968,7.30334 10.29663,10.24465 3.43662,-2.60101 6.54396,-5.61061 9.14245,-9.06606 -3.37717,-3.04018 -6.56178,-6.83475 -9.32469,-11.54412 z m -32.62123,6.37646 c -2.47355,2.69215 -4.56342,5.7868 -6.34808,9.24738 0.32638,1.00842 0.67259,1.99146 1.03271,2.96158 2.67275,-0.2486 5.95792,-0.83533 9.68917,-2.08519 -1.6894,-3.12731 -3.17909,-6.49416 -4.3738,-10.12377 z m 63.90602,0.39287 c -1.04755,3.94151 -2.4651,7.56983 -4.19156,10.90949 3.88295,1.257 7.40486,1.82953 10.17515,2.08519 0.22595,-0.7613 0.43607,-1.54079 0.63784,-2.32695 -1.80783,-3.93443 -3.98691,-7.53806 -6.62143,-10.66773 z m -44.22393,5.80227 c -3.47432,2.51634 -6.87171,4.39412 -10.11441,5.80228 2.50167,3.94894 5.39892,7.45158 8.56536,10.54685 4.02399,-1.71868 7.97358,-3.7534 11.66345,-6.19514 -3.68968,-2.94767 -7.14773,-6.29538 -10.1144,-10.15399 z m 24.99745,1.23903 c -2.58297,3.39189 -5.58837,6.36857 -8.89946,8.9754 3.57072,2.46826 7.30507,4.54369 11.05598,6.34624 2.89417,-2.82272 5.49639,-5.99084 7.71489,-9.54958 -3.25333,-1.38669 -6.61011,-3.26976 -9.87141,-5.77206 z m -38.48332,5.86272 c -3.77847,1.32471 -7.23271,2.02545 -10.14478,2.35718 1.90136,4.40757 4.1489,8.41944 6.68219,12.02764 3.67955,-0.93156 7.58164,-2.10833 11.54196,-3.59621 0.10136,-0.0381 0.20238,-0.0824 0.30374,-0.12088 -3.09257,-3.16157 -5.92169,-6.70528 -8.38311,-10.66773 z m 51.7262,1.20881 c -2.21857,3.64309 -4.81072,6.89181 -7.68452,9.82156 4.3807,1.9013 8.64712,3.38398 12.51392,4.53303 2.36245,-3.5716 4.40741,-7.54258 6.01397,-11.96719 -3.03977,-0.32768 -6.7976,-1.01453 -10.84337,-2.3874 z m -67.15598,1.42035 c -0.76737,2.13095 -1.44414,4.37211 -2.03504,6.70888 0.20288,2.67383 0.5428,5.20815 1.06308,7.61549 2.63917,-0.38267 5.74171,-0.91362 9.26394,-1.69233 -2.57351,-3.80898 -4.86339,-8.01283 -6.77331,-12.63204 -0.55013,0.0134 -1.04686,0.007 -1.51867,0 z m 81.67455,1.20881 c -1.62833,4.69283 -3.67068,8.93938 -6.10508,12.75292 3.12334,0.82457 5.82024,1.40591 7.95787,1.81321 0.52396,-1.23729 1.0397,-2.50171 1.51867,-3.80774 -0.74551,-3.72444 -1.66382,-7.34581 -2.82473,-10.75839 -0.19036,-0.003 -0.34105,0.007 -0.54673,0 z m -39.63752,1.48079 c -3.73239,2.58513 -7.74999,4.73855 -11.78495,6.55778 3.57683,3.08919 7.41744,5.7438 11.3901,8.00835 4.08611,-2.20979 7.99884,-4.81654 11.57233,-7.85725 -3.78,-1.89046 -7.56408,-4.12566 -11.17748,-6.70888 z m -15.3994,8.09901 c -0.61668,0.24634 -1.23808,0.49434 -1.85279,0.72528 -3.5824,1.3459 -7.10378,2.45512 -10.47888,3.35445 2.88441,3.62687 6.0757,6.83562 9.44617,9.67046 0.95624,-0.28719 1.89227,-0.58865 2.85512,-0.90661 3.7756,-1.24677 7.59509,-2.71063 11.29898,-4.47259 -3.92673,-2.39392 -7.73428,-5.16178 -11.2686,-8.37099 z m 30.06983,0.27198 c -3.50243,3.14004 -7.33689,5.86166 -11.32933,8.18968 3.16876,1.5992 6.38138,2.97889 9.56767,4.17038 1.94198,0.72619 3.87355,1.3751 5.77098,1.96432 3.30924,-2.73179 6.3627,-5.83755 9.0817,-9.39849 -3.72101,-1.14917 -7.77202,-2.57936 -11.90644,-4.38193 -0.39622,-0.17275 -0.78664,-0.36438 -1.18458,-0.54396 z m -46.16784,4.74457 c -4.01472,0.93811 -7.59581,1.54766 -10.60037,1.99454 1.16545,3.99159 2.77095,7.60378 4.73828,10.87927 4.51513,-0.64613 9.62991,-1.58401 15.00455,-2.9918 -3.2653,-2.92875 -6.34814,-6.20893 -9.14246,-9.88201 z m 62.87332,1.23903 c -2.59953,3.54949 -5.50986,6.72256 -8.65648,9.51936 4.10794,1.11269 7.99746,1.94015 11.48122,2.5385 2.10417,-3.02769 4.02986,-6.36998 5.77098,-10.00289 -2.36714,-0.47287 -5.27142,-1.13789 -8.59572,-2.05497 z m -77.05777,1.26925 c -0.20152,0.024 -0.38696,0.0388 -0.57711,0.0604 -0.46463,3.62099 -0.77875,7.4037 -0.97194,11.36279 1.7517,-0.12659 3.78489,-0.31231 6.04433,-0.57418 -1.84926,-3.30902 -3.37395,-6.91654 -4.49528,-10.84905 z m 89.32869,1.45057 c -1.67075,3.58379 -3.5411,6.90367 -5.55836,9.94244 2.9026,0.40783 5.24593,0.63536 7.16816,0.78573 -0.20105,-3.58273 -0.49352,-7.14917 -0.94159,-10.63751 -0.31056,-0.046 -0.25244,-0.0231 -0.66821,-0.0906 z m -44.04168,1.54123 c -4.54883,2.34117 -9.2616,4.2165 -13.88073,5.74184 -0.19418,0.0641 -0.38313,0.11844 -0.5771,0.18132 4.87146,3.62028 10.0629,6.56731 15.30829,8.94518 5.1301,-2.14141 10.13818,-4.82703 14.79192,-8.15946 -1.19735,-0.40046 -2.40259,-0.81608 -3.61445,-1.26925 -3.99195,-1.49275 -8.04427,-3.2823 -12.02793,-5.43963 z m -18.61901,7.19241 c -5.72545,1.62148 -11.2579,2.72056 -16.15875,3.47532 1.63772,2.25749 3.43468,4.35922 5.4065,6.2858 1.72802,1.68837 3.58487,3.26201 5.528,4.71435 4.59198,-0.73146 9.51011,-1.76731 14.51857,-3.23356 1.84304,-0.53955 3.71037,-1.15589 5.55836,-1.81321 -5.11617,-2.55898 -10.12955,-5.66149 -14.85268,-9.4287 z m 38.3922,0.81594 c -4.5323,3.52078 -9.40844,6.42196 -14.42745,8.76386 1.59445,0.62877 3.18491,1.21463 4.76866,1.75277 3.89037,1.3219 7.73646,2.36535 11.39009,3.20334 3.82897,-3.0341 7.44296,-6.55998 10.72187,-10.72817 -3.82088,-0.71039 -8.02722,-1.69324 -12.45317,-2.9918 z m -58.49952,3.23356 c -3.18714,0.40276 -5.95201,0.65999 -8.2616,0.81595 -0.0212,0.73469 -0.0476,1.46101 -0.0607,2.20607 1.50178,3.26143 3.28316,6.25388 5.285,9.03584 3.48569,-0.0862 7.97383,-0.31934 13.06065,-0.93682 -1.08529,-0.9136 -2.14029,-1.87571 -3.15887,-2.87092 -2.53896,-2.48071 -4.84125,-5.22564 -6.86443,-8.25012 z m 74.90125,0.39287 c -3.14854,4.21113 -6.6115,7.86262 -10.29664,11.03037 5.36239,1.0312 10.17376,1.58341 14.09334,1.90387 2.44,-2.89937 4.45624,-6.04695 5.92285,-9.48914 -0.0184,-0.76469 -0.0332,-1.53262 -0.0608,-2.29674 -2.41905,-0.18041 -5.66408,-0.52934 -9.6588,-1.14836 z m -35.41559,7.10174 c -3.01639,1.20783 -6.05509,2.23552 -9.05133,3.11268 -3.86119,1.13038 -7.64524,2.03014 -11.29897,2.71982 6.02107,3.7745 12.71539,6.619 19.53022,8.76386 6.09196,-2.09299 12.12908,-4.95034 17.79892,-8.8243 -2.86273,-0.72919 -5.79493,-1.58533 -8.77797,-2.59894 -2.71623,-0.92295 -5.45197,-1.97167 -8.20087,-3.17312 z m -47.83838,3.11268 c 8.8e-4,0.49378 0.0281,0.99497 0.0303,1.48079 0.33423,0.008 0.53712,0.0254 0.94157,0.0302 -0.32808,-0.49843 -0.65729,-0.9991 -0.97195,-1.51101 z m 93.03427,0.78573 c -0.4944,0.76259 -1.0368,1.50556 -1.57943,2.23629 0.53814,0.0239 1.08184,0.0462 1.54905,0.0604 0.004,-0.75424 0.0283,-1.5277 0.0303,-2.29673 z m -70.67932,2.78026 c -5.4245,0.80367 -10.33322,1.21261 -14.33634,1.39012 3.80599,4.49416 8.25104,8.32111 13.06065,11.57434 4.25617,-0.28696 8.76973,-0.81965 13.42513,-1.72255 2.20743,-0.42813 4.44268,-0.91077 6.68219,-1.51101 -6.61928,-2.43547 -13.05596,-5.61653 -18.83163,-9.7309 z m 47.0183,0.18132 c -5.27313,3.95641 -10.90257,7.01248 -16.61434,9.36826 5.81823,1.50051 11.57358,2.53585 16.94845,3.23356 5.35698,-2.93956 10.22518,-6.34738 14.27558,-10.30509 -4.21715,-0.4327 -9.20234,-1.13063 -14.60969,-2.29673 z m -69.31251,1.29947 c 0.0267,2.40374 0.0476,4.72159 0.1215,6.92042 1.07632,1.56521 2.20554,3.07267 3.37146,4.50281 3.32277,0.24711 7.28365,0.41934 11.72421,0.33242 -4.36741,-3.36173 -8.33793,-7.27872 -11.78495,-11.75565 -1.37076,0.0127 -2.51216,0.0201 -3.43222,0 z m 88.56936,1.39012 c -3.6426,4.03187 -8.00501,7.53674 -12.84803,10.57707 5.71732,0.52838 10.60396,0.69591 14.39708,0.72529 0.89973,-1.0731 1.75276,-2.17664 2.55138,-3.32422 0.13747,-2.47756 0.20007,-5.08028 0.24299,-7.76659 -1.24117,-0.0365 -2.64394,-0.0977 -4.34342,-0.21155 z m -41.6118,8.79408 c -3.97798,1.31847 -7.96121,2.32908 -11.84569,3.08246 -3.06731,0.5949 -6.06962,1.0411 -8.99059,1.35991 5.16896,2.9438 10.63214,5.32783 16.15875,7.25285 7.35802,-1.98868 14.83402,-4.53185 21.77785,-7.76659 -4.84611,-0.79242 -9.90221,-1.85997 -14.97417,-3.294 -0.71579,-0.20239 -1.41042,-0.41722 -2.12615,-0.63463 z m -46.38046,4.56325 c 0.44945,5.32216 1.23025,9.88075 2.55138,13.81063 2.79048,-0.21965 7.00628,-0.65873 12.02793,-1.32969 -4.80962,-3.44934 -9.34851,-7.52429 -13.45549,-12.36006 -0.38139,-0.0331 -0.76317,-0.0863 -1.12382,-0.12088 z m 69.85923,0.27198 c -6.91853,3.67663 -14.48353,6.54149 -21.99046,8.8243 1.16375,0.33748 2.30574,0.66544 3.46258,0.96705 6.25712,1.63135 12.33522,2.75206 17.85967,3.50554 6.32659,-3.27854 12.19682,-7.24984 17.06994,-12.05786 -4.53954,-0.12246 -10.16362,-0.47622 -16.40173,-1.23903 z m -50.35938,0.12088 c -4.88901,0.28337 -9.36153,0.23923 -13.2429,0.0605 4.2014,4.44629 8.82525,8.16344 13.66813,11.27213 4.80594,-0.75609 10.12531,-1.75398 15.67276,-3.05224 -5.54274,-2.22693 -11.00203,-4.95833 -16.09799,-8.28034 z m 71.74239,1.14837 c -4.49293,5.04685 -9.93373,9.25072 -15.85502,12.75293 5.19817,0.51727 9.4727,0.68416 12.66578,0.7555 1.76745,-3.92964 2.80901,-8.42907 3.43222,-13.50843 -0.0774,4.3e-4 -0.1641,-3.2e-4 -0.24298,0 z m -49.63044,9.33804 c -5.90007,1.55657 -11.65159,2.7583 -16.94845,3.68687 6.65728,3.66064 13.58572,6.27652 20.25918,8.15945 6.12883,-1.64433 12.44879,-3.76555 18.52788,-6.4369 -4.16736,-0.70566 -8.55486,-1.61344 -13.03026,-2.78026 -2.91126,-0.75902 -5.85353,-1.62987 -8.80835,-2.62916 z m -22.50681,4.59347 c -6.3623,0.95865 -11.5619,1.51375 -15.1868,1.81322 2.2514,4.70952 5.64762,8.25801 10.66112,10.78861 5.59115,-0.51586 14.03548,-1.53658 23.53954,-3.65665 -6.37447,-2.18395 -12.8342,-5.11072 -19.01386,-8.94518 z m 50.81499,1.783 c -5.84165,2.93078 -11.98977,5.3072 -18.0419,7.1924 10.04228,2.16947 18.93208,2.76976 24.9367,2.87092 4.0902,-2.26771 7.09705,-5.19774 9.32469,-8.70342 -4.17212,-0.15249 -9.79448,-0.52423 -16.21949,-1.3599 z m -25.14932,9.18694 c -0.0705,0.0184 -0.14225,0.0422 -0.21262,0.0604 -8.39429,2.17633 -16.20604,3.49769 -22.53719,4.32148 6.13904,1.56999 13.96426,2.29673 23.87363,2.29673 9.391,0 16.8572,-0.90593 22.84093,-2.59893 -6.78126,-0.51959 -15.13075,-1.662 -23.96475,-4.07972 z"
       id="path12153-9"
       style="fill:url(#linearGradient13739);fill-opacity:1;stroke:none" />
    <path
       d="m 224.38004,369.40646 0,11.26615 -9.42586,0 c -7.03872,1.5e-4 -11.94445,1.4221 -14.71721,4.26586 -2.70175,2.84404 -4.05256,7.96307 -4.05256,15.35708 l 0,33.39663 19.9395,0 0,9.6946 -19.9395,0 0,108.16254 -12.65852,0 0,-108.16254 -18.2647,0 0,-9.6946 18.2647,0 0,-31.15705 c 0,-13.29512 0.0623,-18.4187 6.24778,-24.46215 6.18545,-6.11424 11.9563,-8.66635 25.3938,-8.66652 l 9.21257,0"
       id="path13172-9"
       style="font-size:218.41191101px;font-style:normal;font-variant:normal;font-weight:normal;font-stretch:normal;line-height:125%;letter-spacing:0px;word-spacing:0px;fill:url(#linearGradient13433-5);fill-opacity:1;stroke:#63dd00;stroke-width:5.30000019;stroke-miterlimit:4;stroke-opacity:1;stroke-dasharray:none;font-family:DejaVu Sans;-inkscape-font-specification:DejaVu Sans" />
    <path
       d="m 282.40982,433.85338 c -21.23202,-0.34663 -40.85116,15.38338 -45.09375,36.1875 -5.04923,19.80823 -3.93013,42.58159 6.5625,60.4375 10.04593,16.09134 30.08678,22.88044 48.5,20.5 17.19888,-1.73444 32.91477,-12.64791 38.65625,-29.28125 7.76299,-20.0712 6.8379,-43.67823 -1.875,-63.15625 -8.25683,-16.12778 -26.18925,-25.82677 -44.21875,-24.75 -0.84521,-0.0201 -1.688,0.005 -2.53125,0.0625 z m 3.65625,8.53125 c 19.39917,-0.4535 34.25137,17.67765 36.03125,35.96875 3.36679,19.36866 0.91671,42.32654 -14.125,56.3125 -15.50424,13.2062 -43.02355,9.60826 -52.78125,-8.96875 -10.21927,-17.37305 -9.8592,-39.7419 -3.9375,-58.59375 5.33216,-14.36436 18.89119,-25.75197 34.8125,-24.71875 z"
       id="path13174-7"
       style="font-size:218.41191101px;font-style:normal;font-variant:normal;font-weight:normal;font-stretch:normal;line-height:125%;letter-spacing:0px;word-spacing:0px;fill:url(#linearGradient13430-4);fill-opacity:1;stroke:#63dd00;stroke-width:5.30000019;stroke-miterlimit:4;stroke-opacity:1;stroke-dasharray:none;font-family:DejaVu Sans;-inkscape-font-specification:DejaVu Sans" />
    <path
       d="m 557.09733,450.23521 0,-80.67706 10.53158,0 0,181.99117 -10.53158,0 0,-17.9166 c -4.12375,7.10978 -9.34942,10.11199 -15.67702,13.59577 -6.25667,3.41269 -13.79301,4.32083 -22.60905,4.32083 -14.43286,0 -26.19951,-2.66615 -35.29997,-14.18397 -9.02941,-11.51779 -13.54411,-26.66157 -13.5441,-45.43139 -1e-5,-18.76969 4.51469,-33.91347 13.5441,-45.43138 9.10046,-11.5177 20.86711,-17.2766 35.29997,-17.27672 8.81604,1.2e-4 16.35238,1.74201 22.60905,5.22567 6.3276,3.4128 11.55327,8.67402 15.67702,15.78368 m -75.45361,41.69875 c -4e-5,14.43287 5.68261,32.86703 12.89226,41.59636 7.20965,8.72933 16.67381,9.73896 27.05406,9.73896 10.38025,0 18.5564,-4.0881 24.52868,-12.26434 5.97211,-8.24729 10.97861,-15.5468 10.97861,-39.07098 0,-23.52418 -5.0065,-32.30324 -10.97861,-40.47955 -5.97228,-8.24723 -14.1485,-12.37089 -24.52868,-12.37099 -10.38031,1e-4 -19.09711,1.63384 -28.56929,13.88622 -9.47218,12.25238 -11.37707,24.53158 -11.37703,38.96432"
       id="path13178-1"
       style="font-size:218.41191101px;font-style:normal;font-variant:normal;font-weight:normal;font-stretch:normal;line-height:125%;letter-spacing:0px;word-spacing:0px;fill:url(#linearGradient13427-9);fill-opacity:1;stroke:#63dd00;stroke-width:5.30000019;stroke-miterlimit:4;stroke-opacity:1;stroke-dasharray:none;font-family:DejaVu Sans;-inkscape-font-specification:DejaVu Sans" />
    <path
       d="m 614.95447,369.40646 10.02649,0 0,181.99117 -10.02649,0 0,-181.99117"
       id="path13180-7"
       style="font-size:218.41191101px;font-style:normal;font-variant:normal;font-weight:normal;font-stretch:normal;line-height:125%;letter-spacing:0px;word-spacing:0px;fill:url(#linearGradient13424-3);fill-opacity:1;stroke:#63dd00;stroke-width:5.30000019;stroke-miterlimit:4;stroke-opacity:1;stroke-dasharray:none;font-family:DejaVu Sans;-inkscape-font-specification:DejaVu Sans" />
    <path
       d="m 373.92534,366.15258 c 0,0 16.41328,17.82705 17.85966,28.64875 -13.48009,-12.77882 -39.91089,-6.55778 -39.91089,-6.55778 0,0 19.89759,-0.85912 34.53477,16.40956 -19.14983,-1.89955 -32.439,7.94792 -32.439,7.94792 0,0 28.63797,-1.91251 31.58853,5.16765 -13.20556,0.79758 -25.1797,18.13212 -25.1797,18.13212 0,0 24.50296,-13.21867 41.80515,-5.52784 14.51229,-7.18378 27.59498,-1.22841 40.20351,5.70916 0,0 -11.94377,-17.33454 -25.14933,-18.13212 2.95059,-7.08016 31.58854,-5.16765 31.58854,-5.16765 0,0 -13.31955,-9.84746 -32.46937,-7.94791 14.63717,-17.26869 34.53476,-16.40957 34.53476,-16.40957 0,0 -26.4308,-6.22104 -39.91088,6.55778 1.44637,-10.8217 17.85966,-28.64875 17.85966,-28.64875 0,0 -19.90474,4.69853 -27.42733,21.57722 -7.47104,-17.00068 -27.48808,-21.75854 -27.48808,-21.75854 z"
       id="path13088-4"
       style="fill:url(#linearGradient13456-8);fill-opacity:1;stroke:none" />
  </g>
</svg>
