<?xml version="1.0" encoding="UTF-8" standalone="no"?>
<!-- Created with Inkscape (http://www.inkscape.org/) -->

<svg
   xmlns:dc="http://purl.org/dc/elements/1.1/"
   xmlns:cc="http://creativecommons.org/ns#"
   xmlns:rdf="http://www.w3.org/1999/02/22-rdf-syntax-ns#"
   xmlns:svg="http://www.w3.org/2000/svg"
   xmlns="http://www.w3.org/2000/svg"
   xmlns:xlink="http://www.w3.org/1999/xlink"
   xmlns:sodipodi="http://sodipodi.sourceforge.net/DTD/sodipodi-0.dtd"
   xmlns:inkscape="http://www.inkscape.org/namespaces/inkscape"
   width="99.002083"
   height="187.70963"
   id="svg13518"
   version="1.1"
   inkscape:version="0.48.3.1 r9886"
   sodipodi:docname="pineapple1.svg"
   inkscape:export-filename="/home/darx/UNI/dat3/mockups/niels/logo2.png"
   inkscape:export-xdpi="58.060001"
   inkscape:export-ydpi="58.060001">
  <defs
     id="defs13520">
    <linearGradient
       inkscape:collect="always"
       xlink:href="#linearGradient13450"
       id="linearGradient13456"
       x1="354.0625"
       y1="184.78735"
       x2="354.0625"
       y2="75.998474"
       gradientUnits="userSpaceOnUse"
       gradientTransform="matrix(0.87391647,0,0,1,89.683116,250.35714)" />
    <linearGradient
       id="linearGradient13450">
      <stop
         style="stop-color:#63dd00;stop-opacity:1;"
         offset="0"
         id="stop13452" />
      <stop
         style="stop-color:#63dd00;stop-opacity:0;"
         offset="1"
         id="stop13454" />
    </linearGradient>
    <linearGradient
       inkscape:collect="always"
       xlink:href="#linearGradient13450"
       id="linearGradient13424"
       gradientUnits="userSpaceOnUse"
       gradientTransform="translate(20.876536,176.55016)"
       x1="228.9894"
       y1="359.59293"
       x2="228.9894"
       y2="210.99573" />
    <linearGradient
       id="linearGradient13541">
      <stop
         style="stop-color:#63dd00;stop-opacity:1;"
         offset="0"
         id="stop13543" />
      <stop
         style="stop-color:#63dd00;stop-opacity:0;"
         offset="1"
         id="stop13545" />
    </linearGradient>
    <linearGradient
       inkscape:collect="always"
       xlink:href="#linearGradient13450"
       id="linearGradient13427"
       gradientUnits="userSpaceOnUse"
       gradientTransform="translate(23.061356,176.70185)"
       x1="228.9894"
       y1="359.59293"
       x2="228.9894"
       y2="210.99573" />
    <linearGradient
       id="linearGradient13548">
      <stop
         style="stop-color:#63dd00;stop-opacity:1;"
         offset="0"
         id="stop13550" />
      <stop
         style="stop-color:#63dd00;stop-opacity:0;"
         offset="1"
         id="stop13552" />
    </linearGradient>
    <linearGradient
       inkscape:collect="always"
       xlink:href="#linearGradient13450"
       id="linearGradient13430"
       gradientUnits="userSpaceOnUse"
       gradientTransform="translate(50.668216,177.26445)"
       x1="228.9894"
       y1="359.59293"
       x2="228.9894"
       y2="210.99573" />
    <linearGradient
       id="linearGradient13555">
      <stop
         style="stop-color:#63dd00;stop-opacity:1;"
         offset="0"
         id="stop13557" />
      <stop
         style="stop-color:#63dd00;stop-opacity:0;"
         offset="1"
         id="stop13559" />
    </linearGradient>
    <linearGradient
       inkscape:collect="always"
       xlink:href="#linearGradient13450"
       id="linearGradient13433"
       gradientUnits="userSpaceOnUse"
       gradientTransform="translate(61.646006,176.55016)"
       x1="228.9894"
       y1="359.59293"
       x2="228.9894"
       y2="210.99573" />
    <linearGradient
       id="linearGradient13562">
      <stop
         style="stop-color:#63dd00;stop-opacity:1;"
         offset="0"
         id="stop13564" />
      <stop
         style="stop-color:#63dd00;stop-opacity:0;"
         offset="1"
         id="stop13566" />
    </linearGradient>
    <linearGradient
       inkscape:collect="always"
       xlink:href="#linearGradient13460"
       id="linearGradient13466"
       x1="350.58444"
       y1="303.33228"
       x2="350.58444"
       y2="62.986614"
       gradientUnits="userSpaceOnUse"
       gradientTransform="matrix(0.87391647,0,0,1,44.849713,0)" />
    <linearGradient
       inkscape:collect="always"
       id="linearGradient13460">
      <stop
         style="stop-color:#ffc000;stop-opacity:1;"
         offset="0"
         id="stop13462" />
      <stop
         style="stop-color:#ffc000;stop-opacity:0;"
         offset="1"
         id="stop13464" />
    </linearGradient>
    <linearGradient
       y2="62.986614"
       x2="350.58444"
       y1="303.33228"
       x1="350.58444"
       gradientTransform="matrix(0.87391647,0,0,1,89.683116,250.35714)"
       gradientUnits="userSpaceOnUse"
       id="linearGradient13578"
       xlink:href="#linearGradient13460"
       inkscape:collect="always" />
    <linearGradient
       inkscape:collect="always"
       xlink:href="#linearGradient13450-6"
       id="linearGradient13456-8"
       x1="354.0625"
       y1="184.78735"
       x2="354.0625"
       y2="75.998474"
       gradientUnits="userSpaceOnUse"
       gradientTransform="matrix(0.87391647,0,0,1,90.518467,252.75857)" />
    <linearGradient
       id="linearGradient13450-6">
      <stop
         style="stop-color:#63dd00;stop-opacity:1;"
         offset="0"
         id="stop13452-8" />
      <stop
         style="stop-color:#ffffff;stop-opacity:1;"
         offset="1"
         id="stop13454-9" />
    </linearGradient>
    <linearGradient
       inkscape:collect="always"
       xlink:href="#linearGradient13450-6"
       id="linearGradient13424-3"
       gradientUnits="userSpaceOnUse"
       gradientTransform="translate(21.711897,178.95159)"
       x1="228.9894"
       y1="359.59293"
       x2="228.9894"
       y2="210.99573" />
    <linearGradient
       id="linearGradient13702">
      <stop
         style="stop-color:#63dd00;stop-opacity:1;"
         offset="0"
         id="stop13704" />
      <stop
         style="stop-color:#ffffff;stop-opacity:1;"
         offset="1"
         id="stop13706" />
    </linearGradient>
    <linearGradient
       inkscape:collect="always"
       xlink:href="#linearGradient13450-6"
       id="linearGradient13427-9"
       gradientUnits="userSpaceOnUse"
       gradientTransform="translate(23.896717,179.10328)"
       x1="228.9894"
       y1="359.59293"
       x2="228.9894"
       y2="210.99573" />
    <linearGradient
       id="linearGradient13709">
      <stop
         style="stop-color:#63dd00;stop-opacity:1;"
         offset="0"
         id="stop13711" />
      <stop
         style="stop-color:#ffffff;stop-opacity:1;"
         offset="1"
         id="stop13713" />
    </linearGradient>
    <linearGradient
       inkscape:collect="always"
       xlink:href="#linearGradient13450-6"
       id="linearGradient13430-4"
       gradientUnits="userSpaceOnUse"
       gradientTransform="translate(51.503577,179.66588)"
       x1="228.9894"
       y1="359.59293"
       x2="228.9894"
       y2="210.99573" />
    <linearGradient
       id="linearGradient13716">
      <stop
         style="stop-color:#63dd00;stop-opacity:1;"
         offset="0"
         id="stop13718" />
      <stop
         style="stop-color:#ffffff;stop-opacity:1;"
         offset="1"
         id="stop13720" />
    </linearGradient>
    <linearGradient
       inkscape:collect="always"
       xlink:href="#linearGradient13450-6"
       id="linearGradient13433-5"
       gradientUnits="userSpaceOnUse"
       gradientTransform="translate(62.481367,178.95159)"
       x1="228.9894"
       y1="359.59293"
       x2="228.9894"
       y2="210.99573" />
    <linearGradient
       id="linearGradient13723">
      <stop
         style="stop-color:#63dd00;stop-opacity:1;"
         offset="0"
         id="stop13725" />
      <stop
         style="stop-color:#ffffff;stop-opacity:1;"
         offset="1"
         id="stop13727" />
    </linearGradient>
    <linearGradient
       inkscape:collect="always"
       xlink:href="#linearGradient13460-0"
       id="linearGradient13466-3"
       x1="350.58444"
       y1="303.33228"
       x2="350.58444"
       y2="62.986614"
       gradientUnits="userSpaceOnUse"
       gradientTransform="matrix(0.87391647,0,0,1,44.849713,0)" />
    <linearGradient
       id="linearGradient13460-0">
      <stop
         style="stop-color:#ffc000;stop-opacity:1;"
         offset="0"
         id="stop13462-0" />
      <stop
         style="stop-color:#ffffff;stop-opacity:1;"
         offset="1"
         id="stop13464-7" />
    </linearGradient>
    <linearGradient
       y2="62.986614"
       x2="350.58444"
       y1="303.33228"
       x1="350.58444"
       gradientTransform="matrix(0.87391647,0,0,1,90.518467,252.75857)"
       gradientUnits="userSpaceOnUse"
       id="linearGradient13739"
       xlink:href="#linearGradient13460-0"
       inkscape:collect="always" />
    <linearGradient
       inkscape:collect="always"
       xlink:href="#linearGradient13450-6"
       id="linearGradient13949"
       gradientUnits="userSpaceOnUse"
       gradientTransform="translate(62.481367,178.95159)"
       x1="228.9894"
       y1="359.59293"
       x2="228.9894"
       y2="210.99573" />
    <linearGradient
       inkscape:collect="always"
       xlink:href="#linearGradient13450-6"
       id="linearGradient13951"
       gradientUnits="userSpaceOnUse"
       gradientTransform="translate(51.503577,179.66588)"
       x1="228.9894"
       y1="359.59293"
       x2="228.9894"
       y2="210.99573" />
    <linearGradient
       inkscape:collect="always"
       xlink:href="#linearGradient13450-6"
       id="linearGradient13953"
       gradientUnits="userSpaceOnUse"
       gradientTransform="translate(23.896717,179.10328)"
       x1="228.9894"
       y1="359.59293"
       x2="228.9894"
       y2="210.99573" />
    <linearGradient
       inkscape:collect="always"
       xlink:href="#linearGradient13450-6"
       id="linearGradient13955"
       gradientUnits="userSpaceOnUse"
       gradientTransform="translate(21.711897,178.95159)"
       x1="228.9894"
       y1="359.59293"
       x2="228.9894"
       y2="210.99573" />
    <linearGradient
       y2="75.998474"
       x2="354.0625"
       y1="184.78735"
       x1="354.0625"
       gradientTransform="matrix(0.87380301,0.01408179,-0.01611343,0.99987017,93.156109,249.27003)"
       gradientUnits="userSpaceOnUse"
       id="linearGradient15053"
       xlink:href="#linearGradient13450-6-7"
       inkscape:collect="always" />
    <linearGradient
       id="linearGradient13450-6-7">
      <stop
         style="stop-color:#63dd00;stop-opacity:1;"
         offset="0"
         id="stop13452-8-5" />
      <stop
         style="stop-color:#ffffff;stop-opacity:1;"
         offset="1"
         id="stop13454-9-6" />
    </linearGradient>
    <linearGradient
       inkscape:collect="always"
       xlink:href="#linearGradient13460-0-4"
       id="linearGradient15036"
       gradientUnits="userSpaceOnUse"
       x1="49.851028"
       y1="188.38545"
       x2="49.851028"
       y2="-60.793282"
       gradientTransform="translate(249.44765,366.15258)" />
    <linearGradient
       id="linearGradient13460-0-4">
      <stop
         style="stop-color:#ffc000;stop-opacity:1;"
         offset="0"
         id="stop13462-0-2" />
      <stop
         style="stop-color:#ffffff;stop-opacity:1;"
         offset="1"
         id="stop13464-7-7" />
    </linearGradient>
    <linearGradient
       y2="-60.793282"
       x2="49.851028"
       y1="188.38545"
       x1="49.851028"
       gradientTransform="translate(352.03946,366.2698)"
       gradientUnits="userSpaceOnUse"
       id="linearGradient15116"
       xlink:href="#linearGradient13460-0-4"
       inkscape:collect="always" />
  </defs>
  <sodipodi:namedview
     id="base"
     pagecolor="#ffffff"
     bordercolor="#666666"
     borderopacity="1.0"
     inkscape:pageopacity="0.0"
     inkscape:pageshadow="2"
     inkscape:zoom="0.98994949"
     inkscape:cx="18.683381"
     inkscape:cy="-37.096597"
     inkscape:document-units="px"
     inkscape:current-layer="layer1"
     showgrid="false"
     fit-margin-top="0"
     fit-margin-left="0"
     fit-margin-right="0"
     fit-margin-bottom="0"
     inkscape:window-width="1366"
     inkscape:window-height="720"
     inkscape:window-x="0"
     inkscape:window-y="0"
     inkscape:window-maximized="1" />
  <metadata
     id="metadata13523">
    <rdf:RDF>
      <cc:Work
         rdf:about="">
        <dc:format>image/svg+xml</dc:format>
        <dc:type
           rdf:resource="http://purl.org/dc/dcmitype/StillImage" />
        <dc:title />
      </cc:Work>
    </rdf:RDF>
  </metadata>
  <g
     inkscape:label="Layer 1"
     inkscape:groupmode="layer"
     id="layer1"
     transform="translate(-352.29468,-367.21597)">
    <path
       sodipodi:nodetypes="ccccsccccccccccsccc"
       inkscape:connector-curvature="0"
       style="font-size:218.41191101px;font-style:normal;font-variant:normal;font-weight:normal;font-stretch:normal;line-height:125%;letter-spacing:0px;word-spacing:0px;fill:url(#linearGradient13949);fill-opacity:1;stroke:#63dd00;stroke-width:5.30000019;stroke-miterlimit:4;stroke-opacity:1;stroke-dasharray:none;font-family:DejaVu Sans;-inkscape-font-specification:DejaVu Sans"
       d="m 224.38004,369.40646 0,11.26615 -9.42586,0 c -7.03872,1.5e-4 -11.94445,1.4221 -14.71721,4.26586 -2.70175,2.84404 -4.05256,7.96307 -4.05256,15.35708 l 0,33.39663 19.9395,0 0,9.6946 -19.9395,0 0,108.16254 -12.65852,0 0,-108.16254 -18.2647,0 0,-9.6946 18.2647,0 0,-31.15705 c 0,-13.29512 0.0623,-18.4187 6.24778,-24.46215 6.18545,-6.11424 11.9563,-8.66635 25.3938,-8.66652 l 9.21257,0"
       id="path15178" />
    <path
       inkscape:connector-curvature="0"
       d="m 282.40982,433.85338 c -21.23202,-0.34663 -40.85116,15.38338 -45.09375,36.1875 -5.04923,19.80823 -3.93013,42.58159 6.5625,60.4375 10.04593,16.09134 30.08678,22.88044 48.5,20.5 17.19888,-1.73444 32.91477,-12.64791 38.65625,-29.28125 7.76299,-20.0712 6.8379,-43.67823 -1.875,-63.15625 -8.25683,-16.12778 -26.18925,-25.82677 -44.21875,-24.75 -0.84521,-0.0201 -1.688,0.005 -2.53125,0.0625 z m 3.65625,8.53125 c 19.39917,-0.4535 34.25137,17.67765 36.03125,35.96875 3.36679,19.36866 0.91671,42.32654 -14.125,56.3125 -15.50424,13.2062 -43.02355,9.60826 -52.78125,-8.96875 -10.21927,-17.37305 -9.8592,-39.7419 -3.9375,-58.59375 5.33216,-14.36436 18.89119,-25.75197 34.8125,-24.71875 z"
       style="font-size:218.41191101px;font-style:normal;font-variant:normal;font-weight:normal;font-stretch:normal;line-height:125%;letter-spacing:0px;word-spacing:0px;fill:url(#linearGradient13951);fill-opacity:1;stroke:#63dd00;stroke-width:5.30000019;stroke-miterlimit:4;stroke-opacity:1;stroke-dasharray:none;font-family:DejaVu Sans;-inkscape-font-specification:DejaVu Sans"
       id="path15180" />
    <path
       sodipodi:nodetypes="cccccccscsccccczzczcczc"
       inkscape:connector-curvature="0"
       style="font-size:218.41191101px;font-style:normal;font-variant:normal;font-weight:normal;font-stretch:normal;line-height:125%;letter-spacing:0px;word-spacing:0px;fill:url(#linearGradient13953);fill-opacity:1;stroke:#63dd00;stroke-width:5.30000019;stroke-miterlimit:4;stroke-opacity:1;stroke-dasharray:none;font-family:DejaVu Sans;-inkscape-font-specification:DejaVu Sans"
       d="m 557.09733,450.23521 0,-80.67706 10.53158,0 0,181.99117 -10.53158,0 0,-17.9166 c -4.12375,7.10978 -9.34942,10.11199 -15.67702,13.59577 -6.25667,3.41269 -13.79301,4.32083 -22.60905,4.32083 -14.43286,0 -26.19951,-2.66615 -35.29997,-14.18397 -9.02941,-11.51779 -13.54411,-26.66157 -13.5441,-45.43139 -1e-5,-18.76969 4.51469,-33.91347 13.5441,-45.43138 9.10046,-11.5177 20.86711,-17.2766 35.29997,-17.27672 8.81604,1.2e-4 16.35238,1.74201 22.60905,5.22567 6.3276,3.4128 11.55327,8.67402 15.67702,15.78368 m -75.45361,41.69875 c -4e-5,14.43287 5.68261,32.86703 12.89226,41.59636 7.20965,8.72933 16.67381,9.73896 27.05406,9.73896 10.38025,0 18.5564,-4.0881 24.52868,-12.26434 5.97211,-8.24729 10.97861,-15.5468 10.97861,-39.07098 0,-23.52418 -5.0065,-32.30324 -10.97861,-40.47955 -5.97228,-8.24723 -14.1485,-12.37089 -24.52868,-12.37099 -10.38031,1e-4 -19.09711,1.63384 -28.56929,13.88622 -9.47218,12.25238 -11.37707,24.53158 -11.37703,38.96432"
       id="path15182" />
    <path
       sodipodi:nodetypes="ccccc"
       inkscape:connector-curvature="0"
       style="font-size:218.41191101px;font-style:normal;font-variant:normal;font-weight:normal;font-stretch:normal;line-height:125%;letter-spacing:0px;word-spacing:0px;fill:url(#linearGradient13955);fill-opacity:1;stroke:#63dd00;stroke-width:5.30000019;stroke-miterlimit:4;stroke-opacity:1;stroke-dasharray:none;font-family:DejaVu Sans;-inkscape-font-specification:DejaVu Sans"
       d="m 614.95447,369.40646 10.02649,0 0,181.99117 -10.02649,0 0,-181.99117"
       id="path15184" />
    <path
       style="fill:url(#linearGradient15116);fill-opacity:1;stroke:none"
       d="m 396.91446,431.55105 c -4.72103,0.34332 -8.93381,1.17022 -12.6875,2.4375 1.22734,4.6537 3.08034,8.76756 5.40625,12.40625 3.64685,-2.59106 7.11284,-5.83183 10.09375,-9.9375 -0.99864,-1.5406 -1.94675,-3.17014 -2.8125,-4.90625 z m 10.0625,0.0312 c -0.86033,1.7293 -1.78979,3.34561 -2.78125,4.875 2.97467,4.10019 6.42311,7.34728 10.0625,9.9375 2.30381,-3.59611 4.14101,-7.66356 5.375,-12.25 -3.72749,-1.33526 -7.93671,-2.19083 -12.65625,-2.5625 z m -26.21875,3.71875 c -3.20232,1.41808 -6.01325,3.21282 -8.5,5.28125 0.94107,4.57263 2.39649,8.71838 4.28125,12.46875 0.0412,-0.0143 0.0837,-0.0168 0.125,-0.0312 3.25315,-1.13733 6.6216,-2.65476 9.90625,-4.625 -2.48096,-3.8513 -4.4741,-8.19772 -5.8125,-13.09375 z m 42.3125,0.25 c -1.34285,4.80534 -3.30122,9.08496 -5.75,12.875 3.29196,1.97712 6.6767,3.48499 9.9375,4.625 0.0317,0.0111 0.062,0.0202 0.0937,0.0312 1.82718,-3.62289 3.26942,-7.60963 4.21875,-12 -2.46239,-2.16413 -5.29412,-4.02854 -8.5,-5.53125 z m -21.125,4.0625 c -3.05909,3.96375 -6.54449,7.18614 -10.1875,9.78125 2.93487,3.83398 6.40704,7.06685 10.1875,9.8125 3.78203,-2.74367 7.28138,-5.94951 10.21875,-9.78125 -3.65471,-2.60302 -7.15238,-5.83175 -10.21875,-9.8125 z m -32.8125,3.90625 c -2.80093,2.96749 -5.06658,6.38612 -6.90625,10.15625 0.20354,0.84285 0.42436,1.65141 0.65625,2.46875 2.80924,-0.3202 6.28524,-0.92381 10.125,-2 -1.61238,-3.27116 -2.91633,-6.79806 -3.875,-10.625 z m 65.5,0.625 c -0.94124,3.59203 -2.19354,6.94224 -3.71875,10.03125 3.83976,1.07619 7.31576,1.6798 10.125,2 0.13635,-0.47969 0.24971,-0.9783 0.375,-1.46875 -1.78274,-3.87587 -3.99389,-7.44461 -6.78125,-10.5625 z m -45.9375,7.28125 c -3.44824,2.1032 -6.96098,3.72433 -10.34375,4.9375 2.49203,4.11222 5.51917,7.6975 8.90625,10.84375 3.90748,-1.57896 7.8074,-3.48579 11.5,-5.8125 -3.70183,-2.82213 -7.13429,-6.12087 -10.0625,-9.96875 z m 26.5,0 c -2.92783,3.84085 -6.36366,7.11991 -10.0625,9.9375 3.69613,2.33334 7.58704,4.26081 11.5,5.84375 3.38383,-3.14064 6.41434,-6.73999 8.90625,-10.84375 -3.38408,-1.21599 -6.89569,-2.83054 -10.34375,-4.9375 z m -40.40625,6.0625 c -4.03761,1.18257 -7.72706,1.84234 -10.78125,2.21875 1.63566,4.65914 3.75759,8.82373 6.25,12.5625 4.06527,-0.83791 8.59583,-2.0176 13.25,-3.65625 -3.31235,-3.26398 -6.26113,-6.94288 -8.71875,-11.125 z m 54.3125,0.0312 c -2.4585,4.17073 -5.40955,7.86903 -8.71875,11.125 4.65165,1.63946 9.1848,2.78587 13.25,3.625 2.49613,-3.73792 4.61088,-7.90356 6.25,-12.5625 -3.05469,-0.37785 -6.7478,-1.00446 -10.78125,-2.1875 z m -68.875,2.5625 c -0.26486,0.0174 -0.38228,0.0181 -0.625,0.0312 -1.13949,3.38799 -2.03581,6.96059 -2.6875,10.6875 0.42026,1.11812 0.85479,2.21171 1.3125,3.28125 2.09379,-0.19301 4.81616,-0.53201 8.125,-1.09375 -2.44709,-3.87221 -4.52442,-8.14777 -6.125,-12.90625 z m 83.375,0.1875 c -1.59545,4.68454 -3.64351,8.92906 -6.0625,12.75 3.30465,0.56193 6.02812,0.86849 8.125,1.0625 0.27004,-0.63019 0.52323,-1.29172 0.78125,-1.9375 -0.64964,-4.09664 -1.57447,-8.08353 -2.84375,-11.875 z m -41.65625,3.40625 c -3.7262,2.47987 -7.669,4.52679 -11.59375,6.21875 3.59657,2.89237 7.53772,5.33751 11.59375,7.4375 4.0577,-2.09868 7.96366,-4.54639 11.5625,-7.4375 -3.91605,-1.6921 -7.84586,-3.74165 -11.5625,-6.21875 z m -15.375,7.75 c -4.8617,1.82775 -9.63338,3.13366 -13.96875,4.09375 2.76818,3.55825 5.87649,6.69922 9.25,9.4375 2.76217,-0.7402 5.58932,-1.58495 8.4375,-2.59375 2.53665,-0.89846 5.08406,-1.92967 7.59375,-3.0625 -3.97021,-2.23986 -7.78796,-4.84833 -11.3125,-7.875 z m 30.75,0.0312 c -3.51919,3.01578 -7.35083,5.61076 -11.3125,7.84375 2.52169,1.13963 5.07589,2.19088 7.625,3.09375 2.8305,1.00253 5.6291,1.82537 8.375,2.5625 3.37276,-2.73311 6.51188,-5.85494 9.28125,-9.40625 -4.33645,-0.96145 -9.10767,-2.26441 -13.96875,-4.09375 z m -48.6875,4.875 c -3.42924,0.63424 -6.41416,1.03049 -8.78125,1.28125 1.86205,3.85261 3.92994,7.3711 6.15625,10.5625 3.45699,-0.48809 7.36262,-1.19658 11.53125,-2.15625 -3.2415,-2.85534 -6.24587,-6.06026 -8.90625,-9.6875 z m 66.625,0.0312 c -2.66102,3.62074 -5.66588,6.83702 -8.90625,9.6875 4.16248,0.95885 8.07712,1.66778 11.53125,2.15625 2.22922,-3.1891 4.25993,-6.71195 6.125,-10.5625 -2.36335,-0.25194 -5.34198,-0.65003 -8.75,-1.28125 z m -79.3125,1.65625 c -0.36916,3.66143 -0.59051,7.4199 -0.65625,11.21875 1.68401,-0.10261 3.90781,-0.26218 6.625,-0.5625 -2.16022,-3.2495 -4.16811,-6.79688 -5.96875,-10.65625 z m 91.375,1.28125 c -1.64169,3.37418 -3.41864,6.51595 -5.34375,9.40625 2.31247,0.25611 4.19439,0.39319 5.78125,0.5 -0.0314,-3.29191 -0.15345,-6.60724 -0.4375,-9.90625 z m -45.40625,2.125 c -3.44246,1.69777 -6.93732,3.17759 -10.40625,4.40625 -2.00826,0.71131 -3.99606,1.32764 -5.96875,1.90625 5.14443,3.60025 10.7353,6.39322 16.40625,8.625 5.66174,-2.22563 11.23603,-5.03646 16.375,-8.625 -1.95136,-0.57357 -3.9203,-1.1716 -5.90625,-1.875 -3.49853,-1.23914 -7.02927,-2.72092 -10.5,-4.4375 z m -20.84375,7.53125 c -4.49041,1.13702 -8.75273,1.96869 -12.5625,2.5625 3.36603,4.26646 7.03556,7.90186 10.90625,11 4.25243,-0.72302 8.76423,-1.70066 13.375,-3.03125 1.35598,-0.39131 2.73134,-0.79817 4.09375,-1.25 -5.48824,-2.44923 -10.86682,-5.49519 -15.8125,-9.28125 z m 41.6875,0.0312 c -4.92587,3.7614 -10.25681,6.78087 -15.71875,9.21875 1.36584,0.45313 2.73435,0.9202 4.09375,1.3125 4.59902,1.3272 9.10074,2.2775 13.34375,3 3.86098,-3.08889 7.54676,-6.71806 10.90625,-10.96875 -3.83021,-0.59745 -8.10919,-1.41568 -12.625,-2.5625 z m -58.40625,3.125 c -3.82056,0.48209 -6.92,0.72188 -9.0625,0.84375 -0.005,1.5496 -0.0365,3.08155 -0.0625,4.625 1.31381,2.42348 2.87953,4.69384 4.65625,6.84375 3.7676,-0.10116 8.84413,-0.3906 14.78125,-1.1875 -3.65737,-3.20421 -7.13811,-6.88319 -10.3125,-11.125 z m 75.1875,0.0312 c -3.17173,4.2314 -6.65982,7.89644 -10.3125,11.09375 5.91936,0.79458 11.01636,1.11664 14.78125,1.21875 1.45812,-1.76101 2.78386,-3.61316 3.9375,-5.5625 -0.0521,-2.01343 -0.1023,-4.00343 -0.125,-5.96875 -2.1025,-0.13342 -4.88991,-0.35259 -8.28125,-0.78125 z m -37.5625,8.1875 c -2.72467,1.03259 -5.46134,1.90979 -8.15625,2.6875 -3.53846,1.02114 -7.01679,1.83864 -10.375,2.5 5.95359,4.08977 12.25372,7.02523 18.53125,9.15625 6.25677,-2.12643 12.53365,-5.08415 18.46875,-9.15625 -3.34841,-0.66029 -6.8165,-1.45084 -10.34375,-2.46875 -2.68606,-0.77515 -5.40926,-1.69044 -8.125,-2.71875 z m -46.875,3.96875 c -9.8e-4,0.0528 9.7e-4,0.10348 0,0.15625 0.0534,8.7e-4 0.0387,-9e-4 0.0937,0 -0.0355,-0.0491 -0.0584,-0.10704 -0.0937,-0.15625 z m 23.375,2.09375 c -5.86558,0.93082 -11.16371,1.38042 -15.375,1.59375 4.44458,4.42112 9.84154,8.16918 15.71875,11.375 4.27335,-0.35975 8.85768,-0.98097 13.59375,-2.03125 1.23405,-0.27367 2.47024,-0.57586 3.71875,-0.90625 -6.01931,-2.45831 -11.99111,-5.74278 -17.625,-10.03125 -0.007,-0.005 -0.0247,0.005 -0.0312,0 z m 46.875,0.0312 c -5.62545,4.27326 -11.61719,7.54878 -17.625,10 1.26141,0.33439 2.53456,0.66103 3.78125,0.9375 4.73173,1.04932 9.29247,1.64007 13.5625,2 5.86211,-3.19456 11.24699,-6.94143 15.6875,-11.34375 -4.22763,-0.21516 -9.51993,-0.65565 -15.40625,-1.59375 z m -70.28125,1.71875 c -0.0321,3.42638 -0.0581,6.78893 0.125,10.03125 0.20579,0.25341 0.41489,0.49965 0.625,0.75 3.05553,0.40192 8.78993,0.98423 16.1875,0.8125 -5.21606,-3.30622 -9.95607,-7.13806 -13.875,-11.59375 -1.29121,0.0158 -2.22916,0.009 -3.0625,0 z m 90.65625,0.0312 c -3.9154,4.43819 -8.64024,8.26701 -13.84375,11.5625 7.16133,0.16695 12.74655,-0.35162 15.875,-0.75 0.29462,-3.53449 0.36622,-7.16605 0.34375,-10.8125 -0.7356,0.004 -1.3785,0.0127 -2.375,0 z m -43.8125,10.34375 c -2.93368,0.95752 -5.85747,1.77173 -8.71875,2.40625 -2.83722,0.62919 -5.61046,1.09708 -8.3125,1.46875 5.5068,2.53553 11.26623,4.66218 17.03125,6.40625 5.76322,-1.73983 11.52283,-3.84479 17.03125,-6.375 -2.6729,-0.37002 -5.41418,-0.8468 -8.21875,-1.46875 -2.88977,-0.64084 -5.84928,-1.46694 -8.8125,-2.4375 z m -42.25,4.5625 c 4.65616,4.55111 10.09242,8.38022 15.90625,11.625 5.95095,-0.93664 12.76034,-2.2591 19.84375,-4.09375 -6.00585,-2.04913 -11.99173,-4.49102 -17.59375,-7.46875 -7.3378,0.53918 -13.67409,0.30681 -18.15625,-0.0625 z m 84.5,0.0312 c -4.50133,0.36633 -10.85585,0.57797 -18.1875,0.0312 -5.59217,2.9637 -11.54073,5.42793 -17.53125,7.46875 7.0807,1.83664 13.89015,3.15499 19.84375,4.09375 5.80205,-3.23294 11.22141,-7.0618 15.875,-11.59375 z m -88.34375,1.34375 c 0.61532,4.40852 1.68536,8.52936 3.46875,12.21875 2.52481,-0.21107 6.09678,-0.56594 10.375,-1.125 -5.03741,-3.16844 -9.73172,-6.82485 -13.84375,-11.09375 z m 91.0625,1.1875 c -3.81765,3.75328 -8.10802,7.04735 -12.65625,9.90625 3.67826,0.48122 6.67147,0.77758 9.09375,1 1.70963,-3.35617 2.83908,-7.03395 3.5625,-10.90625 z m -44.96875,7.03125 c -1.22964,0.36096 -2.46908,0.73307 -3.6875,1.0625 -5.99328,1.62045 -11.80655,2.85445 -17.15625,3.8125 6.82384,3.27199 13.96912,5.79469 20.875,7.75 6.88614,-1.94827 14.00471,-4.49313 20.8125,-7.75 -5.32323,-0.95574 -11.10557,-2.17063 -17.0625,-3.78125 -1.24977,-0.33791 -2.51976,-0.72265 -3.78125,-1.09375 z m -27.0625,5.90625 c -5.48749,0.82864 -10.13161,1.32079 -13.53125,1.625 2.94969,4.35951 7.24137,7.96087 13.46875,10.5 5.54596,-0.68724 12.53689,-1.76687 20.25,-3.59375 -6.78102,-2.20745 -13.67139,-4.99944 -20.1875,-8.53125 z m 54.125,0 c -6.50906,3.51965 -13.38672,6.29931 -20.15625,8.5 7.18332,1.70438 13.7616,2.79134 19.125,3.5 6.02406,-2.57577 10.28488,-6.19792 13.28125,-10.5 -3.29079,-0.31774 -7.34764,-0.75831 -12.25,-1.5 z m -27.09375,10.59375 c -0.97642,0.26842 -1.94404,0.53492 -2.90625,0.78125 -5.59523,1.43238 -10.9124,2.48986 -15.6875,3.28125 5.2027,1.09004 11.33036,1.6875 18.59375,1.6875 6.99514,0 12.94347,-0.63181 18,-1.78125 -4.58047,-0.7774 -9.6353,-1.79889 -14.9375,-3.15625 -1.00512,-0.25731 -2.04197,-0.53105 -3.0625,-0.8125 z"
       id="path15024"
       inkscape:connector-curvature="0"
       sodipodi:nodetypes="cccccccccccccccccccccccccccccccccccccccccccccccccccccccccccccccccccccccccccccccsccccsccccccccccccccccccccccscccsccccsccccsccccccccccccccccscccsccccccccsccccccscccccccccccccccscccscccccccccccccccccccccscccsccccccccccccscscsc" />
    <path
       style="fill:url(#linearGradient15053);fill-opacity:1;stroke:none"
       d="m 374.69901,367.21597 c 0,0 16.12389,18.08921 17.39571,28.93281 -13.27243,-12.99437 -39.80004,-7.20003 -39.80004,-7.20003 0,0 19.90885,-0.53839 34.26587,16.96391 -19.11673,-2.20788 -32.56286,7.42418 -32.56286,7.42418 0,0 28.66507,-1.45081 31.50116,5.67598 -13.21669,0.58469 -25.4686,17.72403 -25.4686,17.72403 0,0 24.71278,-12.82212 41.8888,-4.85349 14.62616,-6.94901 27.61119,-0.7836 40.10629,6.35623 0,0 -11.6629,-17.52474 -24.85389,-18.53501 3.06429,-7.03169 31.66771,-4.65798 31.66771,-4.65798 0,0 -13.15915,-10.0608 -32.33709,-8.47007 14.91353,-17.03059 34.79469,-15.85096 34.79469,-15.85096 0,0 -26.32712,-6.64613 -40.01137,5.91382 1.62056,-10.79699 18.31898,-28.35725 18.31898,-28.35725 0,0 -19.97787,4.37719 -27.77146,21.13247 -7.19613,-17.11885 -27.1339,-22.19864 -27.1339,-22.19864 z"
       id="path13088-4-6"
       inkscape:connector-curvature="0"
       sodipodi:nodetypes="ccccccccccccccccc" />
  </g>
</svg>
