<?xml version="1.0" encoding="utf-8" ?>
<!DOCTYPE svg PUBLIC "-//W3C//DTD SVG 1.1//EN" "http://www.w3.org/Graphics/SVG/1.1/DTD/svg11.dtd">
<svg height="421" version="1.1" width="392" xmlns="http://www.w3.org/2000/svg">
<polygon fill="#ffffff" points="135,230 209,230 209,254 258,254 258,284 135,284 135,230" stroke="#ffffff" stroke-width="1"/>
<rect fill="none" height="24" stroke="#000000" stroke-width="1" width="74" x="135" y="230"/>
<text font-family="Lucida Grande" font-size="13" x="140" y="244">
Controller</text>
<rect fill="none" height="30" stroke="#000000" stroke-width="1" width="123" x="135" y="254"/>
<polygon fill="#ffffff" points="31,318 82,318 82,342 131,342 131,372 31,372 31,318" stroke="#ffffff" stroke-width="1"/>
<rect fill="none" height="24" stroke="#000000" stroke-width="1" width="51" x="31" y="318"/>
<text font-family="Lucida Grande" font-size="13" x="36" y="332">
Model</text>
<rect fill="none" height="30" stroke="#000000" stroke-width="1" width="100" x="31" y="342"/>
<polygon fill="#ffffff" points="263,318 314,318 314,342 363,342 363,372 263,372 263,318" stroke="#ffffff" stroke-width="1"/>
<rect fill="none" height="24" stroke="#000000" stroke-width="1" width="51" x="263" y="318"/>
<text font-family="Lucida Grande" font-size="13" x="268" y="332">
View</text>
<rect fill="none" height="30" stroke="#000000" stroke-width="1" width="100" x="263" y="342"/>
<polygon fill="#ffffff" points="135,14 223,14 223,38 272,38 272,68 135,68 135,14" stroke="#ffffff" stroke-width="1"/>
<rect fill="none" height="24" stroke="#000000" stroke-width="1" width="88" x="135" y="14"/>
<text font-family="Lucida Grande" font-size="13" x="140" y="28">
Webbrowser</text>
<rect fill="none" height="30" stroke="#000000" stroke-width="1" width="137" x="135" y="38"/>
<line fill="#000000" stroke="#000000" stroke-width="1" x1="39" x2="39" y1="318" y2="313"/>
<line fill="#000000" stroke="#000000" stroke-width="1" x1="39" x2="39" y1="308" y2="303"/>
<line fill="#000000" stroke="#000000" stroke-width="1" x1="39" x2="39" y1="298" y2="293"/>
<line fill="#000000" stroke="#000000" stroke-width="1" x1="39" x2="39" y1="288" y2="283"/>
<line fill="#000000" stroke="#000000" stroke-width="1" x1="39" x2="39" y1="278" y2="273"/>
<line fill="#000000" stroke="#000000" stroke-width="1" x1="39" x2="39" y1="268" y2="263"/>
<line fill="#000000" stroke="#000000" stroke-width="1" x1="39" x2="44" y1="262" y2="262"/>
<line fill="#000000" stroke="#000000" stroke-width="1" x1="49" x2="54" y1="262" y2="262"/>
<line fill="#000000" stroke="#000000" stroke-width="1" x1="59" x2="64" y1="262" y2="262"/>
<line fill="#000000" stroke="#000000" stroke-width="1" x1="69" x2="74" y1="262" y2="262"/>
<line fill="#000000" stroke="#000000" stroke-width="1" x1="79" x2="84" y1="262" y2="262"/>
<line fill="#000000" stroke="#000000" stroke-width="1" x1="89" x2="94" y1="262" y2="262"/>
<line fill="#000000" stroke="#000000" stroke-width="1" x1="99" x2="104" y1="262" y2="262"/>
<line fill="#000000" stroke="#000000" stroke-width="1" x1="109" x2="114" y1="262" y2="262"/>
<line fill="#000000" stroke="#000000" stroke-width="1" x1="119" x2="124" y1="262" y2="262"/>
<line fill="#000000" stroke="#000000" stroke-width="1" x1="129" x2="134" y1="262" y2="262"/>
<line fill="#000000" stroke="#000000" stroke-width="1" x1="123" x2="135" y1="269" y2="262"/>
<line fill="#000000" stroke="#000000" stroke-width="1" x1="123" x2="135" y1="255" y2="262"/>
<line fill="#000000" stroke="#000000" stroke-width="1" x1="135" x2="130" y1="278" y2="278"/>
<line fill="#000000" stroke="#000000" stroke-width="1" x1="125" x2="120" y1="278" y2="278"/>
<line fill="#000000" stroke="#000000" stroke-width="1" x1="115" x2="110" y1="278" y2="278"/>
<line fill="#000000" stroke="#000000" stroke-width="1" x1="105" x2="100" y1="278" y2="278"/>
<line fill="#000000" stroke="#000000" stroke-width="1" x1="95" x2="90" y1="278" y2="278"/>
<line fill="#000000" stroke="#000000" stroke-width="1" x1="85" x2="80" y1="278" y2="278"/>
<line fill="#000000" stroke="#000000" stroke-width="1" x1="75" x2="70" y1="278" y2="278"/>
<line fill="#000000" stroke="#000000" stroke-width="1" x1="65" x2="60" y1="278" y2="278"/>
<line fill="#000000" stroke="#000000" stroke-width="1" x1="55" x2="55" y1="278" y2="283"/>
<line fill="#000000" stroke="#000000" stroke-width="1" x1="55" x2="55" y1="288" y2="293"/>
<line fill="#000000" stroke="#000000" stroke-width="1" x1="55" x2="55" y1="298" y2="303"/>
<line fill="#000000" stroke="#000000" stroke-width="1" x1="55" x2="55" y1="308" y2="313"/>
<line fill="#000000" stroke="#000000" stroke-width="1" x1="48" x2="55" y1="306" y2="318"/>
<line fill="#000000" stroke="#000000" stroke-width="1" x1="62" x2="55" y1="306" y2="318"/>
<line fill="#000000" stroke="#000000" stroke-width="1" x1="259" x2="264" y1="278" y2="278"/>
<line fill="#000000" stroke="#000000" stroke-width="1" x1="269" x2="274" y1="278" y2="278"/>
<line fill="#000000" stroke="#000000" stroke-width="1" x1="279" x2="279" y1="278" y2="283"/>
<line fill="#000000" stroke="#000000" stroke-width="1" x1="279" x2="279" y1="288" y2="293"/>
<line fill="#000000" stroke="#000000" stroke-width="1" x1="279" x2="279" y1="298" y2="303"/>
<line fill="#000000" stroke="#000000" stroke-width="1" x1="279" x2="279" y1="308" y2="313"/>
<line fill="#000000" stroke="#000000" stroke-width="1" x1="272" x2="279" y1="306" y2="318"/>
<line fill="#000000" stroke="#000000" stroke-width="1" x1="286" x2="279" y1="306" y2="318"/>
<line fill="#000000" stroke="#000000" stroke-width="1" x1="303" x2="303" y1="318" y2="313"/>
<line fill="#000000" stroke="#000000" stroke-width="1" x1="303" x2="303" y1="308" y2="303"/>
<line fill="#000000" stroke="#000000" stroke-width="1" x1="303" x2="303" y1="298" y2="293"/>
<line fill="#000000" stroke="#000000" stroke-width="1" x1="303" x2="303" y1="288" y2="283"/>
<line fill="#000000" stroke="#000000" stroke-width="1" x1="303" x2="303" y1="278" y2="273"/>
<line fill="#000000" stroke="#000000" stroke-width="1" x1="303" x2="303" y1="268" y2="263"/>
<line fill="#000000" stroke="#000000" stroke-width="1" x1="303" x2="298" y1="262" y2="262"/>
<line fill="#000000" stroke="#000000" stroke-width="1" x1="293" x2="288" y1="262" y2="262"/>
<line fill="#000000" stroke="#000000" stroke-width="1" x1="283" x2="278" y1="262" y2="262"/>
<line fill="#000000" stroke="#000000" stroke-width="1" x1="273" x2="268" y1="262" y2="262"/>
<line fill="#000000" stroke="#000000" stroke-width="1" x1="263" x2="259" y1="262" y2="262"/>
<line fill="#000000" stroke="#000000" stroke-width="1" x1="271" x2="259" y1="255" y2="262"/>
<line fill="#000000" stroke="#000000" stroke-width="1" x1="271" x2="259" y1="269" y2="262"/>
<rect fill="#ffffff" height="25" stroke="#ffffff" stroke-width="1" width="78" x="135" y="118"/>
<rect fill="none" height="25" stroke="#000000" stroke-width="1" width="78" x="135" y="118"/>
<text font-family="Lucida Grande" font-size="13" x="142" y="132">
Webserver</text>
<line fill="#000000" stroke="#000000" stroke-width="1" x1="151" x2="151" y1="69" y2="74"/>
<line fill="#000000" stroke="#000000" stroke-width="1" x1="151" x2="151" y1="79" y2="84"/>
<line fill="#000000" stroke="#000000" stroke-width="1" x1="151" x2="151" y1="89" y2="94"/>
<line fill="#000000" stroke="#000000" stroke-width="1" x1="151" x2="151" y1="99" y2="104"/>
<line fill="#000000" stroke="#000000" stroke-width="1" x1="151" x2="151" y1="109" y2="114"/>
<line fill="#000000" stroke="#000000" stroke-width="1" x1="144" x2="151" y1="106" y2="118"/>
<line fill="#000000" stroke="#000000" stroke-width="1" x1="158" x2="151" y1="106" y2="118"/>
<line fill="#000000" stroke="#000000" stroke-width="1" x1="191" x2="191" y1="118" y2="113"/>
<line fill="#000000" stroke="#000000" stroke-width="1" x1="191" x2="191" y1="108" y2="103"/>
<line fill="#000000" stroke="#000000" stroke-width="1" x1="191" x2="191" y1="98" y2="93"/>
<line fill="#000000" stroke="#000000" stroke-width="1" x1="191" x2="191" y1="88" y2="83"/>
<line fill="#000000" stroke="#000000" stroke-width="1" x1="191" x2="191" y1="78" y2="73"/>
<line fill="#000000" stroke="#000000" stroke-width="1" x1="198" x2="191" y1="81" y2="69"/>
<line fill="#000000" stroke="#000000" stroke-width="1" x1="184" x2="191" y1="81" y2="69"/>
<line fill="#000000" stroke="#000000" stroke-width="1" x1="231" x2="231" y1="230" y2="225"/>
<line fill="#000000" stroke="#000000" stroke-width="1" x1="231" x2="231" y1="220" y2="215"/>
<line fill="#000000" stroke="#000000" stroke-width="1" x1="231" x2="231" y1="210" y2="205"/>
<line fill="#000000" stroke="#000000" stroke-width="1" x1="231" x2="231" y1="200" y2="195"/>
<line fill="#000000" stroke="#000000" stroke-width="1" x1="231" x2="231" y1="190" y2="185"/>
<line fill="#000000" stroke="#000000" stroke-width="1" x1="231" x2="231" y1="180" y2="175"/>
<line fill="#000000" stroke="#000000" stroke-width="1" x1="231" x2="231" y1="170" y2="165"/>
<line fill="#000000" stroke="#000000" stroke-width="1" x1="231" x2="231" y1="160" y2="155"/>
<line fill="#000000" stroke="#000000" stroke-width="1" x1="231" x2="231" y1="150" y2="145"/>
<line fill="#000000" stroke="#000000" stroke-width="1" x1="231" x2="231" y1="140" y2="135"/>
<line fill="#000000" stroke="#000000" stroke-width="1" x1="231" x2="231" y1="130" y2="125"/>
<line fill="#000000" stroke="#000000" stroke-width="1" x1="231" x2="231" y1="120" y2="115"/>
<line fill="#000000" stroke="#000000" stroke-width="1" x1="231" x2="231" y1="110" y2="105"/>
<line fill="#000000" stroke="#000000" stroke-width="1" x1="231" x2="231" y1="100" y2="95"/>
<line fill="#000000" stroke="#000000" stroke-width="1" x1="231" x2="231" y1="90" y2="85"/>
<line fill="#000000" stroke="#000000" stroke-width="1" x1="231" x2="231" y1="80" y2="75"/>
<line fill="#000000" stroke="#000000" stroke-width="1" x1="231" x2="231" y1="70" y2="69"/>
<line fill="#000000" stroke="#000000" stroke-width="1" x1="238" x2="231" y1="81" y2="69"/>
<line fill="#000000" stroke="#000000" stroke-width="1" x1="224" x2="231" y1="81" y2="69"/>
<rect fill="#ffffff" height="25" stroke="#ffffff" stroke-width="1" width="80" x="135" y="150"/>
<rect fill="none" height="25" stroke="#000000" stroke-width="1" width="80" x="135" y="150"/>
<text font-family="Lucida Grande" font-size="13" x="153" y="164">
Routes</text>
<rect fill="#ffffff" height="25" stroke="#ffffff" stroke-width="1" width="78" x="135" y="182"/>
<rect fill="none" height="25" stroke="#000000" stroke-width="1" width="78" x="135" y="182"/>
<text font-family="Lucida Grande" font-size="13" x="140" y="196">
Dispatcher</text>
<line fill="#000000" stroke="#000000" stroke-width="1" x1="151" x2="151" y1="206" y2="211"/>
<line fill="#000000" stroke="#000000" stroke-width="1" x1="151" x2="151" y1="216" y2="221"/>
<line fill="#000000" stroke="#000000" stroke-width="1" x1="151" x2="151" y1="226" y2="230"/>
<line fill="#000000" stroke="#000000" stroke-width="1" x1="144" x2="151" y1="218" y2="230"/>
<line fill="#000000" stroke="#000000" stroke-width="1" x1="158" x2="151" y1="218" y2="230"/>
<rect fill="#ffffff" height="25" stroke="#ffffff" stroke-width="1" width="68" x="31" y="382"/>
<rect fill="none" height="25" stroke="#000000" stroke-width="1" width="68" x="31" y="382"/>
<text font-family="Lucida Grande" font-size="13" x="36" y="396">
Database</text>
</svg>
