<?xml version="1.0" encoding="utf-8" ?>
<!DOCTYPE svg PUBLIC "-//W3C//DTD SVG 1.1//EN" "http://www.w3.org/Graphics/SVG/1.1/DTD/svg11.dtd">
<svg height="388" version="1.1" width="445" xmlns="http://www.w3.org/2000/svg">
<polygon fill="#ffffff" points="119,14 261,14 261,38 310,38 310,117 119,117 119,14" stroke="#ffffff" stroke-width="1"/>
<rect fill="none" height="24" stroke="#000000" stroke-width="1" width="142" x="119" y="14"/>
<text font-family="Lucida Grande" font-size="13" x="124" y="28">
Klient</text>
<rect fill="none" height="79" stroke="#000000" stroke-width="1" width="191" x="119" y="38"/>
<polygon fill="#ffffff" points="15,134 381,134 381,158 430,158 430,373 15,373 15,134" stroke="#ffffff" stroke-width="1"/>
<rect fill="none" height="24" stroke="#000000" stroke-width="1" width="366" x="15" y="134"/>
<text font-family="Lucida Grande" font-size="13" x="20" y="148">
Server</text>
<rect fill="none" height="215" stroke="#000000" stroke-width="1" width="415" x="15" y="158"/>
<polygon fill="#ffffff" points="135,182 209,182 209,206 258,206 258,236 135,236 135,182" stroke="#ffffff" stroke-width="1"/>
<rect fill="none" height="24" stroke="#000000" stroke-width="1" width="74" x="135" y="182"/>
<text font-family="Lucida Grande" font-size="13" x="140" y="196">
Controller</text>
<rect fill="none" height="30" stroke="#000000" stroke-width="1" width="123" x="135" y="206"/>
<polygon fill="#ffffff" points="31,270 82,270 82,294 131,294 131,324 31,324 31,270" stroke="#ffffff" stroke-width="1"/>
<rect fill="none" height="24" stroke="#000000" stroke-width="1" width="51" x="31" y="270"/>
<text font-family="Lucida Grande" font-size="13" x="36" y="284">
Model</text>
<rect fill="none" height="30" stroke="#000000" stroke-width="1" width="100" x="31" y="294"/>
<polygon fill="#ffffff" points="311,270 362,270 362,294 411,294 411,324 311,324 311,270" stroke="#ffffff" stroke-width="1"/>
<rect fill="none" height="24" stroke="#000000" stroke-width="1" width="51" x="311" y="270"/>
<text font-family="Lucida Grande" font-size="13" x="316" y="284">
View</text>
<rect fill="none" height="30" stroke="#000000" stroke-width="1" width="100" x="311" y="294"/>
<polygon fill="#ffffff" points="127,54 215,54 215,78 264,78 264,108 127,108 127,54" stroke="#ffffff" stroke-width="1"/>
<rect fill="none" height="24" stroke="#000000" stroke-width="1" width="88" x="127" y="54"/>
<text font-family="Lucida Grande" font-size="13" x="132" y="68">
Webbrowser</text>
<rect fill="none" height="30" stroke="#000000" stroke-width="1" width="137" x="127" y="78"/>
<line fill="#000000" stroke="#000000" stroke-width="1" x1="39" x2="39" y1="270" y2="265"/>
<line fill="#000000" stroke="#000000" stroke-width="1" x1="39" x2="39" y1="260" y2="255"/>
<line fill="#000000" stroke="#000000" stroke-width="1" x1="39" x2="39" y1="250" y2="245"/>
<line fill="#000000" stroke="#000000" stroke-width="1" x1="39" x2="39" y1="240" y2="235"/>
<line fill="#000000" stroke="#000000" stroke-width="1" x1="39" x2="39" y1="230" y2="225"/>
<line fill="#000000" stroke="#000000" stroke-width="1" x1="39" x2="39" y1="220" y2="215"/>
<line fill="#000000" stroke="#000000" stroke-width="1" x1="39" x2="44" y1="214" y2="214"/>
<line fill="#000000" stroke="#000000" stroke-width="1" x1="49" x2="54" y1="214" y2="214"/>
<line fill="#000000" stroke="#000000" stroke-width="1" x1="59" x2="64" y1="214" y2="214"/>
<line fill="#000000" stroke="#000000" stroke-width="1" x1="69" x2="74" y1="214" y2="214"/>
<line fill="#000000" stroke="#000000" stroke-width="1" x1="79" x2="84" y1="214" y2="214"/>
<line fill="#000000" stroke="#000000" stroke-width="1" x1="89" x2="94" y1="214" y2="214"/>
<line fill="#000000" stroke="#000000" stroke-width="1" x1="99" x2="104" y1="214" y2="214"/>
<line fill="#000000" stroke="#000000" stroke-width="1" x1="109" x2="114" y1="214" y2="214"/>
<line fill="#000000" stroke="#000000" stroke-width="1" x1="119" x2="124" y1="214" y2="214"/>
<line fill="#000000" stroke="#000000" stroke-width="1" x1="129" x2="134" y1="214" y2="214"/>
<line fill="#000000" stroke="#000000" stroke-width="1" x1="123" x2="135" y1="221" y2="214"/>
<line fill="#000000" stroke="#000000" stroke-width="1" x1="123" x2="135" y1="207" y2="214"/>
<line fill="#000000" stroke="#000000" stroke-width="1" x1="135" x2="130" y1="230" y2="230"/>
<line fill="#000000" stroke="#000000" stroke-width="1" x1="125" x2="120" y1="230" y2="230"/>
<line fill="#000000" stroke="#000000" stroke-width="1" x1="115" x2="110" y1="230" y2="230"/>
<line fill="#000000" stroke="#000000" stroke-width="1" x1="105" x2="100" y1="230" y2="230"/>
<line fill="#000000" stroke="#000000" stroke-width="1" x1="95" x2="90" y1="230" y2="230"/>
<line fill="#000000" stroke="#000000" stroke-width="1" x1="85" x2="80" y1="230" y2="230"/>
<line fill="#000000" stroke="#000000" stroke-width="1" x1="75" x2="70" y1="230" y2="230"/>
<line fill="#000000" stroke="#000000" stroke-width="1" x1="65" x2="60" y1="230" y2="230"/>
<line fill="#000000" stroke="#000000" stroke-width="1" x1="55" x2="55" y1="230" y2="235"/>
<line fill="#000000" stroke="#000000" stroke-width="1" x1="55" x2="55" y1="240" y2="245"/>
<line fill="#000000" stroke="#000000" stroke-width="1" x1="55" x2="55" y1="250" y2="255"/>
<line fill="#000000" stroke="#000000" stroke-width="1" x1="55" x2="55" y1="260" y2="265"/>
<line fill="#000000" stroke="#000000" stroke-width="1" x1="48" x2="55" y1="258" y2="270"/>
<line fill="#000000" stroke="#000000" stroke-width="1" x1="62" x2="55" y1="258" y2="270"/>
<line fill="#000000" stroke="#000000" stroke-width="1" x1="259" x2="264" y1="230" y2="230"/>
<line fill="#000000" stroke="#000000" stroke-width="1" x1="269" x2="274" y1="230" y2="230"/>
<line fill="#000000" stroke="#000000" stroke-width="1" x1="279" x2="284" y1="230" y2="230"/>
<line fill="#000000" stroke="#000000" stroke-width="1" x1="289" x2="294" y1="230" y2="230"/>
<line fill="#000000" stroke="#000000" stroke-width="1" x1="299" x2="304" y1="230" y2="230"/>
<line fill="#000000" stroke="#000000" stroke-width="1" x1="309" x2="314" y1="230" y2="230"/>
<line fill="#000000" stroke="#000000" stroke-width="1" x1="319" x2="324" y1="230" y2="230"/>
<line fill="#000000" stroke="#000000" stroke-width="1" x1="329" x2="334" y1="230" y2="230"/>
<line fill="#000000" stroke="#000000" stroke-width="1" x1="335" x2="335" y1="230" y2="235"/>
<line fill="#000000" stroke="#000000" stroke-width="1" x1="335" x2="335" y1="240" y2="245"/>
<line fill="#000000" stroke="#000000" stroke-width="1" x1="335" x2="335" y1="250" y2="255"/>
<line fill="#000000" stroke="#000000" stroke-width="1" x1="335" x2="335" y1="260" y2="265"/>
<line fill="#000000" stroke="#000000" stroke-width="1" x1="328" x2="335" y1="258" y2="270"/>
<line fill="#000000" stroke="#000000" stroke-width="1" x1="342" x2="335" y1="258" y2="270"/>
<line fill="#000000" stroke="#000000" stroke-width="1" x1="351" x2="351" y1="270" y2="265"/>
<line fill="#000000" stroke="#000000" stroke-width="1" x1="351" x2="351" y1="260" y2="255"/>
<line fill="#000000" stroke="#000000" stroke-width="1" x1="351" x2="351" y1="250" y2="245"/>
<line fill="#000000" stroke="#000000" stroke-width="1" x1="351" x2="351" y1="240" y2="235"/>
<line fill="#000000" stroke="#000000" stroke-width="1" x1="351" x2="351" y1="230" y2="225"/>
<line fill="#000000" stroke="#000000" stroke-width="1" x1="351" x2="351" y1="220" y2="215"/>
<line fill="#000000" stroke="#000000" stroke-width="1" x1="351" x2="346" y1="214" y2="214"/>
<line fill="#000000" stroke="#000000" stroke-width="1" x1="341" x2="336" y1="214" y2="214"/>
<line fill="#000000" stroke="#000000" stroke-width="1" x1="331" x2="326" y1="214" y2="214"/>
<line fill="#000000" stroke="#000000" stroke-width="1" x1="321" x2="316" y1="214" y2="214"/>
<line fill="#000000" stroke="#000000" stroke-width="1" x1="311" x2="306" y1="214" y2="214"/>
<line fill="#000000" stroke="#000000" stroke-width="1" x1="301" x2="296" y1="214" y2="214"/>
<line fill="#000000" stroke="#000000" stroke-width="1" x1="291" x2="286" y1="214" y2="214"/>
<line fill="#000000" stroke="#000000" stroke-width="1" x1="281" x2="276" y1="214" y2="214"/>
<line fill="#000000" stroke="#000000" stroke-width="1" x1="271" x2="266" y1="214" y2="214"/>
<line fill="#000000" stroke="#000000" stroke-width="1" x1="261" x2="259" y1="214" y2="214"/>
<line fill="#000000" stroke="#000000" stroke-width="1" x1="271" x2="259" y1="207" y2="214"/>
<line fill="#000000" stroke="#000000" stroke-width="1" x1="271" x2="259" y1="221" y2="214"/>
<line fill="#000000" stroke="#000000" stroke-width="1" x1="191" x2="191" y1="182" y2="177"/>
<line fill="#000000" stroke="#000000" stroke-width="1" x1="191" x2="191" y1="172" y2="167"/>
<line fill="#000000" stroke="#000000" stroke-width="1" x1="191" x2="191" y1="162" y2="157"/>
<line fill="#000000" stroke="#000000" stroke-width="1" x1="191" x2="191" y1="152" y2="147"/>
<line fill="#000000" stroke="#000000" stroke-width="1" x1="191" x2="191" y1="142" y2="137"/>
<line fill="#000000" stroke="#000000" stroke-width="1" x1="191" x2="191" y1="132" y2="127"/>
<line fill="#000000" stroke="#000000" stroke-width="1" x1="191" x2="191" y1="122" y2="117"/>
<line fill="#000000" stroke="#000000" stroke-width="1" x1="191" x2="191" y1="112" y2="109"/>
<line fill="#000000" stroke="#000000" stroke-width="1" x1="198" x2="191" y1="121" y2="109"/>
<line fill="#000000" stroke="#000000" stroke-width="1" x1="184" x2="191" y1="121" y2="109"/>
<rect fill="#ffffff" height="25" stroke="#ffffff" stroke-width="1" width="68" x="31" y="334"/>
<rect fill="none" height="25" stroke="#000000" stroke-width="1" width="68" x="31" y="334"/>
<text font-family="Lucida Grande" font-size="13" x="36" y="348">
Database</text>
<line fill="#000000" stroke="#000000" stroke-width="1" x1="159" x2="159" y1="109" y2="114"/>
<line fill="#000000" stroke="#000000" stroke-width="1" x1="159" x2="159" y1="119" y2="124"/>
<line fill="#000000" stroke="#000000" stroke-width="1" x1="159" x2="159" y1="129" y2="134"/>
<line fill="#000000" stroke="#000000" stroke-width="1" x1="159" x2="159" y1="139" y2="144"/>
<line fill="#000000" stroke="#000000" stroke-width="1" x1="159" x2="159" y1="149" y2="154"/>
<line fill="#000000" stroke="#000000" stroke-width="1" x1="159" x2="159" y1="159" y2="164"/>
<line fill="#000000" stroke="#000000" stroke-width="1" x1="159" x2="159" y1="169" y2="174"/>
<line fill="#000000" stroke="#000000" stroke-width="1" x1="159" x2="159" y1="179" y2="182"/>
<line fill="#000000" stroke="#000000" stroke-width="1" x1="152" x2="159" y1="170" y2="182"/>
<line fill="#000000" stroke="#000000" stroke-width="1" x1="166" x2="159" y1="170" y2="182"/>
</svg>
