<?xml version="1.0" encoding="UTF-8" standalone="no"?>
<svg
   xmlns:dc="http://purl.org/dc/elements/1.1/"
   xmlns:cc="http://creativecommons.org/ns#"
   xmlns:rdf="http://www.w3.org/1999/02/22-rdf-syntax-ns#"
   xmlns:svg="http://www.w3.org/2000/svg"
   xmlns="http://www.w3.org/2000/svg"
   xmlns:sodipodi="http://sodipodi.sourceforge.net/DTD/sodipodi-0.dtd"
   xmlns:inkscape="http://www.inkscape.org/namespaces/inkscape"
   height="282"
   version="1.1"
   width="381"
   id="svg2"
   inkscape:version="0.48.3.1 r9886"
   sodipodi:docname="railsMVC.svg">
  <metadata
     id="metadata206">
    <rdf:RDF>
      <cc:Work
         rdf:about="">
        <dc:format>image/svg+xml</dc:format>
        <dc:type
           rdf:resource="http://purl.org/dc/dcmitype/StillImage" />
      </cc:Work>
    </rdf:RDF>
  </metadata>
  <defs
     id="defs204" />
  <sodipodi:namedview
     pagecolor="#ffffff"
     bordercolor="#666666"
     borderopacity="1"
     objecttolerance="10"
     gridtolerance="10"
     guidetolerance="10"
     inkscape:pageopacity="0"
     inkscape:pageshadow="2"
     inkscape:window-width="1366"
     inkscape:window-height="720"
     id="namedview202"
     showgrid="false"
     fit-margin-top="0"
     fit-margin-left="0"
     fit-margin-right="0"
     fit-margin-bottom="0"
     inkscape:zoom="2"
     inkscape:cx="198.68178"
     inkscape:cy="104.25797"
     inkscape:window-x="0"
     inkscape:window-y="0"
     inkscape:window-maximized="1"
     inkscape:current-layer="svg2" />
  <polygon
     points="258,150 258,180 135,180 135,126 135,126 209,126 209,150 "
     id="polygon4"
     style="fill:#ffffff;stroke:#ffffff;stroke-width:1"
     transform="translate(-30.5,-13.5)" />
  <rect
     height="24"
     width="74"
     x="104.5"
     y="112.5"
     id="rect6"
     style="fill:none;stroke:#000000;stroke-width:1" />
  <text
     font-size="13"
     x="109.5"
     y="126.5"
     id="text8"
     style="font-size:13px;font-family:Lucida Grande">Controller</text>
  <rect
     height="30"
     width="123"
     x="104.5"
     y="136.5"
     id="rect10"
     style="fill:none;stroke:#000000;stroke-width:1" />
  <polygon
     points="131,238 131,268 31,268 31,214 31,214 82,214 82,238 "
     id="polygon12"
     style="fill:#ffffff;stroke:#ffffff;stroke-width:1"
     transform="translate(-30.5,-13.5)" />
  <rect
     height="24"
     width="51"
     x="0.5"
     y="200.5"
     id="rect14"
     style="fill:none;stroke:#000000;stroke-width:1" />
  <text
     font-size="13"
     x="5.5"
     y="214.5"
     id="text16"
     style="font-size:13px;font-family:Lucida Grande">Model</text>
  <rect
     height="30"
     width="100"
     x="0.5"
     y="224.5"
     id="rect18"
     style="fill:none;stroke:#000000;stroke-width:1" />
  <polygon
     points="411,238 411,268 311,268 311,214 311,214 362,214 362,238 "
     id="polygon20"
     style="fill:#ffffff;stroke:#ffffff;stroke-width:1"
     transform="translate(-30.5,-13.5)" />
  <rect
     height="24"
     width="51"
     x="280.5"
     y="200.5"
     id="rect22"
     style="fill:none;stroke:#000000;stroke-width:1" />
  <text
     font-size="13"
     x="285.5"
     y="214.5"
     id="text24"
     style="font-size:13px;font-family:Lucida Grande">View</text>
  <rect
     height="30"
     width="100"
     x="280.5"
     y="224.5"
     id="rect26"
     style="fill:none;stroke:#000000;stroke-width:1" />
  <polygon
     points="262,38 262,69 119,69 119,14 119,14 213,14 213,38 "
     id="polygon28"
     style="fill:#ffffff;stroke:#ffffff;stroke-width:1"
     transform="translate(-30.5,-13.5)" />
  <rect
     height="24"
     width="94"
     x="88.5"
     y="0.5"
     id="rect30"
     style="fill:none;stroke:#000000;stroke-width:1" />
  <text
     font-size="13"
     x="93.5"
     y="14.5"
     id="text32"
     style="font-size:13px;font-family:Lucida Grande">Webbrowser</text>
  <rect
     height="31"
     width="143"
     x="88.5"
     y="24.5"
     id="rect34"
     style="fill:none;stroke:#000000;stroke-width:1" />
  <line
     x1="8.5"
     x2="8.5"
     y1="200.5"
     y2="195.5"
     id="line36"
     style="fill:#000000;stroke:#000000;stroke-width:1" />
  <line
     x1="8.5"
     x2="8.5"
     y1="190.5"
     y2="185.5"
     id="line38"
     style="fill:#000000;stroke:#000000;stroke-width:1" />
  <line
     x1="8.5"
     x2="8.5"
     y1="180.5"
     y2="175.5"
     id="line40"
     style="fill:#000000;stroke:#000000;stroke-width:1" />
  <line
     x1="8.5"
     x2="8.5"
     y1="170.5"
     y2="165.5"
     id="line42"
     style="fill:#000000;stroke:#000000;stroke-width:1" />
  <line
     x1="8.5"
     x2="8.5"
     y1="160.5"
     y2="155.5"
     id="line44"
     style="fill:#000000;stroke:#000000;stroke-width:1" />
  <line
     x1="8.5"
     x2="8.5"
     y1="150.5"
     y2="145.5"
     id="line46"
     style="fill:#000000;stroke:#000000;stroke-width:1" />
  <line
     x1="8.5"
     x2="13.5"
     y1="144.5"
     y2="144.5"
     id="line48"
     style="fill:#000000;stroke:#000000;stroke-width:1" />
  <line
     x1="18.5"
     x2="23.5"
     y1="144.5"
     y2="144.5"
     id="line50"
     style="fill:#000000;stroke:#000000;stroke-width:1" />
  <line
     x1="28.5"
     x2="33.5"
     y1="144.5"
     y2="144.5"
     id="line52"
     style="fill:#000000;stroke:#000000;stroke-width:1" />
  <line
     x1="38.5"
     x2="43.5"
     y1="144.5"
     y2="144.5"
     id="line54"
     style="fill:#000000;stroke:#000000;stroke-width:1" />
  <line
     x1="48.5"
     x2="53.5"
     y1="144.5"
     y2="144.5"
     id="line56"
     style="fill:#000000;stroke:#000000;stroke-width:1" />
  <line
     x1="58.5"
     x2="63.5"
     y1="144.5"
     y2="144.5"
     id="line58"
     style="fill:#000000;stroke:#000000;stroke-width:1" />
  <line
     x1="68.5"
     x2="73.5"
     y1="144.5"
     y2="144.5"
     id="line60"
     style="fill:#000000;stroke:#000000;stroke-width:1" />
  <line
     x1="78.5"
     x2="83.5"
     y1="144.5"
     y2="144.5"
     id="line62"
     style="fill:#000000;stroke:#000000;stroke-width:1" />
  <line
     x1="88.5"
     x2="93.5"
     y1="144.5"
     y2="144.5"
     id="line64"
     style="fill:#000000;stroke:#000000;stroke-width:1" />
  <line
     x1="98.5"
     x2="103.5"
     y1="144.5"
     y2="144.5"
     id="line66"
     style="fill:#000000;stroke:#000000;stroke-width:1" />
  <line
     x1="92.5"
     x2="104.5"
     y1="151.5"
     y2="144.5"
     id="line68"
     style="fill:#000000;stroke:#000000;stroke-width:1" />
  <line
     x1="92.5"
     x2="104.5"
     y1="137.5"
     y2="144.5"
     id="line70"
     style="fill:#000000;stroke:#000000;stroke-width:1" />
  <line
     x1="104.5"
     x2="99.5"
     y1="160.5"
     y2="160.5"
     id="line72"
     style="fill:#000000;stroke:#000000;stroke-width:1" />
  <line
     x1="94.5"
     x2="89.5"
     y1="160.5"
     y2="160.5"
     id="line74"
     style="fill:#000000;stroke:#000000;stroke-width:1" />
  <line
     x1="84.5"
     x2="79.5"
     y1="160.5"
     y2="160.5"
     id="line76"
     style="fill:#000000;stroke:#000000;stroke-width:1" />
  <line
     x1="74.5"
     x2="69.5"
     y1="160.5"
     y2="160.5"
     id="line78"
     style="fill:#000000;stroke:#000000;stroke-width:1" />
  <line
     x1="64.5"
     x2="59.5"
     y1="160.5"
     y2="160.5"
     id="line80"
     style="fill:#000000;stroke:#000000;stroke-width:1" />
  <line
     x1="54.5"
     x2="49.5"
     y1="160.5"
     y2="160.5"
     id="line82"
     style="fill:#000000;stroke:#000000;stroke-width:1" />
  <line
     x1="44.5"
     x2="39.5"
     y1="160.5"
     y2="160.5"
     id="line84"
     style="fill:#000000;stroke:#000000;stroke-width:1" />
  <line
     x1="34.5"
     x2="29.5"
     y1="160.5"
     y2="160.5"
     id="line86"
     style="fill:#000000;stroke:#000000;stroke-width:1" />
  <line
     x1="24.5"
     x2="24.5"
     y1="160.5"
     y2="165.5"
     id="line88"
     style="fill:#000000;stroke:#000000;stroke-width:1" />
  <line
     x1="24.5"
     x2="24.5"
     y1="170.5"
     y2="175.5"
     id="line90"
     style="fill:#000000;stroke:#000000;stroke-width:1" />
  <line
     x1="24.5"
     x2="24.5"
     y1="180.5"
     y2="185.5"
     id="line92"
     style="fill:#000000;stroke:#000000;stroke-width:1" />
  <line
     x1="24.5"
     x2="24.5"
     y1="190.5"
     y2="195.5"
     id="line94"
     style="fill:#000000;stroke:#000000;stroke-width:1" />
  <line
     x1="17.5"
     x2="24.5"
     y1="188.5"
     y2="200.5"
     id="line96"
     style="fill:#000000;stroke:#000000;stroke-width:1" />
  <line
     x1="31.5"
     x2="24.5"
     y1="188.5"
     y2="200.5"
     id="line98"
     style="fill:#000000;stroke:#000000;stroke-width:1" />
  <line
     x1="228.5"
     x2="233.5"
     y1="160.5"
     y2="160.5"
     id="line100"
     style="fill:#000000;stroke:#000000;stroke-width:1" />
  <line
     x1="238.5"
     x2="243.5"
     y1="160.5"
     y2="160.5"
     id="line102"
     style="fill:#000000;stroke:#000000;stroke-width:1" />
  <line
     x1="248.5"
     x2="253.5"
     y1="160.5"
     y2="160.5"
     id="line104"
     style="fill:#000000;stroke:#000000;stroke-width:1" />
  <line
     x1="258.5"
     x2="263.5"
     y1="160.5"
     y2="160.5"
     id="line106"
     style="fill:#000000;stroke:#000000;stroke-width:1" />
  <line
     x1="268.5"
     x2="273.5"
     y1="160.5"
     y2="160.5"
     id="line108"
     style="fill:#000000;stroke:#000000;stroke-width:1" />
  <line
     x1="278.5"
     x2="283.5"
     y1="160.5"
     y2="160.5"
     id="line110"
     style="fill:#000000;stroke:#000000;stroke-width:1" />
  <line
     x1="288.5"
     x2="293.5"
     y1="160.5"
     y2="160.5"
     id="line112"
     style="fill:#000000;stroke:#000000;stroke-width:1" />
  <line
     x1="298.5"
     x2="303.5"
     y1="160.5"
     y2="160.5"
     id="line114"
     style="fill:#000000;stroke:#000000;stroke-width:1" />
  <line
     x1="304.5"
     x2="304.5"
     y1="160.5"
     y2="165.5"
     id="line116"
     style="fill:#000000;stroke:#000000;stroke-width:1" />
  <line
     x1="304.5"
     x2="304.5"
     y1="170.5"
     y2="175.5"
     id="line118"
     style="fill:#000000;stroke:#000000;stroke-width:1" />
  <line
     x1="304.5"
     x2="304.5"
     y1="180.5"
     y2="185.5"
     id="line120"
     style="fill:#000000;stroke:#000000;stroke-width:1" />
  <line
     x1="304.5"
     x2="304.5"
     y1="190.5"
     y2="195.5"
     id="line122"
     style="fill:#000000;stroke:#000000;stroke-width:1" />
  <line
     x1="297.5"
     x2="304.5"
     y1="188.5"
     y2="200.5"
     id="line124"
     style="fill:#000000;stroke:#000000;stroke-width:1" />
  <line
     x1="311.5"
     x2="304.5"
     y1="188.5"
     y2="200.5"
     id="line126"
     style="fill:#000000;stroke:#000000;stroke-width:1" />
  <line
     x1="320.5"
     x2="320.5"
     y1="200.5"
     y2="195.5"
     id="line128"
     style="fill:#000000;stroke:#000000;stroke-width:1" />
  <line
     x1="320.5"
     x2="320.5"
     y1="190.5"
     y2="185.5"
     id="line130"
     style="fill:#000000;stroke:#000000;stroke-width:1" />
  <line
     x1="320.5"
     x2="320.5"
     y1="180.5"
     y2="175.5"
     id="line132"
     style="fill:#000000;stroke:#000000;stroke-width:1" />
  <line
     x1="320.5"
     x2="320.5"
     y1="170.5"
     y2="165.5"
     id="line134"
     style="fill:#000000;stroke:#000000;stroke-width:1" />
  <line
     x1="320.5"
     x2="320.5"
     y1="160.5"
     y2="155.5"
     id="line136"
     style="fill:#000000;stroke:#000000;stroke-width:1" />
  <line
     x1="320.5"
     x2="320.5"
     y1="150.5"
     y2="145.5"
     id="line138"
     style="fill:#000000;stroke:#000000;stroke-width:1" />
  <line
     x1="320.5"
     x2="315.5"
     y1="144.5"
     y2="144.5"
     id="line140"
     style="fill:#000000;stroke:#000000;stroke-width:1" />
  <line
     x1="310.5"
     x2="305.5"
     y1="144.5"
     y2="144.5"
     id="line142"
     style="fill:#000000;stroke:#000000;stroke-width:1" />
  <line
     x1="300.5"
     x2="295.5"
     y1="144.5"
     y2="144.5"
     id="line144"
     style="fill:#000000;stroke:#000000;stroke-width:1" />
  <line
     x1="290.5"
     x2="285.5"
     y1="144.5"
     y2="144.5"
     id="line146"
     style="fill:#000000;stroke:#000000;stroke-width:1" />
  <line
     x1="280.5"
     x2="275.5"
     y1="144.5"
     y2="144.5"
     id="line148"
     style="fill:#000000;stroke:#000000;stroke-width:1" />
  <line
     x1="270.5"
     x2="265.5"
     y1="144.5"
     y2="144.5"
     id="line150"
     style="fill:#000000;stroke:#000000;stroke-width:1" />
  <line
     x1="260.5"
     x2="255.5"
     y1="144.5"
     y2="144.5"
     id="line152"
     style="fill:#000000;stroke:#000000;stroke-width:1" />
  <line
     x1="250.5"
     x2="245.5"
     y1="144.5"
     y2="144.5"
     id="line154"
     style="fill:#000000;stroke:#000000;stroke-width:1" />
  <line
     x1="240.5"
     x2="235.5"
     y1="144.5"
     y2="144.5"
     id="line156"
     style="fill:#000000;stroke:#000000;stroke-width:1" />
  <line
     x1="230.5"
     x2="228.5"
     y1="144.5"
     y2="144.5"
     id="line158"
     style="fill:#000000;stroke:#000000;stroke-width:1" />
  <line
     x1="240.5"
     x2="228.5"
     y1="137.5"
     y2="144.5"
     id="line160"
     style="fill:#000000;stroke:#000000;stroke-width:1" />
  <line
     x1="240.5"
     x2="228.5"
     y1="151.5"
     y2="144.5"
     id="line162"
     style="fill:#000000;stroke:#000000;stroke-width:1" />
  <line
     x1="136.5"
     x2="136.5"
     y1="112.5"
     y2="107.5"
     id="line164"
     style="fill:#000000;stroke:#000000;stroke-width:1" />
  <line
     x1="136.5"
     x2="136.5"
     y1="102.5"
     y2="97.5"
     id="line166"
     style="fill:#000000;stroke:#000000;stroke-width:1" />
  <line
     x1="136.5"
     x2="136.5"
     y1="92.5"
     y2="87.5"
     id="line168"
     style="fill:#000000;stroke:#000000;stroke-width:1" />
  <line
     x1="136.5"
     x2="136.5"
     y1="82.5"
     y2="77.5"
     id="line170"
     style="fill:#000000;stroke:#000000;stroke-width:1" />
  <line
     x1="136.5"
     x2="136.5"
     y1="72.5"
     y2="67.5"
     id="line172"
     style="fill:#000000;stroke:#000000;stroke-width:1" />
  <line
     x1="136.5"
     x2="136.5"
     y1="62.5"
     y2="57.5"
     id="line174"
     style="fill:#000000;stroke:#000000;stroke-width:1" />
  <line
     x1="143.5"
     x2="136.5"
     y1="68.5"
     y2="56.5"
     id="line176"
     style="fill:#000000;stroke:#000000;stroke-width:1" />
  <line
     x1="129.5"
     x2="136.5"
     y1="68.5"
     y2="56.5"
     id="line178"
     style="fill:#000000;stroke:#000000;stroke-width:1" />
  <rect
     height="25"
     width="68"
     x="0.5"
     y="256.5"
     id="rect180"
     style="fill:#ffffff;stroke:#ffffff;stroke-width:1" />
  <rect
     height="25"
     width="68"
     x="0.5"
     y="256.5"
     id="rect182"
     style="fill:none;stroke:#000000;stroke-width:1" />
  <text
     font-size="13"
     x="5.5"
     y="270.5"
     id="text184"
     style="font-size:13px;font-family:Lucida Grande">Database</text>
  <line
     x1="136.5"
     x2="136.5"
     y1="56.5"
     y2="61.5"
     id="line186"
     style="fill:#000000;stroke:#000000;stroke-width:1" />
  <line
     x1="136.5"
     x2="136.5"
     y1="66.5"
     y2="71.5"
     id="line188"
     style="fill:#000000;stroke:#000000;stroke-width:1" />
  <line
     x1="136.5"
     x2="136.5"
     y1="76.5"
     y2="81.5"
     id="line190"
     style="fill:#000000;stroke:#000000;stroke-width:1" />
  <line
     x1="136.5"
     x2="136.5"
     y1="86.5"
     y2="91.5"
     id="line192"
     style="fill:#000000;stroke:#000000;stroke-width:1" />
  <line
     x1="136.5"
     x2="136.5"
     y1="96.5"
     y2="101.5"
     id="line194"
     style="fill:#000000;stroke:#000000;stroke-width:1" />
  <line
     x1="136.5"
     x2="136.5"
     y1="106.5"
     y2="111.5"
     id="line196"
     style="fill:#000000;stroke:#000000;stroke-width:1" />
  <line
     x1="129.5"
     x2="136.5"
     y1="100.5"
     y2="112.5"
     id="line198"
     style="fill:#000000;stroke:#000000;stroke-width:1" />
  <line
     x1="143.5"
     x2="136.5"
     y1="100.5"
     y2="112.5"
     id="line200"
     style="fill:#000000;stroke:#000000;stroke-width:1" />
</svg>
