<?xml version="1.0" encoding="utf-8" ?>
<!DOCTYPE svg PUBLIC "-//W3C//DTD SVG 1.1//EN" "http://www.w3.org/Graphics/SVG/1.1/DTD/svg11.dtd">
<svg height="309" version="1.1" width="426" xmlns="http://www.w3.org/2000/svg">
<polygon fill="#ffffff" points="135,126 209,126 209,150 258,150 258,180 135,180 135,126" stroke="#ffffff" stroke-width="1"/>
<rect fill="none" height="24" stroke="#000000" stroke-width="1" width="74" x="135" y="126"/>
<text font-family="Lucida Grande" font-size="13" x="140" y="140">
Controller</text>
<rect fill="none" height="30" stroke="#000000" stroke-width="1" width="123" x="135" y="150"/>
<polygon fill="#ffffff" points="31,214 82,214 82,238 131,238 131,268 31,268 31,214" stroke="#ffffff" stroke-width="1"/>
<rect fill="none" height="24" stroke="#000000" stroke-width="1" width="51" x="31" y="214"/>
<text font-family="Lucida Grande" font-size="13" x="36" y="228">
Model</text>
<rect fill="none" height="30" stroke="#000000" stroke-width="1" width="100" x="31" y="238"/>
<polygon fill="#ffffff" points="311,214 362,214 362,238 411,238 411,268 311,268 311,214" stroke="#ffffff" stroke-width="1"/>
<rect fill="none" height="24" stroke="#000000" stroke-width="1" width="51" x="311" y="214"/>
<text font-family="Lucida Grande" font-size="13" x="316" y="228">
View</text>
<rect fill="none" height="30" stroke="#000000" stroke-width="1" width="100" x="311" y="238"/>
<polygon fill="#ffffff" points="119,14 213,14 213,38 262,38 262,69 119,69 119,14" stroke="#ffffff" stroke-width="1"/>
<rect fill="none" height="24" stroke="#000000" stroke-width="1" width="94" x="119" y="14"/>
<text font-family="Lucida Grande" font-size="13" x="124" y="28">
Webbrowser</text>
<rect fill="none" height="31" stroke="#000000" stroke-width="1" width="143" x="119" y="38"/>
<line fill="#000000" stroke="#000000" stroke-width="1" x1="39" x2="39" y1="214" y2="209"/>
<line fill="#000000" stroke="#000000" stroke-width="1" x1="39" x2="39" y1="204" y2="199"/>
<line fill="#000000" stroke="#000000" stroke-width="1" x1="39" x2="39" y1="194" y2="189"/>
<line fill="#000000" stroke="#000000" stroke-width="1" x1="39" x2="39" y1="184" y2="179"/>
<line fill="#000000" stroke="#000000" stroke-width="1" x1="39" x2="39" y1="174" y2="169"/>
<line fill="#000000" stroke="#000000" stroke-width="1" x1="39" x2="39" y1="164" y2="159"/>
<line fill="#000000" stroke="#000000" stroke-width="1" x1="39" x2="44" y1="158" y2="158"/>
<line fill="#000000" stroke="#000000" stroke-width="1" x1="49" x2="54" y1="158" y2="158"/>
<line fill="#000000" stroke="#000000" stroke-width="1" x1="59" x2="64" y1="158" y2="158"/>
<line fill="#000000" stroke="#000000" stroke-width="1" x1="69" x2="74" y1="158" y2="158"/>
<line fill="#000000" stroke="#000000" stroke-width="1" x1="79" x2="84" y1="158" y2="158"/>
<line fill="#000000" stroke="#000000" stroke-width="1" x1="89" x2="94" y1="158" y2="158"/>
<line fill="#000000" stroke="#000000" stroke-width="1" x1="99" x2="104" y1="158" y2="158"/>
<line fill="#000000" stroke="#000000" stroke-width="1" x1="109" x2="114" y1="158" y2="158"/>
<line fill="#000000" stroke="#000000" stroke-width="1" x1="119" x2="124" y1="158" y2="158"/>
<line fill="#000000" stroke="#000000" stroke-width="1" x1="129" x2="134" y1="158" y2="158"/>
<line fill="#000000" stroke="#000000" stroke-width="1" x1="123" x2="135" y1="165" y2="158"/>
<line fill="#000000" stroke="#000000" stroke-width="1" x1="123" x2="135" y1="151" y2="158"/>
<line fill="#000000" stroke="#000000" stroke-width="1" x1="135" x2="130" y1="174" y2="174"/>
<line fill="#000000" stroke="#000000" stroke-width="1" x1="125" x2="120" y1="174" y2="174"/>
<line fill="#000000" stroke="#000000" stroke-width="1" x1="115" x2="110" y1="174" y2="174"/>
<line fill="#000000" stroke="#000000" stroke-width="1" x1="105" x2="100" y1="174" y2="174"/>
<line fill="#000000" stroke="#000000" stroke-width="1" x1="95" x2="90" y1="174" y2="174"/>
<line fill="#000000" stroke="#000000" stroke-width="1" x1="85" x2="80" y1="174" y2="174"/>
<line fill="#000000" stroke="#000000" stroke-width="1" x1="75" x2="70" y1="174" y2="174"/>
<line fill="#000000" stroke="#000000" stroke-width="1" x1="65" x2="60" y1="174" y2="174"/>
<line fill="#000000" stroke="#000000" stroke-width="1" x1="55" x2="55" y1="174" y2="179"/>
<line fill="#000000" stroke="#000000" stroke-width="1" x1="55" x2="55" y1="184" y2="189"/>
<line fill="#000000" stroke="#000000" stroke-width="1" x1="55" x2="55" y1="194" y2="199"/>
<line fill="#000000" stroke="#000000" stroke-width="1" x1="55" x2="55" y1="204" y2="209"/>
<line fill="#000000" stroke="#000000" stroke-width="1" x1="48" x2="55" y1="202" y2="214"/>
<line fill="#000000" stroke="#000000" stroke-width="1" x1="62" x2="55" y1="202" y2="214"/>
<line fill="#000000" stroke="#000000" stroke-width="1" x1="259" x2="264" y1="174" y2="174"/>
<line fill="#000000" stroke="#000000" stroke-width="1" x1="269" x2="274" y1="174" y2="174"/>
<line fill="#000000" stroke="#000000" stroke-width="1" x1="279" x2="284" y1="174" y2="174"/>
<line fill="#000000" stroke="#000000" stroke-width="1" x1="289" x2="294" y1="174" y2="174"/>
<line fill="#000000" stroke="#000000" stroke-width="1" x1="299" x2="304" y1="174" y2="174"/>
<line fill="#000000" stroke="#000000" stroke-width="1" x1="309" x2="314" y1="174" y2="174"/>
<line fill="#000000" stroke="#000000" stroke-width="1" x1="319" x2="324" y1="174" y2="174"/>
<line fill="#000000" stroke="#000000" stroke-width="1" x1="329" x2="334" y1="174" y2="174"/>
<line fill="#000000" stroke="#000000" stroke-width="1" x1="335" x2="335" y1="174" y2="179"/>
<line fill="#000000" stroke="#000000" stroke-width="1" x1="335" x2="335" y1="184" y2="189"/>
<line fill="#000000" stroke="#000000" stroke-width="1" x1="335" x2="335" y1="194" y2="199"/>
<line fill="#000000" stroke="#000000" stroke-width="1" x1="335" x2="335" y1="204" y2="209"/>
<line fill="#000000" stroke="#000000" stroke-width="1" x1="328" x2="335" y1="202" y2="214"/>
<line fill="#000000" stroke="#000000" stroke-width="1" x1="342" x2="335" y1="202" y2="214"/>
<line fill="#000000" stroke="#000000" stroke-width="1" x1="351" x2="351" y1="214" y2="209"/>
<line fill="#000000" stroke="#000000" stroke-width="1" x1="351" x2="351" y1="204" y2="199"/>
<line fill="#000000" stroke="#000000" stroke-width="1" x1="351" x2="351" y1="194" y2="189"/>
<line fill="#000000" stroke="#000000" stroke-width="1" x1="351" x2="351" y1="184" y2="179"/>
<line fill="#000000" stroke="#000000" stroke-width="1" x1="351" x2="351" y1="174" y2="169"/>
<line fill="#000000" stroke="#000000" stroke-width="1" x1="351" x2="351" y1="164" y2="159"/>
<line fill="#000000" stroke="#000000" stroke-width="1" x1="351" x2="346" y1="158" y2="158"/>
<line fill="#000000" stroke="#000000" stroke-width="1" x1="341" x2="336" y1="158" y2="158"/>
<line fill="#000000" stroke="#000000" stroke-width="1" x1="331" x2="326" y1="158" y2="158"/>
<line fill="#000000" stroke="#000000" stroke-width="1" x1="321" x2="316" y1="158" y2="158"/>
<line fill="#000000" stroke="#000000" stroke-width="1" x1="311" x2="306" y1="158" y2="158"/>
<line fill="#000000" stroke="#000000" stroke-width="1" x1="301" x2="296" y1="158" y2="158"/>
<line fill="#000000" stroke="#000000" stroke-width="1" x1="291" x2="286" y1="158" y2="158"/>
<line fill="#000000" stroke="#000000" stroke-width="1" x1="281" x2="276" y1="158" y2="158"/>
<line fill="#000000" stroke="#000000" stroke-width="1" x1="271" x2="266" y1="158" y2="158"/>
<line fill="#000000" stroke="#000000" stroke-width="1" x1="261" x2="259" y1="158" y2="158"/>
<line fill="#000000" stroke="#000000" stroke-width="1" x1="271" x2="259" y1="151" y2="158"/>
<line fill="#000000" stroke="#000000" stroke-width="1" x1="271" x2="259" y1="165" y2="158"/>
<line fill="#000000" stroke="#000000" stroke-width="1" x1="167" x2="167" y1="126" y2="121"/>
<line fill="#000000" stroke="#000000" stroke-width="1" x1="167" x2="167" y1="116" y2="111"/>
<line fill="#000000" stroke="#000000" stroke-width="1" x1="167" x2="167" y1="106" y2="101"/>
<line fill="#000000" stroke="#000000" stroke-width="1" x1="167" x2="167" y1="96" y2="91"/>
<line fill="#000000" stroke="#000000" stroke-width="1" x1="167" x2="167" y1="86" y2="81"/>
<line fill="#000000" stroke="#000000" stroke-width="1" x1="167" x2="167" y1="76" y2="71"/>
<line fill="#000000" stroke="#000000" stroke-width="1" x1="174" x2="167" y1="82" y2="70"/>
<line fill="#000000" stroke="#000000" stroke-width="1" x1="160" x2="167" y1="82" y2="70"/>
<rect fill="#ffffff" height="25" stroke="#ffffff" stroke-width="1" width="68" x="31" y="270"/>
<rect fill="none" height="25" stroke="#000000" stroke-width="1" width="68" x="31" y="270"/>
<text font-family="Lucida Grande" font-size="13" x="36" y="284">
Database</text>
<line fill="#000000" stroke="#000000" stroke-width="1" x1="167" x2="167" y1="70" y2="75"/>
<line fill="#000000" stroke="#000000" stroke-width="1" x1="167" x2="167" y1="80" y2="85"/>
<line fill="#000000" stroke="#000000" stroke-width="1" x1="167" x2="167" y1="90" y2="95"/>
<line fill="#000000" stroke="#000000" stroke-width="1" x1="167" x2="167" y1="100" y2="105"/>
<line fill="#000000" stroke="#000000" stroke-width="1" x1="167" x2="167" y1="110" y2="115"/>
<line fill="#000000" stroke="#000000" stroke-width="1" x1="167" x2="167" y1="120" y2="125"/>
<line fill="#000000" stroke="#000000" stroke-width="1" x1="160" x2="167" y1="114" y2="126"/>
<line fill="#000000" stroke="#000000" stroke-width="1" x1="174" x2="167" y1="114" y2="126"/>
</svg>
