<?xml version="1.0" encoding="utf-8" ?>
<!DOCTYPE svg PUBLIC "-//W3C//DTD SVG 1.1//EN" "http://www.w3.org/Graphics/SVG/1.1/DTD/svg11.dtd">
<svg height="317" version="1.1" width="392" xmlns="http://www.w3.org/2000/svg">
<polygon fill="#ffffff" points="135,126 209,126 209,150 258,150 258,180 135,180 135,126" stroke="#ffffff" stroke-width="1"/>
<rect fill="none" height="24" stroke="#000000" stroke-width="1" width="74" x="135" y="126"/>
<text font-family="Lucida Grande" font-size="13" x="140" y="140">
Controller</text>
<rect fill="none" height="30" stroke="#000000" stroke-width="1" width="123" x="135" y="150"/>
<polygon fill="#ffffff" points="31,214 82,214 82,238 131,238 131,268 31,268 31,214" stroke="#ffffff" stroke-width="1"/>
<rect fill="none" height="24" stroke="#000000" stroke-width="1" width="51" x="31" y="214"/>
<text font-family="Lucida Grande" font-size="13" x="36" y="228">
Model</text>
<rect fill="none" height="30" stroke="#000000" stroke-width="1" width="100" x="31" y="238"/>
<polygon fill="#ffffff" points="263,214 314,214 314,238 363,238 363,268 263,268 263,214" stroke="#ffffff" stroke-width="1"/>
<rect fill="none" height="24" stroke="#000000" stroke-width="1" width="51" x="263" y="214"/>
<text font-family="Lucida Grande" font-size="13" x="268" y="228">
View</text>
<rect fill="none" height="30" stroke="#000000" stroke-width="1" width="100" x="263" y="238"/>
<polygon fill="#ffffff" points="127,14 221,14 221,38 270,38 270,68 127,68 127,14" stroke="#ffffff" stroke-width="1"/>
<rect fill="none" height="24" stroke="#000000" stroke-width="1" width="94" x="127" y="14"/>
<text font-family="Lucida Grande" font-size="13" x="132" y="28">
Webbrowser</text>
<rect fill="none" height="30" stroke="#000000" stroke-width="1" width="143" x="127" y="38"/>
<line fill="#000000" stroke="#000000" stroke-width="1" x1="39" x2="39" y1="214" y2="209"/>
<line fill="#000000" stroke="#000000" stroke-width="1" x1="39" x2="39" y1="204" y2="199"/>
<line fill="#000000" stroke="#000000" stroke-width="1" x1="39" x2="39" y1="194" y2="189"/>
<line fill="#000000" stroke="#000000" stroke-width="1" x1="39" x2="39" y1="184" y2="179"/>
<line fill="#000000" stroke="#000000" stroke-width="1" x1="39" x2="39" y1="174" y2="169"/>
<line fill="#000000" stroke="#000000" stroke-width="1" x1="39" x2="39" y1="164" y2="159"/>
<line fill="#000000" stroke="#000000" stroke-width="1" x1="39" x2="44" y1="158" y2="158"/>
<line fill="#000000" stroke="#000000" stroke-width="1" x1="49" x2="54" y1="158" y2="158"/>
<line fill="#000000" stroke="#000000" stroke-width="1" x1="59" x2="64" y1="158" y2="158"/>
<line fill="#000000" stroke="#000000" stroke-width="1" x1="69" x2="74" y1="158" y2="158"/>
<line fill="#000000" stroke="#000000" stroke-width="1" x1="79" x2="84" y1="158" y2="158"/>
<line fill="#000000" stroke="#000000" stroke-width="1" x1="89" x2="94" y1="158" y2="158"/>
<line fill="#000000" stroke="#000000" stroke-width="1" x1="99" x2="104" y1="158" y2="158"/>
<line fill="#000000" stroke="#000000" stroke-width="1" x1="109" x2="114" y1="158" y2="158"/>
<line fill="#000000" stroke="#000000" stroke-width="1" x1="119" x2="124" y1="158" y2="158"/>
<line fill="#000000" stroke="#000000" stroke-width="1" x1="129" x2="134" y1="158" y2="158"/>
<line fill="#000000" stroke="#000000" stroke-width="1" x1="123" x2="135" y1="165" y2="158"/>
<line fill="#000000" stroke="#000000" stroke-width="1" x1="123" x2="135" y1="151" y2="158"/>
<line fill="#000000" stroke="#000000" stroke-width="1" x1="135" x2="130" y1="174" y2="174"/>
<line fill="#000000" stroke="#000000" stroke-width="1" x1="125" x2="120" y1="174" y2="174"/>
<line fill="#000000" stroke="#000000" stroke-width="1" x1="115" x2="110" y1="174" y2="174"/>
<line fill="#000000" stroke="#000000" stroke-width="1" x1="105" x2="100" y1="174" y2="174"/>
<line fill="#000000" stroke="#000000" stroke-width="1" x1="95" x2="90" y1="174" y2="174"/>
<line fill="#000000" stroke="#000000" stroke-width="1" x1="85" x2="80" y1="174" y2="174"/>
<line fill="#000000" stroke="#000000" stroke-width="1" x1="75" x2="70" y1="174" y2="174"/>
<line fill="#000000" stroke="#000000" stroke-width="1" x1="65" x2="60" y1="174" y2="174"/>
<line fill="#000000" stroke="#000000" stroke-width="1" x1="55" x2="55" y1="174" y2="179"/>
<line fill="#000000" stroke="#000000" stroke-width="1" x1="55" x2="55" y1="184" y2="189"/>
<line fill="#000000" stroke="#000000" stroke-width="1" x1="55" x2="55" y1="194" y2="199"/>
<line fill="#000000" stroke="#000000" stroke-width="1" x1="55" x2="55" y1="204" y2="209"/>
<line fill="#000000" stroke="#000000" stroke-width="1" x1="48" x2="55" y1="202" y2="214"/>
<line fill="#000000" stroke="#000000" stroke-width="1" x1="62" x2="55" y1="202" y2="214"/>
<line fill="#000000" stroke="#000000" stroke-width="1" x1="259" x2="264" y1="174" y2="174"/>
<line fill="#000000" stroke="#000000" stroke-width="1" x1="269" x2="274" y1="174" y2="174"/>
<line fill="#000000" stroke="#000000" stroke-width="1" x1="279" x2="279" y1="174" y2="179"/>
<line fill="#000000" stroke="#000000" stroke-width="1" x1="279" x2="279" y1="184" y2="189"/>
<line fill="#000000" stroke="#000000" stroke-width="1" x1="279" x2="279" y1="194" y2="199"/>
<line fill="#000000" stroke="#000000" stroke-width="1" x1="279" x2="279" y1="204" y2="209"/>
<line fill="#000000" stroke="#000000" stroke-width="1" x1="272" x2="279" y1="202" y2="214"/>
<line fill="#000000" stroke="#000000" stroke-width="1" x1="286" x2="279" y1="202" y2="214"/>
<line fill="#000000" stroke="#000000" stroke-width="1" x1="303" x2="303" y1="214" y2="209"/>
<line fill="#000000" stroke="#000000" stroke-width="1" x1="303" x2="303" y1="204" y2="199"/>
<line fill="#000000" stroke="#000000" stroke-width="1" x1="303" x2="303" y1="194" y2="189"/>
<line fill="#000000" stroke="#000000" stroke-width="1" x1="303" x2="303" y1="184" y2="179"/>
<line fill="#000000" stroke="#000000" stroke-width="1" x1="303" x2="303" y1="174" y2="169"/>
<line fill="#000000" stroke="#000000" stroke-width="1" x1="303" x2="303" y1="164" y2="159"/>
<line fill="#000000" stroke="#000000" stroke-width="1" x1="303" x2="298" y1="158" y2="158"/>
<line fill="#000000" stroke="#000000" stroke-width="1" x1="293" x2="288" y1="158" y2="158"/>
<line fill="#000000" stroke="#000000" stroke-width="1" x1="283" x2="278" y1="158" y2="158"/>
<line fill="#000000" stroke="#000000" stroke-width="1" x1="273" x2="268" y1="158" y2="158"/>
<line fill="#000000" stroke="#000000" stroke-width="1" x1="263" x2="259" y1="158" y2="158"/>
<line fill="#000000" stroke="#000000" stroke-width="1" x1="271" x2="259" y1="151" y2="158"/>
<line fill="#000000" stroke="#000000" stroke-width="1" x1="271" x2="259" y1="165" y2="158"/>
<line fill="#000000" stroke="#000000" stroke-width="1" x1="191" x2="191" y1="126" y2="121"/>
<line fill="#000000" stroke="#000000" stroke-width="1" x1="191" x2="191" y1="116" y2="111"/>
<line fill="#000000" stroke="#000000" stroke-width="1" x1="191" x2="191" y1="106" y2="101"/>
<line fill="#000000" stroke="#000000" stroke-width="1" x1="191" x2="191" y1="96" y2="91"/>
<line fill="#000000" stroke="#000000" stroke-width="1" x1="191" x2="191" y1="86" y2="81"/>
<line fill="#000000" stroke="#000000" stroke-width="1" x1="191" x2="191" y1="76" y2="71"/>
<line fill="#000000" stroke="#000000" stroke-width="1" x1="198" x2="191" y1="81" y2="69"/>
<line fill="#000000" stroke="#000000" stroke-width="1" x1="184" x2="191" y1="81" y2="69"/>
<rect fill="#ffffff" height="25" stroke="#ffffff" stroke-width="1" width="68" x="31" y="278"/>
<rect fill="none" height="25" stroke="#000000" stroke-width="1" width="68" x="31" y="278"/>
<text font-family="Lucida Grande" font-size="13" x="36" y="292">
Database</text>
<line fill="#000000" stroke="#000000" stroke-width="1" x1="159" x2="159" y1="69" y2="74"/>
<line fill="#000000" stroke="#000000" stroke-width="1" x1="159" x2="159" y1="79" y2="84"/>
<line fill="#000000" stroke="#000000" stroke-width="1" x1="159" x2="159" y1="89" y2="94"/>
<line fill="#000000" stroke="#000000" stroke-width="1" x1="159" x2="159" y1="99" y2="104"/>
<line fill="#000000" stroke="#000000" stroke-width="1" x1="159" x2="159" y1="109" y2="114"/>
<line fill="#000000" stroke="#000000" stroke-width="1" x1="159" x2="159" y1="119" y2="124"/>
<line fill="#000000" stroke="#000000" stroke-width="1" x1="152" x2="159" y1="114" y2="126"/>
<line fill="#000000" stroke="#000000" stroke-width="1" x1="166" x2="159" y1="114" y2="126"/>
</svg>
